<?xml version="1.0" encoding="UTF-8"?><svg id="a" xmlns="http://www.w3.org/2000/svg" viewBox="0 0 400 400"><defs><style>.b{fill:#000;}.b,.c{stroke-width:0px;}.c{fill:#fff;}</style></defs><path class="b" d="M400,185v30c-1.32,8.17-2.44,16.37-3.99,24.49-14.55,76.27-76.23,139.39-152.11,155.57-9.55,2.04-19.26,3.31-28.9,4.94h-30c-8.17-1.32-16.37-2.44-24.49-3.99C84.23,381.45,21.15,319.82,4.94,243.9c-2.04-9.55-3.31-19.26-4.94-28.9,0-10,0-20,0-30,1.32-8.17,2.44-16.37,3.99-24.49C18.54,84.24,80.22,21.12,156.1,4.94,165.65,2.9,175.36,1.63,185,0c10,0,20,0,30,0,8.17,1.32,16.37,2.44,24.49,3.99,76.28,14.56,139.36,76.19,155.57,152.11,2.04,9.55,3.31,19.26,4.94,28.9ZM199.51,284c21.33,0,42.67.08,64-.02,24.73-.11,39.32-25.38,26.97-46.84-25.97-45.16-52.04-90.26-78.12-135.35-6.91-11.94-18.76-11.96-25.7.03-26,44.93-52.01,89.86-77.81,134.91-12.85,22.43,1.79,47.23,27.66,47.27,21,.03,42,0,63,0Z"/><path class="c" d="M199.51,284c-21,0-42,.03-63,0-25.87-.04-40.51-24.83-27.66-47.27,25.8-45.05,51.8-89.98,77.81-134.91,6.94-11.99,18.79-11.98,25.7-.03,26.08,45.09,52.15,90.19,78.12,135.35,12.34,21.46-2.24,46.73-26.97,46.84-21.33.1-42.67.02-64,.02ZM187.51,260.5v-118.27c-1.49,2.51-2.45,4-3.3,5.55-18.1,33.12-36.16,66.26-54.3,99.36-4.48,8.17-1.7,13.28,7.62,13.33,14.32.08,28.65.02,42.98.02,2.29,0,4.57,0,7,0ZM211.38,260.3c17.32,0,34.12.04,50.92-.02,8.29-.03,11.15-5.19,7.11-12.55-17.45-31.76-34.88-63.53-52.31-95.3-1.7-3.1-3.29-6.25-4.94-9.37-.26.12-.52.23-.78.35v116.89Z"/><path class="b" d="M187.51,260.5c-2.43,0-4.71,0-7,0-14.33,0-28.65.06-42.98-.02-9.32-.05-12.1-5.16-7.62-13.33,18.14-33.1,36.2-66.24,54.3-99.36.85-1.55,1.8-3.04,3.3-5.55v118.27Z"/><path class="b" d="M211.38,260.3v-116.89c.26-.12.52-.23.78-.35,1.64,3.13,3.24,6.28,4.94,9.37,17.43,31.77,34.86,63.54,52.31,95.3,4.04,7.36,1.18,12.53-7.11,12.55-16.8.05-33.6.02-50.92.02Z"/></svg>