<svg xmlns="http://www.w3.org/2000/svg" xml:space="preserve" xmlns:xlink="http://www.w3.org/1999/xlink"
     style="max-width: 100%;height: auto;" width="999" height="999" viewBox="0 0 999 999">
<defs><mask id="qrmask"><g fill="#ffffff"><g>
<g transform="translate(270,54) scale(4.635)"><path d="M6,6H0V3c0-1.7,1.3-3,3-3l3,0V6z"/></g>
<g transform="translate(297,54) scale(4.635)"><path d="M3,6H0V0l3,0c1.7,0,3,1.3,3,3v0C6,4.7,4.7,6,3,6z"/></g>
<g transform="translate(378,54) scale(4.635)"><circle cx="3" cy="3" r="3"/></g>
<g transform="translate(432,54) scale(4.635)"><path d="M6,6H0V3c0-1.7,1.3-3,3-3h0c1.7,0,3,1.3,3,3V6z"/></g>
<g transform="translate(486,54) scale(4.635)"><path d="M6,6H3C1.3,6,0,4.7,0,3v0c0-1.7,1.3-3,3-3h3C6,0,6,6,6,6z"/></g>
<g transform="translate(513,54) scale(4.635)"><rect width="6" height="6"/></g>
<g transform="translate(540,54) scale(4.635)"><path d="M6,6H0V0l3,0c1.7,0,3,1.3,3,3V6z"/></g>
<g transform="translate(621,54) scale(4.635)"><path d="M6,6H3C1.3,6,0,4.7,0,3v0c0-1.7,1.3-3,3-3h3C6,0,6,6,6,6z"/></g>
<g transform="translate(648,54) scale(4.635)"><path d="M3,6H0V0l3,0c1.7,0,3,1.3,3,3v0C6,4.7,4.7,6,3,6z"/></g>
<g transform="translate(270,81) scale(4.635)"><rect width="6" height="6"/></g>
<g transform="translate(432,81) scale(4.635)"><path d="M3,6L3,6C1.3,6,0,4.7,0,3V0h6v3C6,4.7,4.7,6,3,6z"/></g>
<g transform="translate(540,81) scale(4.635)"><rect width="6" height="6"/></g>
<g transform="translate(567,81) scale(4.635)"><path d="M6,6H0V0l3,0c1.7,0,3,1.3,3,3V6z"/></g>
<g transform="translate(675,81) scale(4.635)"><circle cx="3" cy="3" r="3"/></g>
<g transform="translate(270,108) scale(4.635)"><path d="M3,6L3,6C1.3,6,0,4.7,0,3V0h6v3C6,4.7,4.7,6,3,6z"/></g>
<g transform="translate(324,108) scale(4.635)"><path d="M6,6H3C1.3,6,0,4.7,0,3v0c0-1.7,1.3-3,3-3h3C6,0,6,6,6,6z"/></g>
<g transform="translate(351,108) scale(4.635)"><rect width="6" height="6"/></g>
<g transform="translate(378,108) scale(4.635)"><path d="M3,6H0V0l3,0c1.7,0,3,1.3,3,3v0C6,4.7,4.7,6,3,6z"/></g>
<g transform="translate(459,108) scale(4.635)"><path d="M6,6H3C1.3,6,0,4.7,0,3v0c0-1.7,1.3-3,3-3h3C6,0,6,6,6,6z"/></g>
<g transform="translate(486,108) scale(4.635)"><path d="M6,6H0V0l3,0c1.7,0,3,1.3,3,3V6z"/></g>
<g transform="translate(540,108) scale(4.635)"><path d="M6,6H3C1.3,6,0,4.7,0,3V0l6,0V6z"/></g>
<g transform="translate(567,108) scale(4.635)"><rect width="6" height="6"/></g>
<g transform="translate(594,108) scale(4.635)"><rect width="6" height="6"/></g>
<g transform="translate(621,108) scale(4.635)"><rect width="6" height="6"/></g>
<g transform="translate(648,108) scale(4.635)"><path d="M3,6H0V0l3,0c1.7,0,3,1.3,3,3v0C6,4.7,4.7,6,3,6z"/></g>
<g transform="translate(351,135) scale(4.635)"><path d="M3,6L3,6C1.3,6,0,4.7,0,3V0h6v3C6,4.7,4.7,6,3,6z"/></g>
<g transform="translate(486,135) scale(4.635)"><rect width="6" height="6"/></g>
<g transform="translate(675,135) scale(4.635)"><path d="M6,6H0V3c0-1.7,1.3-3,3-3l3,0V6z"/></g>
<g transform="translate(702,135) scale(4.635)"><path d="M6,6H0V0l3,0c1.7,0,3,1.3,3,3V6z"/></g>
<g transform="translate(297,162) scale(4.635)"><path d="M6,6H0V3c0-1.7,1.3-3,3-3h0c1.7,0,3,1.3,3,3V6z"/></g>
<g transform="translate(432,162) scale(4.635)"><circle cx="3" cy="3" r="3"/></g>
<g transform="translate(486,162) scale(4.635)"><path d="M6,6H3C1.3,6,0,4.7,0,3V0l6,0V6z"/></g>
<g transform="translate(513,162) scale(4.635)"><rect width="6" height="6"/></g>
<g transform="translate(540,162) scale(4.635)"><rect width="6" height="6"/></g>
<g transform="translate(567,162) scale(4.635)"><path d="M3,6H0V0l3,0c1.7,0,3,1.3,3,3v0C6,4.7,4.7,6,3,6z"/></g>
<g transform="translate(675,162) scale(4.635)"><path d="M6,6H3C1.3,6,0,4.7,0,3V0l6,0V6z"/></g>
<g transform="translate(702,162) scale(4.635)"><path d="M3,6H0V0l6,0v3C6,4.7,4.7,6,3,6z"/></g>
<g transform="translate(270,189) scale(4.635)"><path d="M6,6H0V3c0-1.7,1.3-3,3-3l3,0V6z"/></g>
<g transform="translate(297,189) scale(4.635)"><path d="M3,6H0V0l6,0v3C6,4.7,4.7,6,3,6z"/></g>
<g transform="translate(405,189) scale(4.635)"><circle cx="3" cy="3" r="3"/></g>
<g transform="translate(540,189) scale(4.635)"><rect width="6" height="6"/></g>
<g transform="translate(594,189) scale(4.635)"><path d="M6,6H0V3c0-1.7,1.3-3,3-3l3,0V6z"/></g>
<g transform="translate(621,189) scale(4.635)"><path d="M3,6H0V0l3,0c1.7,0,3,1.3,3,3v0C6,4.7,4.7,6,3,6z"/></g>
<g transform="translate(270,216) scale(4.635)"><rect width="6" height="6"/></g>
<g transform="translate(324,216) scale(4.635)"><circle cx="3" cy="3" r="3"/></g>
<g transform="translate(378,216) scale(4.635)"><path d="M6,6H0V3c0-1.7,1.3-3,3-3h0c1.7,0,3,1.3,3,3V6z"/></g>
<g transform="translate(432,216) scale(4.635)"><circle cx="3" cy="3" r="3"/></g>
<g transform="translate(486,216) scale(4.635)"><circle cx="3" cy="3" r="3"/></g>
<g transform="translate(540,216) scale(4.635)"><path d="M3,6L3,6C1.3,6,0,4.7,0,3V0h6v3C6,4.7,4.7,6,3,6z"/></g>
<g transform="translate(594,216) scale(4.635)"><rect width="6" height="6"/></g>
<g transform="translate(648,216) scale(4.635)"><path d="M6,6H0V3c0-1.7,1.3-3,3-3h0c1.7,0,3,1.3,3,3V6z"/></g>
<g transform="translate(702,216) scale(4.635)"><path d="M6,6H0V3c0-1.7,1.3-3,3-3h0c1.7,0,3,1.3,3,3V6z"/></g>
<g transform="translate(270,243) scale(4.635)"><rect width="6" height="6"/></g>
<g transform="translate(297,243) scale(4.635)"><path d="M3,6H0V0l3,0c1.7,0,3,1.3,3,3v0C6,4.7,4.7,6,3,6z"/></g>
<g transform="translate(378,243) scale(4.635)"><path d="M6,6H3C1.3,6,0,4.7,0,3V0l6,0V6z"/></g>
<g transform="translate(405,243) scale(4.635)"><path d="M6,6H0V0l3,0c1.7,0,3,1.3,3,3V6z"/></g>
<g transform="translate(459,243) scale(4.635)"><circle cx="3" cy="3" r="3"/></g>
<g transform="translate(567,243) scale(4.635)"><path d="M6,6H3C1.3,6,0,4.7,0,3v0c0-1.7,1.3-3,3-3h3C6,0,6,6,6,6z"/></g>
<g transform="translate(594,243) scale(4.635)"><rect width="6" height="6"/></g>
<g transform="translate(621,243) scale(4.635)"><rect width="6" height="6"/></g>
<g transform="translate(648,243) scale(4.635)"><rect width="6" height="6"/></g>
<g transform="translate(702,243) scale(4.635)"><path d="M3,6L3,6C1.3,6,0,4.7,0,3V0h6v3C6,4.7,4.7,6,3,6z"/></g>
<g transform="translate(108,270) scale(4.635)"><path d="M6,6H3C1.3,6,0,4.7,0,3v0c0-1.7,1.3-3,3-3h3C6,0,6,6,6,6z"/></g>
<g transform="translate(135,270) scale(4.635)"><rect width="6" height="6"/></g>
<g transform="translate(162,270) scale(4.635)"><path d="M3,6H0V0l3,0c1.7,0,3,1.3,3,3v0C6,4.7,4.7,6,3,6z"/></g>
<g transform="translate(216,270) scale(4.635)"><circle cx="3" cy="3" r="3"/></g>
<g transform="translate(270,270) scale(4.635)"><rect width="6" height="6"/></g>
<g transform="translate(405,270) scale(4.635)"><rect width="6" height="6"/></g>
<g transform="translate(432,270) scale(4.635)"><path d="M6,6H0V0l3,0c1.7,0,3,1.3,3,3V6z"/></g>
<g transform="translate(486,270) scale(4.635)"><circle cx="3" cy="3" r="3"/></g>
<g transform="translate(540,270) scale(4.635)"><circle cx="3" cy="3" r="3"/></g>
<g transform="translate(594,270) scale(4.635)"><rect width="6" height="6"/></g>
<g transform="translate(621,270) scale(4.635)"><rect width="6" height="6"/></g>
<g transform="translate(648,270) scale(4.635)"><path d="M3,6H0V0l6,0v3C6,4.7,4.7,6,3,6z"/></g>
<g transform="translate(729,270) scale(4.635)"><path d="M6,6H0V3c0-1.7,1.3-3,3-3l3,0V6z"/></g>
<g transform="translate(756,270) scale(4.635)"><rect width="6" height="6"/></g>
<g transform="translate(783,270) scale(4.635)"><path d="M3,6H0V0l3,0c1.7,0,3,1.3,3,3v0C6,4.7,4.7,6,3,6z"/></g>
<g transform="translate(864,270) scale(4.635)"><path d="M6,6H3C1.3,6,0,4.7,0,3v0c0-1.7,1.3-3,3-3h3C6,0,6,6,6,6z"/></g>
<g transform="translate(891,270) scale(4.635)"><rect width="6" height="6"/></g>
<g transform="translate(918,270) scale(4.635)"><path d="M3,6H0V0l3,0c1.7,0,3,1.3,3,3v0C6,4.7,4.7,6,3,6z"/></g>
<g transform="translate(54,297) scale(4.635)"><path d="M6,6H0V3c0-1.7,1.3-3,3-3h0c1.7,0,3,1.3,3,3V6z"/></g>
<g transform="translate(135,297) scale(4.635)"><rect width="6" height="6"/></g>
<g transform="translate(243,297) scale(4.635)"><path d="M6,6H3C1.3,6,0,4.7,0,3v0c0-1.7,1.3-3,3-3h3C6,0,6,6,6,6z"/></g>
<g transform="translate(270,297) scale(4.635)"><rect width="6" height="6"/></g>
<g transform="translate(378,297) scale(4.635)"><path d="M6,6H0V3c0-1.7,1.3-3,3-3l3,0V6z"/></g>
<g transform="translate(405,297) scale(4.635)"><rect width="6" height="6"/></g>
<g transform="translate(432,297) scale(4.635)"><path d="M3,6H0V0l6,0v3C6,4.7,4.7,6,3,6z"/></g>
<g transform="translate(594,297) scale(4.635)"><rect width="6" height="6"/></g>
<g transform="translate(702,297) scale(4.635)"><path d="M6,6H3C1.3,6,0,4.7,0,3v0c0-1.7,1.3-3,3-3h3C6,0,6,6,6,6z"/></g>
<g transform="translate(729,297) scale(4.635)"><rect width="6" height="6"/></g>
<g transform="translate(810,297) scale(4.635)"><path d="M6,6H3C1.3,6,0,4.7,0,3v0c0-1.7,1.3-3,3-3h3C6,0,6,6,6,6z"/></g>
<g transform="translate(837,297) scale(4.635)"><path d="M6,6H0V0l3,0c1.7,0,3,1.3,3,3V6z"/></g>
<g transform="translate(54,324) scale(4.635)"><rect width="6" height="6"/></g>
<g transform="translate(81,324) scale(4.635)"><path d="M3,6H0V0l3,0c1.7,0,3,1.3,3,3v0C6,4.7,4.7,6,3,6z"/></g>
<g transform="translate(135,324) scale(4.635)"><rect width="6" height="6"/></g>
<g transform="translate(189,324) scale(4.635)"><path d="M6,6H0V3c0-1.7,1.3-3,3-3l3,0V6z"/></g>
<g transform="translate(216,324) scale(4.635)"><path d="M3,6H0V0l3,0c1.7,0,3,1.3,3,3v0C6,4.7,4.7,6,3,6z"/></g>
<g transform="translate(270,324) scale(4.635)"><rect width="6" height="6"/></g>
<g transform="translate(351,324) scale(4.635)"><path d="M6,6H3C1.3,6,0,4.7,0,3v0c0-1.7,1.3-3,3-3h3C6,0,6,6,6,6z"/></g>
<g transform="translate(378,324) scale(4.635)"><rect width="6" height="6"/></g>
<g transform="translate(405,324) scale(4.635)"><rect width="6" height="6"/></g>
<g transform="translate(486,324) scale(4.635)"><circle cx="3" cy="3" r="3"/></g>
<g transform="translate(567,324) scale(4.635)"><path d="M6,6H3C1.3,6,0,4.7,0,3v0c0-1.7,1.3-3,3-3h3C6,0,6,6,6,6z"/></g>
<g transform="translate(594,324) scale(4.635)"><rect width="6" height="6"/></g>
<g transform="translate(621,324) scale(4.635)"><rect width="6" height="6"/></g>
<g transform="translate(648,324) scale(4.635)"><path d="M6,6H0V0l3,0c1.7,0,3,1.3,3,3V6z"/></g>
<g transform="translate(729,324) scale(4.635)"><rect width="6" height="6"/></g>
<g transform="translate(783,324) scale(4.635)"><path d="M6,6H0V3c0-1.7,1.3-3,3-3h0c1.7,0,3,1.3,3,3V6z"/></g>
<g transform="translate(837,324) scale(4.635)"><path d="M6,6H3C1.3,6,0,4.7,0,3V0l6,0V6z"/></g>
<g transform="translate(864,324) scale(4.635)"><path d="M6,6H0V0l3,0c1.7,0,3,1.3,3,3V6z"/></g>
<g transform="translate(918,324) scale(4.635)"><path d="M6,6H0V3c0-1.7,1.3-3,3-3h0c1.7,0,3,1.3,3,3V6z"/></g>
<g transform="translate(54,351) scale(4.635)"><rect width="6" height="6"/></g>
<g transform="translate(108,351) scale(4.635)"><path d="M6,6H0V3c0-1.7,1.3-3,3-3l3,0V6z"/></g>
<g transform="translate(135,351) scale(4.635)"><rect width="6" height="6"/></g>
<g transform="translate(162,351) scale(4.635)"><rect width="6" height="6"/></g>
<g transform="translate(189,351) scale(4.635)"><path d="M3,6H0V0l6,0v3C6,4.7,4.7,6,3,6z"/></g>
<g transform="translate(243,351) scale(4.635)"><path d="M6,6H3C1.3,6,0,4.7,0,3v0c0-1.7,1.3-3,3-3h3C6,0,6,6,6,6z"/></g>
<g transform="translate(270,351) scale(4.635)"><rect width="6" height="6"/></g>
<g transform="translate(378,351) scale(4.635)"><rect width="6" height="6"/></g>
<g transform="translate(405,351) scale(4.635)"><rect width="6" height="6"/></g>
<g transform="translate(432,351) scale(4.635)"><path d="M3,6H0V0l3,0c1.7,0,3,1.3,3,3v0C6,4.7,4.7,6,3,6z"/></g>
<g transform="translate(513,351) scale(4.635)"><path d="M6,6H3C1.3,6,0,4.7,0,3v0c0-1.7,1.3-3,3-3h3C6,0,6,6,6,6z"/></g>
<g transform="translate(540,351) scale(4.635)"><path d="M6,6H0V0l3,0c1.7,0,3,1.3,3,3V6z"/></g>
<g transform="translate(594,351) scale(4.635)"><path d="M6,6H3C1.3,6,0,4.7,0,3V0l6,0V6z"/></g>
<g transform="translate(621,351) scale(4.635)"><rect width="6" height="6"/></g>
<g transform="translate(648,351) scale(4.635)"><path d="M3,6H0V0l6,0v3C6,4.7,4.7,6,3,6z"/></g>
<g transform="translate(729,351) scale(4.635)"><path d="M3,6L3,6C1.3,6,0,4.7,0,3V0h6v3C6,4.7,4.7,6,3,6z"/></g>
<g transform="translate(783,351) scale(4.635)"><path d="M3,6L3,6C1.3,6,0,4.7,0,3V0h6v3C6,4.7,4.7,6,3,6z"/></g>
<g transform="translate(864,351) scale(4.635)"><path d="M6,6H3C1.3,6,0,4.7,0,3V0l6,0V6z"/></g>
<g transform="translate(891,351) scale(4.635)"><rect width="6" height="6"/></g>
<g transform="translate(918,351) scale(4.635)"><path d="M3,6H0V0l6,0v3C6,4.7,4.7,6,3,6z"/></g>
<g transform="translate(54,378) scale(4.635)"><path d="M6,6H3C1.3,6,0,4.7,0,3V0l6,0V6z"/></g>
<g transform="translate(81,378) scale(4.635)"><rect width="6" height="6"/></g>
<g transform="translate(108,378) scale(4.635)"><rect width="6" height="6"/></g>
<g transform="translate(135,378) scale(4.635)"><path d="M3,6H0V0l6,0v3C6,4.7,4.7,6,3,6z"/></g>
<g transform="translate(216,378) scale(4.635)"><circle cx="3" cy="3" r="3"/></g>
<g transform="translate(270,378) scale(4.635)"><path d="M3,6L3,6C1.3,6,0,4.7,0,3V0h6v3C6,4.7,4.7,6,3,6z"/></g>
<g transform="translate(324,378) scale(4.635)"><path d="M6,6H0V3c0-1.7,1.3-3,3-3l3,0V6z"/></g>
<g transform="translate(351,378) scale(4.635)"><rect width="6" height="6"/></g>
<g transform="translate(378,378) scale(4.635)"><rect width="6" height="6"/></g>
<g transform="translate(459,378) scale(4.635)"><path d="M6,6H3C1.3,6,0,4.7,0,3v0c0-1.7,1.3-3,3-3h3C6,0,6,6,6,6z"/></g>
<g transform="translate(486,378) scale(4.635)"><path d="M3,6H0V0l3,0c1.7,0,3,1.3,3,3v0C6,4.7,4.7,6,3,6z"/></g>
<g transform="translate(540,378) scale(4.635)"><path d="M6,6H3C1.3,6,0,4.7,0,3V0l6,0V6z"/></g>
<g transform="translate(567,378) scale(4.635)"><path d="M6,6H0V0l3,0c1.7,0,3,1.3,3,3V6z"/></g>
<g transform="translate(675,378) scale(4.635)"><path d="M6,6H3C1.3,6,0,4.7,0,3v0c0-1.7,1.3-3,3-3h3C6,0,6,6,6,6z"/></g>
<g transform="translate(702,378) scale(4.635)"><path d="M6,6H0V0l3,0c1.7,0,3,1.3,3,3V6z"/></g>
<g transform="translate(756,378) scale(4.635)"><circle cx="3" cy="3" r="3"/></g>
<g transform="translate(810,378) scale(4.635)"><path d="M6,6H0V3c0-1.7,1.3-3,3-3l3,0V6z"/></g>
<g transform="translate(837,378) scale(4.635)"><path d="M6,6H0V0l3,0c1.7,0,3,1.3,3,3V6z"/></g>
<g transform="translate(891,378) scale(4.635)"><path d="M3,6L3,6C1.3,6,0,4.7,0,3V0h6v3C6,4.7,4.7,6,3,6z"/></g>
<g transform="translate(81,405) scale(4.635)"><rect width="6" height="6"/></g>
<g transform="translate(108,405) scale(4.635)"><path d="M3,6H0V0l6,0v3C6,4.7,4.7,6,3,6z"/></g>
<g transform="translate(162,405) scale(4.635)"><circle cx="3" cy="3" r="3"/></g>
<g transform="translate(324,405) scale(4.635)"><path d="M3,6L3,6C1.3,6,0,4.7,0,3V0h6v3C6,4.7,4.7,6,3,6z"/></g>
<g transform="translate(378,405) scale(4.635)"><path d="M3,6L3,6C1.3,6,0,4.7,0,3V0h6v3C6,4.7,4.7,6,3,6z"/></g>
<g transform="translate(513,405) scale(4.635)"><circle cx="3" cy="3" r="3"/></g>
<g transform="translate(567,405) scale(4.635)"><rect width="6" height="6"/></g>
<g transform="translate(621,405) scale(4.635)"><path d="M6,6H3C1.3,6,0,4.7,0,3v0c0-1.7,1.3-3,3-3h3C6,0,6,6,6,6z"/></g>
<g transform="translate(648,405) scale(4.635)"><path d="M6,6H0V0l3,0c1.7,0,3,1.3,3,3V6z"/></g>
<g transform="translate(702,405) scale(4.635)"><rect width="6" height="6"/></g>
<g transform="translate(783,405) scale(4.635)"><path d="M6,6H3C1.3,6,0,4.7,0,3v0c0-1.7,1.3-3,3-3h3C6,0,6,6,6,6z"/></g>
<g transform="translate(810,405) scale(4.635)"><rect width="6" height="6"/></g>
<g transform="translate(837,405) scale(4.635)"><rect width="6" height="6"/></g>
<g transform="translate(864,405) scale(4.635)"><path d="M6,6H0V0l3,0c1.7,0,3,1.3,3,3V6z"/></g>
<g transform="translate(918,405) scale(4.635)"><circle cx="3" cy="3" r="3"/></g>
<g transform="translate(54,432) scale(4.635)"><path d="M6,6H3C1.3,6,0,4.7,0,3v0c0-1.7,1.3-3,3-3h3C6,0,6,6,6,6z"/></g>
<g transform="translate(81,432) scale(4.635)"><path d="M3,6H0V0l6,0v3C6,4.7,4.7,6,3,6z"/></g>
<g transform="translate(135,432) scale(4.635)"><circle cx="3" cy="3" r="3"/></g>
<g transform="translate(216,432) scale(4.635)"><circle cx="3" cy="3" r="3"/></g>
<g transform="translate(351,432) scale(4.635)"><path d="M6,6H0V3c0-1.7,1.3-3,3-3h0c1.7,0,3,1.3,3,3V6z"/></g>
<g transform="translate(459,432) scale(4.635)"><path d="M6,6H3C1.3,6,0,4.7,0,3v0c0-1.7,1.3-3,3-3h3C6,0,6,6,6,6z"/></g>
<g transform="translate(486,432) scale(4.635)"><path d="M3,6H0V0l3,0c1.7,0,3,1.3,3,3v0C6,4.7,4.7,6,3,6z"/></g>
<g transform="translate(540,432) scale(4.635)"><path d="M6,6H0V3c0-1.7,1.3-3,3-3l3,0V6z"/></g>
<g transform="translate(567,432) scale(4.635)"><path d="M3,6H0V0l6,0v3C6,4.7,4.7,6,3,6z"/></g>
<g transform="translate(648,432) scale(4.635)"><path d="M3,6L3,6C1.3,6,0,4.7,0,3V0h6v3C6,4.7,4.7,6,3,6z"/></g>
<g transform="translate(702,432) scale(4.635)"><rect width="6" height="6"/></g>
<g transform="translate(729,432) scale(4.635)"><path d="M6,6H0V0l3,0c1.7,0,3,1.3,3,3V6z"/></g>
<g transform="translate(864,432) scale(4.635)"><path d="M3,6L3,6C1.3,6,0,4.7,0,3V0h6v3C6,4.7,4.7,6,3,6z"/></g>
<g transform="translate(243,459) scale(4.635)"><path d="M6,6H3C1.3,6,0,4.7,0,3v0c0-1.7,1.3-3,3-3h3C6,0,6,6,6,6z"/></g>
<g transform="translate(270,459) scale(4.635)"><path d="M3,6H0V0l3,0c1.7,0,3,1.3,3,3v0C6,4.7,4.7,6,3,6z"/></g>
<g transform="translate(351,459) scale(4.635)"><rect width="6" height="6"/></g>
<g transform="translate(378,459) scale(4.635)"><rect width="6" height="6"/></g>
<g transform="translate(405,459) scale(4.635)"><rect width="6" height="6"/></g>
<g transform="translate(432,459) scale(4.635)"><path d="M6,6H0V0l3,0c1.7,0,3,1.3,3,3V6z"/></g>
<g transform="translate(540,459) scale(4.635)"><path d="M3,6L3,6C1.3,6,0,4.7,0,3V0h6v3C6,4.7,4.7,6,3,6z"/></g>
<g transform="translate(621,459) scale(4.635)"><path d="M6,6H0V3c0-1.7,1.3-3,3-3h0c1.7,0,3,1.3,3,3V6z"/></g>
<g transform="translate(675,459) scale(4.635)"><path d="M6,6H3C1.3,6,0,4.7,0,3v0c0-1.7,1.3-3,3-3h3C6,0,6,6,6,6z"/></g>
<g transform="translate(702,459) scale(4.635)"><rect width="6" height="6"/></g>
<g transform="translate(729,459) scale(4.635)"><path d="M3,6H0V0l6,0v3C6,4.7,4.7,6,3,6z"/></g>
<g transform="translate(837,459) scale(4.635)"><circle cx="3" cy="3" r="3"/></g>
<g transform="translate(891,459) scale(4.635)"><path d="M6,6H0V3c0-1.7,1.3-3,3-3h0c1.7,0,3,1.3,3,3V6z"/></g>
<g transform="translate(81,486) scale(4.635)"><path d="M6,6H3C1.3,6,0,4.7,0,3v0c0-1.7,1.3-3,3-3h3C6,0,6,6,6,6z"/></g>
<g transform="translate(108,486) scale(4.635)"><path d="M6,6H0V0l3,0c1.7,0,3,1.3,3,3V6z"/></g>
<g transform="translate(216,486) scale(4.635)"><circle cx="3" cy="3" r="3"/></g>
<g transform="translate(297,486) scale(4.635)"><path d="M6,6H0V3c0-1.7,1.3-3,3-3l3,0V6z"/></g>
<g transform="translate(324,486) scale(4.635)"><rect width="6" height="6"/></g>
<g transform="translate(351,486) scale(4.635)"><path d="M3,6H0V0l6,0v3C6,4.7,4.7,6,3,6z"/></g>
<g transform="translate(432,486) scale(4.635)"><path d="M3,6L3,6C1.3,6,0,4.7,0,3V0h6v3C6,4.7,4.7,6,3,6z"/></g>
<g transform="translate(621,486) scale(4.635)"><path d="M6,6H3C1.3,6,0,4.7,0,3V0l6,0V6z"/></g>
<g transform="translate(648,486) scale(4.635)"><path d="M3,6H0V0l3,0c1.7,0,3,1.3,3,3v0C6,4.7,4.7,6,3,6z"/></g>
<g transform="translate(702,486) scale(4.635)"><path d="M3,6L3,6C1.3,6,0,4.7,0,3V0h6v3C6,4.7,4.7,6,3,6z"/></g>
<g transform="translate(756,486) scale(4.635)"><circle cx="3" cy="3" r="3"/></g>
<g transform="translate(810,486) scale(4.635)"><circle cx="3" cy="3" r="3"/></g>
<g transform="translate(864,486) scale(4.635)"><path d="M6,6H0V3c0-1.7,1.3-3,3-3l3,0V6z"/></g>
<g transform="translate(891,486) scale(4.635)"><path d="M3,6H0V0l6,0v3C6,4.7,4.7,6,3,6z"/></g>
<g transform="translate(108,513) scale(4.635)"><path d="M6,6H3C1.3,6,0,4.7,0,3V0l6,0V6z"/></g>
<g transform="translate(135,513) scale(4.635)"><rect width="6" height="6"/></g>
<g transform="translate(162,513) scale(4.635)"><rect width="6" height="6"/></g>
<g transform="translate(189,513) scale(4.635)"><path d="M6,6H0V0l3,0c1.7,0,3,1.3,3,3V6z"/></g>
<g transform="translate(297,513) scale(4.635)"><rect width="6" height="6"/></g>
<g transform="translate(324,513) scale(4.635)"><path d="M3,6H0V0l6,0v3C6,4.7,4.7,6,3,6z"/></g>
<g transform="translate(378,513) scale(4.635)"><path d="M6,6H0V3c0-1.7,1.3-3,3-3l3,0V6z"/></g>
<g transform="translate(405,513) scale(4.635)"><path d="M6,6H0V0l3,0c1.7,0,3,1.3,3,3V6z"/></g>
<g transform="translate(459,513) scale(4.635)"><path d="M6,6H0V3c0-1.7,1.3-3,3-3l3,0V6z"/></g>
<g transform="translate(486,513) scale(4.635)"><path d="M3,6H0V0l3,0c1.7,0,3,1.3,3,3v0C6,4.7,4.7,6,3,6z"/></g>
<g transform="translate(567,513) scale(4.635)"><circle cx="3" cy="3" r="3"/></g>
<g transform="translate(729,513) scale(4.635)"><path d="M6,6H0V3c0-1.7,1.3-3,3-3h0c1.7,0,3,1.3,3,3V6z"/></g>
<g transform="translate(783,513) scale(4.635)"><path d="M6,6H0V3c0-1.7,1.3-3,3-3h0c1.7,0,3,1.3,3,3V6z"/></g>
<g transform="translate(837,513) scale(4.635)"><path d="M6,6H0V3c0-1.7,1.3-3,3-3l3,0V6z"/></g>
<g transform="translate(864,513) scale(4.635)"><rect width="6" height="6"/></g>
<g transform="translate(54,540) scale(4.635)"><circle cx="3" cy="3" r="3"/></g>
<g transform="translate(135,540) scale(4.635)"><path d="M6,6H3C1.3,6,0,4.7,0,3V0l6,0V6z"/></g>
<g transform="translate(162,540) scale(4.635)"><rect width="6" height="6"/></g>
<g transform="translate(189,540) scale(4.635)"><rect width="6" height="6"/></g>
<g transform="translate(216,540) scale(4.635)"><path d="M3,6H0V0l3,0c1.7,0,3,1.3,3,3v0C6,4.7,4.7,6,3,6z"/></g>
<g transform="translate(270,540) scale(4.635)"><path d="M6,6H0V3c0-1.7,1.3-3,3-3l3,0V6z"/></g>
<g transform="translate(297,540) scale(4.635)"><rect width="6" height="6"/></g>
<g transform="translate(378,540) scale(4.635)"><rect width="6" height="6"/></g>
<g transform="translate(405,540) scale(4.635)"><rect width="6" height="6"/></g>
<g transform="translate(459,540) scale(4.635)"><rect width="6" height="6"/></g>
<g transform="translate(513,540) scale(4.635)"><circle cx="3" cy="3" r="3"/></g>
<g transform="translate(621,540) scale(4.635)"><path d="M6,6H0V3c0-1.7,1.3-3,3-3h0c1.7,0,3,1.3,3,3V6z"/></g>
<g transform="translate(675,540) scale(4.635)"><path d="M6,6H0V3c0-1.7,1.3-3,3-3h0c1.7,0,3,1.3,3,3V6z"/></g>
<g transform="translate(729,540) scale(4.635)"><rect width="6" height="6"/></g>
<g transform="translate(756,540) scale(4.635)"><rect width="6" height="6"/></g>
<g transform="translate(783,540) scale(4.635)"><rect width="6" height="6"/></g>
<g transform="translate(837,540) scale(4.635)"><rect width="6" height="6"/></g>
<g transform="translate(864,540) scale(4.635)"><path d="M3,6H0V0l6,0v3C6,4.7,4.7,6,3,6z"/></g>
<g transform="translate(81,567) scale(4.635)"><path d="M6,6H0V3c0-1.7,1.3-3,3-3h0c1.7,0,3,1.3,3,3V6z"/></g>
<g transform="translate(162,567) scale(4.635)"><path d="M6,6H3C1.3,6,0,4.7,0,3V0l6,0V6z"/></g>
<g transform="translate(189,567) scale(4.635)"><path d="M3,6H0V0l6,0v3C6,4.7,4.7,6,3,6z"/></g>
<g transform="translate(243,567) scale(4.635)"><path d="M6,6H3C1.3,6,0,4.7,0,3v0c0-1.7,1.3-3,3-3h3C6,0,6,6,6,6z"/></g>
<g transform="translate(270,567) scale(4.635)"><rect width="6" height="6"/></g>
<g transform="translate(297,567) scale(4.635)"><rect width="6" height="6"/></g>
<g transform="translate(324,567) scale(4.635)"><rect width="6" height="6"/></g>
<g transform="translate(351,567) scale(4.635)"><rect width="6" height="6"/></g>
<g transform="translate(378,567) scale(4.635)"><rect width="6" height="6"/></g>
<g transform="translate(405,567) scale(4.635)"><rect width="6" height="6"/></g>
<g transform="translate(432,567) scale(4.635)"><rect width="6" height="6"/></g>
<g transform="translate(459,567) scale(4.635)"><rect width="6" height="6"/></g>
<g transform="translate(486,567) scale(4.635)"><path d="M6,6H0V0l3,0c1.7,0,3,1.3,3,3V6z"/></g>
<g transform="translate(621,567) scale(4.635)"><path d="M3,6L3,6C1.3,6,0,4.7,0,3V0h6v3C6,4.7,4.7,6,3,6z"/></g>
<g transform="translate(675,567) scale(4.635)"><rect width="6" height="6"/></g>
<g transform="translate(702,567) scale(4.635)"><rect width="6" height="6"/></g>
<g transform="translate(729,567) scale(4.635)"><path d="M3,6H0V0l6,0v3C6,4.7,4.7,6,3,6z"/></g>
<g transform="translate(783,567) scale(4.635)"><path d="M3,6L3,6C1.3,6,0,4.7,0,3V0h6v3C6,4.7,4.7,6,3,6z"/></g>
<g transform="translate(837,567) scale(4.635)"><path d="M3,6L3,6C1.3,6,0,4.7,0,3V0h6v3C6,4.7,4.7,6,3,6z"/></g>
<g transform="translate(891,567) scale(4.635)"><path d="M6,6H0V3c0-1.7,1.3-3,3-3h0c1.7,0,3,1.3,3,3V6z"/></g>
<g transform="translate(81,594) scale(4.635)"><rect width="6" height="6"/></g>
<g transform="translate(108,594) scale(4.635)"><rect width="6" height="6"/></g>
<g transform="translate(135,594) scale(4.635)"><path d="M3,6H0V0l3,0c1.7,0,3,1.3,3,3v0C6,4.7,4.7,6,3,6z"/></g>
<g transform="translate(216,594) scale(4.635)"><circle cx="3" cy="3" r="3"/></g>
<g transform="translate(324,594) scale(4.635)"><rect width="6" height="6"/></g>
<g transform="translate(378,594) scale(4.635)"><path d="M3,6L3,6C1.3,6,0,4.7,0,3V0h6v3C6,4.7,4.7,6,3,6z"/></g>
<g transform="translate(432,594) scale(4.635)"><rect width="6" height="6"/></g>
<g transform="translate(486,594) scale(4.635)"><rect width="6" height="6"/></g>
<g transform="translate(513,594) scale(4.635)"><path d="M6,6H0V0l3,0c1.7,0,3,1.3,3,3V6z"/></g>
<g transform="translate(675,594) scale(4.635)"><path d="M3,6L3,6C1.3,6,0,4.7,0,3V0h6v3C6,4.7,4.7,6,3,6z"/></g>
<g transform="translate(864,594) scale(4.635)"><path d="M6,6H0V3c0-1.7,1.3-3,3-3l3,0V6z"/></g>
<g transform="translate(891,594) scale(4.635)"><rect width="6" height="6"/></g>
<g transform="translate(918,594) scale(4.635)"><path d="M6,6H0V0l3,0c1.7,0,3,1.3,3,3V6z"/></g>
<g transform="translate(54,621) scale(4.635)"><path d="M6,6H0V3c0-1.7,1.3-3,3-3l3,0V6z"/></g>
<g transform="translate(81,621) scale(4.635)"><path d="M3,6H0V0l6,0v3C6,4.7,4.7,6,3,6z"/></g>
<g transform="translate(162,621) scale(4.635)"><circle cx="3" cy="3" r="3"/></g>
<g transform="translate(243,621) scale(4.635)"><path d="M6,6H3C1.3,6,0,4.7,0,3v0c0-1.7,1.3-3,3-3h3C6,0,6,6,6,6z"/></g>
<g transform="translate(270,621) scale(4.635)"><rect width="6" height="6"/></g>
<g transform="translate(297,621) scale(4.635)"><rect width="6" height="6"/></g>
<g transform="translate(324,621) scale(4.635)"><rect width="6" height="6"/></g>
<g transform="translate(351,621) scale(4.635)"><path d="M6,6H0V0l3,0c1.7,0,3,1.3,3,3V6z"/></g>
<g transform="translate(405,621) scale(4.635)"><path d="M6,6H3C1.3,6,0,4.7,0,3v0c0-1.7,1.3-3,3-3h3C6,0,6,6,6,6z"/></g>
<g transform="translate(432,621) scale(4.635)"><path d="M3,6H0V0l6,0v3C6,4.7,4.7,6,3,6z"/></g>
<g transform="translate(486,621) scale(4.635)"><path d="M6,6H3C1.3,6,0,4.7,0,3V0l6,0V6z"/></g>
<g transform="translate(513,621) scale(4.635)"><rect width="6" height="6"/></g>
<g transform="translate(540,621) scale(4.635)"><path d="M3,6H0V0l3,0c1.7,0,3,1.3,3,3v0C6,4.7,4.7,6,3,6z"/></g>
<g transform="translate(648,621) scale(4.635)"><circle cx="3" cy="3" r="3"/></g>
<g transform="translate(702,621) scale(4.635)"><path d="M6,6H3C1.3,6,0,4.7,0,3v0c0-1.7,1.3-3,3-3h3C6,0,6,6,6,6z"/></g>
<g transform="translate(729,621) scale(4.635)"><path d="M3,6H0V0l3,0c1.7,0,3,1.3,3,3v0C6,4.7,4.7,6,3,6z"/></g>
<g transform="translate(783,621) scale(4.635)"><path d="M6,6H0V3c0-1.7,1.3-3,3-3h0c1.7,0,3,1.3,3,3V6z"/></g>
<g transform="translate(837,621) scale(4.635)"><path d="M6,6H3C1.3,6,0,4.7,0,3v0c0-1.7,1.3-3,3-3h3C6,0,6,6,6,6z"/></g>
<g transform="translate(864,621) scale(4.635)"><path d="M3,6H0V0l6,0v3C6,4.7,4.7,6,3,6z"/></g>
<g transform="translate(918,621) scale(4.635)"><rect width="6" height="6"/></g>
<g transform="translate(54,648) scale(4.635)"><rect width="6" height="6"/></g>
<g transform="translate(135,648) scale(4.635)"><path d="M6,6H0V3c0-1.7,1.3-3,3-3h0c1.7,0,3,1.3,3,3V6z"/></g>
<g transform="translate(189,648) scale(4.635)"><path d="M6,6H3C1.3,6,0,4.7,0,3v0c0-1.7,1.3-3,3-3h3C6,0,6,6,6,6z"/></g>
<g transform="translate(216,648) scale(4.635)"><path d="M3,6H0V0l3,0c1.7,0,3,1.3,3,3v0C6,4.7,4.7,6,3,6z"/></g>
<g transform="translate(270,648) scale(4.635)"><path d="M3,6L3,6C1.3,6,0,4.7,0,3V0h6v3C6,4.7,4.7,6,3,6z"/></g>
<g transform="translate(324,648) scale(4.635)"><rect width="6" height="6"/></g>
<g transform="translate(351,648) scale(4.635)"><rect width="6" height="6"/></g>
<g transform="translate(459,648) scale(4.635)"><circle cx="3" cy="3" r="3"/></g>
<g transform="translate(513,648) scale(4.635)"><path d="M3,6L3,6C1.3,6,0,4.7,0,3V0h6v3C6,4.7,4.7,6,3,6z"/></g>
<g transform="translate(567,648) scale(4.635)"><circle cx="3" cy="3" r="3"/></g>
<g transform="translate(621,648) scale(4.635)"><circle cx="3" cy="3" r="3"/></g>
<g transform="translate(675,648) scale(4.635)"><circle cx="3" cy="3" r="3"/></g>
<g transform="translate(756,648) scale(4.635)"><path d="M6,6H0V3c0-1.7,1.3-3,3-3l3,0V6z"/></g>
<g transform="translate(783,648) scale(4.635)"><rect width="6" height="6"/></g>
<g transform="translate(810,648) scale(4.635)"><path d="M3,6H0V0l3,0c1.7,0,3,1.3,3,3v0C6,4.7,4.7,6,3,6z"/></g>
<g transform="translate(918,648) scale(4.635)"><rect width="6" height="6"/></g>
<g transform="translate(54,675) scale(4.635)"><rect width="6" height="6"/></g>
<g transform="translate(135,675) scale(4.635)"><path d="M6,6H3C1.3,6,0,4.7,0,3V0l6,0V6z"/></g>
<g transform="translate(162,675) scale(4.635)"><path d="M3,6H0V0l3,0c1.7,0,3,1.3,3,3v0C6,4.7,4.7,6,3,6z"/></g>
<g transform="translate(243,675) scale(4.635)"><circle cx="3" cy="3" r="3"/></g>
<g transform="translate(297,675) scale(4.635)"><path d="M6,6H0V3c0-1.7,1.3-3,3-3l3,0V6z"/></g>
<g transform="translate(324,675) scale(4.635)"><rect width="6" height="6"/></g>
<g transform="translate(351,675) scale(4.635)"><rect width="6" height="6"/></g>
<g transform="translate(378,675) scale(4.635)"><rect width="6" height="6"/></g>
<g transform="translate(405,675) scale(4.635)"><path d="M3,6H0V0l3,0c1.7,0,3,1.3,3,3v0C6,4.7,4.7,6,3,6z"/></g>
<g transform="translate(486,675) scale(4.635)"><circle cx="3" cy="3" r="3"/></g>
<g transform="translate(540,675) scale(4.635)"><path d="M6,6H0V3c0-1.7,1.3-3,3-3h0c1.7,0,3,1.3,3,3V6z"/></g>
<g transform="translate(648,675) scale(4.635)"><circle cx="3" cy="3" r="3"/></g>
<g transform="translate(702,675) scale(4.635)"><path d="M6,6H0V3c0-1.7,1.3-3,3-3h0c1.7,0,3,1.3,3,3V6z"/></g>
<g transform="translate(756,675) scale(4.635)"><rect width="6" height="6"/></g>
<g transform="translate(837,675) scale(4.635)"><path d="M6,6H3C1.3,6,0,4.7,0,3v0c0-1.7,1.3-3,3-3h3C6,0,6,6,6,6z"/></g>
<g transform="translate(864,675) scale(4.635)"><rect width="6" height="6"/></g>
<g transform="translate(891,675) scale(4.635)"><rect width="6" height="6"/></g>
<g transform="translate(918,675) scale(4.635)"><rect width="6" height="6"/></g>
<g transform="translate(54,702) scale(4.635)"><path d="M3,6L3,6C1.3,6,0,4.7,0,3V0h6v3C6,4.7,4.7,6,3,6z"/></g>
<g transform="translate(108,702) scale(4.635)"><circle cx="3" cy="3" r="3"/></g>
<g transform="translate(216,702) scale(4.635)"><circle cx="3" cy="3" r="3"/></g>
<g transform="translate(270,702) scale(4.635)"><path d="M6,6H0V3c0-1.7,1.3-3,3-3l3,0V6z"/></g>
<g transform="translate(297,702) scale(4.635)"><rect width="6" height="6"/></g>
<g transform="translate(324,702) scale(4.635)"><rect width="6" height="6"/></g>
<g transform="translate(351,702) scale(4.635)"><path d="M3,6H0V0l6,0v3C6,4.7,4.7,6,3,6z"/></g>
<g transform="translate(459,702) scale(4.635)"><circle cx="3" cy="3" r="3"/></g>
<g transform="translate(513,702) scale(4.635)"><path d="M6,6H0V3c0-1.7,1.3-3,3-3l3,0V6z"/></g>
<g transform="translate(540,702) scale(4.635)"><path d="M3,6H0V0l6,0v3C6,4.7,4.7,6,3,6z"/></g>
<g transform="translate(594,702) scale(4.635)"><circle cx="3" cy="3" r="3"/></g>
<g transform="translate(675,702) scale(4.635)"><path d="M6,6H3C1.3,6,0,4.7,0,3v0c0-1.7,1.3-3,3-3h3C6,0,6,6,6,6z"/></g>
<g transform="translate(702,702) scale(4.635)"><rect width="6" height="6"/></g>
<g transform="translate(729,702) scale(4.635)"><rect width="6" height="6"/></g>
<g transform="translate(756,702) scale(4.635)"><rect width="6" height="6"/></g>
<g transform="translate(783,702) scale(4.635)"><rect width="6" height="6"/></g>
<g transform="translate(810,702) scale(4.635)"><path d="M6,6H0V0l3,0c1.7,0,3,1.3,3,3V6z"/></g>
<g transform="translate(864,702) scale(4.635)"><path d="M3,6L3,6C1.3,6,0,4.7,0,3V0h6v3C6,4.7,4.7,6,3,6z"/></g>
<g transform="translate(918,702) scale(4.635)"><path d="M3,6L3,6C1.3,6,0,4.7,0,3V0h6v3C6,4.7,4.7,6,3,6z"/></g>
<g transform="translate(270,729) scale(4.635)"><path d="M6,6H3C1.3,6,0,4.7,0,3V0l6,0V6z"/></g>
<g transform="translate(297,729) scale(4.635)"><rect width="6" height="6"/></g>
<g transform="translate(324,729) scale(4.635)"><path d="M3,6H0V0l6,0v3C6,4.7,4.7,6,3,6z"/></g>
<g transform="translate(378,729) scale(4.635)"><path d="M6,6H0V3c0-1.7,1.3-3,3-3l3,0V6z"/></g>
<g transform="translate(405,729) scale(4.635)"><path d="M6,6H0V0l3,0c1.7,0,3,1.3,3,3V6z"/></g>
<g transform="translate(486,729) scale(4.635)"><path d="M6,6H0V3c0-1.7,1.3-3,3-3l3,0V6z"/></g>
<g transform="translate(513,729) scale(4.635)"><path d="M3,6H0V0l6,0v3C6,4.7,4.7,6,3,6z"/></g>
<g transform="translate(567,729) scale(4.635)"><path d="M6,6H0V3c0-1.7,1.3-3,3-3h0c1.7,0,3,1.3,3,3V6z"/></g>
<g transform="translate(621,729) scale(4.635)"><path d="M6,6H0V3c0-1.7,1.3-3,3-3h0c1.7,0,3,1.3,3,3V6z"/></g>
<g transform="translate(702,729) scale(4.635)"><rect width="6" height="6"/></g>
<g transform="translate(810,729) scale(4.635)"><rect width="6" height="6"/></g>
<g transform="translate(837,729) scale(4.635)"><path d="M3,6H0V0l3,0c1.7,0,3,1.3,3,3v0C6,4.7,4.7,6,3,6z"/></g>
<g transform="translate(891,729) scale(4.635)"><path d="M6,6H0V3c0-1.7,1.3-3,3-3h0c1.7,0,3,1.3,3,3V6z"/></g>
<g transform="translate(297,756) scale(4.635)"><rect width="6" height="6"/></g>
<g transform="translate(351,756) scale(4.635)"><path d="M6,6H3C1.3,6,0,4.7,0,3v0c0-1.7,1.3-3,3-3h3C6,0,6,6,6,6z"/></g>
<g transform="translate(378,756) scale(4.635)"><rect width="6" height="6"/></g>
<g transform="translate(405,756) scale(4.635)"><rect width="6" height="6"/></g>
<g transform="translate(432,756) scale(4.635)"><rect width="6" height="6"/></g>
<g transform="translate(459,756) scale(4.635)"><rect width="6" height="6"/></g>
<g transform="translate(486,756) scale(4.635)"><rect width="6" height="6"/></g>
<g transform="translate(540,756) scale(4.635)"><path d="M6,6H0V3c0-1.7,1.3-3,3-3l3,0V6z"/></g>
<g transform="translate(567,756) scale(4.635)"><rect width="6" height="6"/></g>
<g transform="translate(621,756) scale(4.635)"><rect width="6" height="6"/></g>
<g transform="translate(648,756) scale(4.635)"><path d="M3,6H0V0l3,0c1.7,0,3,1.3,3,3v0C6,4.7,4.7,6,3,6z"/></g>
<g transform="translate(702,756) scale(4.635)"><rect width="6" height="6"/></g>
<g transform="translate(756,756) scale(4.635)"><circle cx="3" cy="3" r="3"/></g>
<g transform="translate(810,756) scale(4.635)"><rect width="6" height="6"/></g>
<g transform="translate(864,756) scale(4.635)"><path d="M6,6H0V3c0-1.7,1.3-3,3-3l3,0V6z"/></g>
<g transform="translate(891,756) scale(4.635)"><path d="M3,6H0V0l6,0v3C6,4.7,4.7,6,3,6z"/></g>
<g transform="translate(297,783) scale(4.635)"><rect width="6" height="6"/></g>
<g transform="translate(324,783) scale(4.635)"><path d="M6,6H0V0l3,0c1.7,0,3,1.3,3,3V6z"/></g>
<g transform="translate(378,783) scale(4.635)"><path d="M3,6L3,6C1.3,6,0,4.7,0,3V0h6v3C6,4.7,4.7,6,3,6z"/></g>
<g transform="translate(486,783) scale(4.635)"><rect width="6" height="6"/></g>
<g transform="translate(540,783) scale(4.635)"><path d="M6,6H3C1.3,6,0,4.7,0,3V0l6,0V6z"/></g>
<g transform="translate(567,783) scale(4.635)"><rect width="6" height="6"/></g>
<g transform="translate(594,783) scale(4.635)"><rect width="6" height="6"/></g>
<g transform="translate(621,783) scale(4.635)"><rect width="6" height="6"/></g>
<g transform="translate(675,783) scale(4.635)"><path d="M6,6H0V3c0-1.7,1.3-3,3-3l3,0V6z"/></g>
<g transform="translate(702,783) scale(4.635)"><rect width="6" height="6"/></g>
<g transform="translate(810,783) scale(4.635)"><rect width="6" height="6"/></g>
<g transform="translate(837,783) scale(4.635)"><rect width="6" height="6"/></g>
<g transform="translate(864,783) scale(4.635)"><rect width="6" height="6"/></g>
<g transform="translate(270,810) scale(4.635)"><path d="M6,6H0V3c0-1.7,1.3-3,3-3l3,0V6z"/></g>
<g transform="translate(297,810) scale(4.635)"><rect width="6" height="6"/></g>
<g transform="translate(324,810) scale(4.635)"><rect width="6" height="6"/></g>
<g transform="translate(351,810) scale(4.635)"><path d="M3,6H0V0l3,0c1.7,0,3,1.3,3,3v0C6,4.7,4.7,6,3,6z"/></g>
<g transform="translate(432,810) scale(4.635)"><path d="M6,6H3C1.3,6,0,4.7,0,3v0c0-1.7,1.3-3,3-3h3C6,0,6,6,6,6z"/></g>
<g transform="translate(459,810) scale(4.635)"><rect width="6" height="6"/></g>
<g transform="translate(486,810) scale(4.635)"><path d="M3,6H0V0l6,0v3C6,4.7,4.7,6,3,6z"/></g>
<g transform="translate(594,810) scale(4.635)"><rect width="6" height="6"/></g>
<g transform="translate(621,810) scale(4.635)"><path d="M3,6H0V0l6,0v3C6,4.7,4.7,6,3,6z"/></g>
<g transform="translate(675,810) scale(4.635)"><path d="M6,6H3C1.3,6,0,4.7,0,3V0l6,0V6z"/></g>
<g transform="translate(702,810) scale(4.635)"><rect width="6" height="6"/></g>
<g transform="translate(729,810) scale(4.635)"><rect width="6" height="6"/></g>
<g transform="translate(756,810) scale(4.635)"><rect width="6" height="6"/></g>
<g transform="translate(783,810) scale(4.635)"><rect width="6" height="6"/></g>
<g transform="translate(810,810) scale(4.635)"><rect width="6" height="6"/></g>
<g transform="translate(837,810) scale(4.635)"><rect width="6" height="6"/></g>
<g transform="translate(864,810) scale(4.635)"><path d="M3,6H0V0l6,0v3C6,4.7,4.7,6,3,6z"/></g>
<g transform="translate(270,837) scale(4.635)"><rect width="6" height="6"/></g>
<g transform="translate(405,837) scale(4.635)"><path d="M6,6H0V3c0-1.7,1.3-3,3-3h0c1.7,0,3,1.3,3,3V6z"/></g>
<g transform="translate(513,837) scale(4.635)"><path d="M6,6H3C1.3,6,0,4.7,0,3v0c0-1.7,1.3-3,3-3h3C6,0,6,6,6,6z"/></g>
<g transform="translate(540,837) scale(4.635)"><rect width="6" height="6"/></g>
<g transform="translate(567,837) scale(4.635)"><rect width="6" height="6"/></g>
<g transform="translate(594,837) scale(4.635)"><rect width="6" height="6"/></g>
<g transform="translate(702,837) scale(4.635)"><path d="M3,6L3,6C1.3,6,0,4.7,0,3V0h6v3C6,4.7,4.7,6,3,6z"/></g>
<g transform="translate(756,837) scale(4.635)"><path d="M6,6H3C1.3,6,0,4.7,0,3V0l6,0V6z"/></g>
<g transform="translate(783,837) scale(4.635)"><rect width="6" height="6"/></g>
<g transform="translate(837,837) scale(4.635)"><rect width="6" height="6"/></g>
<g transform="translate(270,864) scale(4.635)"><path d="M3,6L3,6C1.3,6,0,4.7,0,3V0h6v3C6,4.7,4.7,6,3,6z"/></g>
<g transform="translate(405,864) scale(4.635)"><rect width="6" height="6"/></g>
<g transform="translate(486,864) scale(4.635)"><circle cx="3" cy="3" r="3"/></g>
<g transform="translate(540,864) scale(4.635)"><path d="M3,6L3,6C1.3,6,0,4.7,0,3V0h6v3C6,4.7,4.7,6,3,6z"/></g>
<g transform="translate(594,864) scale(4.635)"><path d="M6,6H3C1.3,6,0,4.7,0,3V0l6,0V6z"/></g>
<g transform="translate(621,864) scale(4.635)"><rect width="6" height="6"/></g>
<g transform="translate(648,864) scale(4.635)"><path d="M6,6H0V0l3,0c1.7,0,3,1.3,3,3V6z"/></g>
<g transform="translate(783,864) scale(4.635)"><rect width="6" height="6"/></g>
<g transform="translate(810,864) scale(4.635)"><rect width="6" height="6"/></g>
<g transform="translate(837,864) scale(4.635)"><rect width="6" height="6"/></g>
<g transform="translate(864,864) scale(4.635)"><path d="M3,6H0V0l3,0c1.7,0,3,1.3,3,3v0C6,4.7,4.7,6,3,6z"/></g>
<g transform="translate(297,891) scale(4.635)"><path d="M6,6H0V3c0-1.7,1.3-3,3-3l3,0V6z"/></g>
<g transform="translate(324,891) scale(4.635)"><path d="M3,6H0V0l3,0c1.7,0,3,1.3,3,3v0C6,4.7,4.7,6,3,6z"/></g>
<g transform="translate(405,891) scale(4.635)"><rect width="6" height="6"/></g>
<g transform="translate(459,891) scale(4.635)"><path d="M6,6H0V3c0-1.7,1.3-3,3-3h0c1.7,0,3,1.3,3,3V6z"/></g>
<g transform="translate(621,891) scale(4.635)"><rect width="6" height="6"/></g>
<g transform="translate(648,891) scale(4.635)"><rect width="6" height="6"/></g>
<g transform="translate(675,891) scale(4.635)"><rect width="6" height="6"/></g>
<g transform="translate(702,891) scale(4.635)"><rect width="6" height="6"/></g>
<g transform="translate(729,891) scale(4.635)"><path d="M3,6H0V0l3,0c1.7,0,3,1.3,3,3v0C6,4.7,4.7,6,3,6z"/></g>
<g transform="translate(783,891) scale(4.635)"><rect width="6" height="6"/></g>
<g transform="translate(837,891) scale(4.635)"><rect width="6" height="6"/></g>
<g transform="translate(918,891) scale(4.635)"><circle cx="3" cy="3" r="3"/></g>
<g transform="translate(297,918) scale(4.635)"><path d="M3,6L3,6C1.3,6,0,4.7,0,3V0h6v3C6,4.7,4.7,6,3,6z"/></g>
<g transform="translate(351,918) scale(4.635)"><path d="M6,6H3C1.3,6,0,4.7,0,3v0c0-1.7,1.3-3,3-3h3C6,0,6,6,6,6z"/></g>
<g transform="translate(378,918) scale(4.635)"><rect width="6" height="6"/></g>
<g transform="translate(405,918) scale(4.635)"><rect width="6" height="6"/></g>
<g transform="translate(432,918) scale(4.635)"><rect width="6" height="6"/></g>
<g transform="translate(459,918) scale(4.635)"><path d="M3,6H0V0l6,0v3C6,4.7,4.7,6,3,6z"/></g>
<g transform="translate(513,918) scale(4.635)"><path d="M6,6H3C1.3,6,0,4.7,0,3v0c0-1.7,1.3-3,3-3h3C6,0,6,6,6,6z"/></g>
<g transform="translate(540,918) scale(4.635)"><rect width="6" height="6"/></g>
<g transform="translate(567,918) scale(4.635)"><path d="M3,6H0V0l3,0c1.7,0,3,1.3,3,3v0C6,4.7,4.7,6,3,6z"/></g>
<g transform="translate(621,918) scale(4.635)"><path d="M3,6L3,6C1.3,6,0,4.7,0,3V0h6v3C6,4.7,4.7,6,3,6z"/></g>
<g transform="translate(675,918) scale(4.635)"><path d="M6,6H3C1.3,6,0,4.7,0,3V0l6,0V6z"/></g>
<g transform="translate(702,918) scale(4.635)"><path d="M3,6H0V0l6,0v3C6,4.7,4.7,6,3,6z"/></g>
<g transform="translate(756,918) scale(4.635)"><path d="M6,6H3C1.3,6,0,4.7,0,3v0c0-1.7,1.3-3,3-3h3C6,0,6,6,6,6z"/></g>
<g transform="translate(783,918) scale(4.635)"><path d="M3,6H0V0l6,0v3C6,4.7,4.7,6,3,6z"/></g>
<g transform="translate(837,918) scale(4.635)"><path d="M6,6H3C1.3,6,0,4.7,0,3V0l6,0V6z"/></g>
<g transform="translate(864,918) scale(4.635)"><path d="M3,6H0V0l3,0c1.7,0,3,1.3,3,3v0C6,4.7,4.7,6,3,6z"/></g>
</g></g></mask></defs>
    <rect x="0" y="0" width="999" height="999" mask="url(#qrmask)" fill="#000000"/>
    <g><g transform="translate(54,54)"  fill="#000000"><g transform="scale(13.5)"><path d="M4.5,14h5.1C12,14,14,12,14,9.6V4.5C14,2,12,0,9.5,0H4.4C2,0,0,2,0,4.4v5.1C0,12,2,14,4.5,14z M12,4.8v4.4 c0,1.5-1.3,2.8-2.8,2.8H4.8C3.2,12,2,10.8,2,9.2V4.8C2,3.3,3.3,2,4.8,2h4.4C10.8,2,12,3.2,12,4.8z"/></g></g>
        <g transform="translate(108,108)" fill="#000000"><g transform="scale(13.5)"><path d="M6,1.7v2.7C6,5.2,5.2,6,4.3,6H1.7C0.7,6,0,5.3,0,4.3V1.7C0,0.8,0.8,0,1.7,0h2.7C5.3,0,6,0.7,6,1.7z"/></g></g>
        <g transform="translate(756,54)" fill="#000000"><g transform="scale(13.5)"><path d="M4.5,14h5.1C12,14,14,12,14,9.6V4.5C14,2,12,0,9.5,0H4.4C2,0,0,2,0,4.4v5.1C0,12,2,14,4.5,14z M12,4.8v4.4 c0,1.5-1.3,2.8-2.8,2.8H4.8C3.2,12,2,10.8,2,9.2V4.8C2,3.3,3.3,2,4.8,2h4.4C10.8,2,12,3.2,12,4.8z"/></g></g>
        <g transform="translate(810,108)" fill="#000000"><g transform="scale(13.5)"><path d="M6,1.7v2.7C6,5.2,5.2,6,4.3,6H1.7C0.7,6,0,5.3,0,4.3V1.7C0,0.8,0.8,0,1.7,0h2.7C5.3,0,6,0.7,6,1.7z"/></g></g>
        <g transform="translate(54,756)" fill="#000000"><g transform="scale(13.5)"><path d="M4.5,14h5.1C12,14,14,12,14,9.6V4.5C14,2,12,0,9.5,0H4.4C2,0,0,2,0,4.4v5.1C0,12,2,14,4.5,14z M12,4.8v4.4 c0,1.5-1.3,2.8-2.8,2.8H4.8C3.2,12,2,10.8,2,9.2V4.8C2,3.3,3.3,2,4.8,2h4.4C10.8,2,12,3.2,12,4.8z"/></g></g>
        <g transform="translate(108,810)" fill="#000000"><g transform="scale(13.5)"><path d="M6,1.7v2.7C6,5.2,5.2,6,4.3,6H1.7C0.7,6,0,5.3,0,4.3V1.7C0,0.8,0.8,0,1.7,0h2.7C5.3,0,6,0.7,6,1.7z"/></g></g></g>
</svg>