<svg xmlns="http://www.w3.org/2000/svg" xml:space="preserve" xmlns:xlink="http://www.w3.org/1999/xlink" style="max-width: 100%;height: auto;" width="990" height="990" viewBox="0 0 990 990">
<rect width="990" height="990" fill="#ffffff" x="0" y="0"  />
<g  fill="#000000">
<g transform="translate(220,44) scale(3.7766666666667)"><path d="M6,6H0V3c0-1.7,1.3-3,3-3l3,0V6z"/></g>
<g transform="translate(242,44) scale(3.7766666666667)"><path d="M3,6H0V0l3,0c1.7,0,3,1.3,3,3v0C6,4.7,4.7,6,3,6z"/></g>
<g transform="translate(286,44) scale(3.7766666666667)"><circle cx="3" cy="3" r="3"/></g>
<g transform="translate(440,44) scale(3.7766666666667)"><path d="M6,6H3C1.3,6,0,4.7,0,3v0c0-1.7,1.3-3,3-3h3C6,0,6,6,6,6z"/></g>
<g transform="translate(462,44) scale(3.7766666666667)"><path d="M6,6H0V0l3,0c1.7,0,3,1.3,3,3V6z"/></g>
<g transform="translate(528,44) scale(3.7766666666667)"><path d="M6,6H0V3c0-1.7,1.3-3,3-3l3,0V6z"/></g>
<g transform="translate(550,44) scale(3.7766666666667)"><rect width="6" height="6"/></g>
<g transform="translate(572,44) scale(3.7766666666667)"><rect width="6" height="6"/></g>
<g transform="translate(594,44) scale(3.7766666666667)"><rect width="6" height="6"/></g>
<g transform="translate(616,44) scale(3.7766666666667)"><path d="M6,6H0V0l3,0c1.7,0,3,1.3,3,3V6z"/></g>
<g transform="translate(704,44) scale(3.7766666666667)"><path d="M6,6H0V3c0-1.7,1.3-3,3-3h0c1.7,0,3,1.3,3,3V6z"/></g>
<g transform="translate(748,44) scale(3.7766666666667)"><circle cx="3" cy="3" r="3"/></g>
<g transform="translate(220,66) scale(3.7766666666667)"><rect width="6" height="6"/></g>
<g transform="translate(308,66) scale(3.7766666666667)"><path d="M6,6H3C1.3,6,0,4.7,0,3v0c0-1.7,1.3-3,3-3h3C6,0,6,6,6,6z"/></g>
<g transform="translate(330,66) scale(3.7766666666667)"><rect width="6" height="6"/></g>
<g transform="translate(352,66) scale(3.7766666666667)"><path d="M6,6H0V0l3,0c1.7,0,3,1.3,3,3V6z"/></g>
<g transform="translate(418,66) scale(3.7766666666667)"><circle cx="3" cy="3" r="3"/></g>
<g transform="translate(462,66) scale(3.7766666666667)"><rect width="6" height="6"/></g>
<g transform="translate(484,66) scale(3.7766666666667)"><path d="M6,6H0V0l3,0c1.7,0,3,1.3,3,3V6z"/></g>
<g transform="translate(528,66) scale(3.7766666666667)"><rect width="6" height="6"/></g>
<g transform="translate(550,66) scale(3.7766666666667)"><rect width="6" height="6"/></g>
<g transform="translate(572,66) scale(3.7766666666667)"><rect width="6" height="6"/></g>
<g transform="translate(594,66) scale(3.7766666666667)"><rect width="6" height="6"/></g>
<g transform="translate(616,66) scale(3.7766666666667)"><rect width="6" height="6"/></g>
<g transform="translate(638,66) scale(3.7766666666667)"><path d="M6,6H0V0l3,0c1.7,0,3,1.3,3,3V6z"/></g>
<g transform="translate(704,66) scale(3.7766666666667)"><path d="M3,6L3,6C1.3,6,0,4.7,0,3V0h6v3C6,4.7,4.7,6,3,6z"/></g>
<g transform="translate(220,88) scale(3.7766666666667)"><path d="M6,6H3C1.3,6,0,4.7,0,3V0l6,0V6z"/></g>
<g transform="translate(242,88) scale(3.7766666666667)"><rect width="6" height="6"/></g>
<g transform="translate(264,88) scale(3.7766666666667)"><path d="M3,6H0V0l3,0c1.7,0,3,1.3,3,3v0C6,4.7,4.7,6,3,6z"/></g>
<g transform="translate(330,88) scale(3.7766666666667)"><path d="M6,6H3C1.3,6,0,4.7,0,3V0l6,0V6z"/></g>
<g transform="translate(352,88) scale(3.7766666666667)"><path d="M3,6H0V0l6,0v3C6,4.7,4.7,6,3,6z"/></g>
<g transform="translate(440,88) scale(3.7766666666667)"><path d="M6,6H3C1.3,6,0,4.7,0,3v0c0-1.7,1.3-3,3-3h3C6,0,6,6,6,6z"/></g>
<g transform="translate(462,88) scale(3.7766666666667)"><rect width="6" height="6"/></g>
<g transform="translate(484,88) scale(3.7766666666667)"><path d="M3,6H0V0l6,0v3C6,4.7,4.7,6,3,6z"/></g>
<g transform="translate(528,88) scale(3.7766666666667)"><rect width="6" height="6"/></g>
<g transform="translate(550,88) scale(3.7766666666667)"><rect width="6" height="6"/></g>
<g transform="translate(572,88) scale(3.7766666666667)"><rect width="6" height="6"/></g>
<g transform="translate(594,88) scale(3.7766666666667)"><path d="M3,6H0V0l6,0v3C6,4.7,4.7,6,3,6z"/></g>
<g transform="translate(638,88) scale(3.7766666666667)"><path d="M3,6L3,6C1.3,6,0,4.7,0,3V0h6v3C6,4.7,4.7,6,3,6z"/></g>
<g transform="translate(748,88) scale(3.7766666666667)"><path d="M6,6H0V3c0-1.7,1.3-3,3-3h0c1.7,0,3,1.3,3,3V6z"/></g>
<g transform="translate(242,110) scale(3.7766666666667)"><path d="M3,6L3,6C1.3,6,0,4.7,0,3V0h6v3C6,4.7,4.7,6,3,6z"/></g>
<g transform="translate(286,110) scale(3.7766666666667)"><circle cx="3" cy="3" r="3"/></g>
<g transform="translate(374,110) scale(3.7766666666667)"><path d="M6,6H0V3c0-1.7,1.3-3,3-3l3,0V6z"/></g>
<g transform="translate(396,110) scale(3.7766666666667)"><path d="M3,6H0V0l3,0c1.7,0,3,1.3,3,3v0C6,4.7,4.7,6,3,6z"/></g>
<g transform="translate(506,110) scale(3.7766666666667)"><path d="M6,6H0V3c0-1.7,1.3-3,3-3l3,0V6z"/></g>
<g transform="translate(528,110) scale(3.7766666666667)"><rect width="6" height="6"/></g>
<g transform="translate(572,110) scale(3.7766666666667)"><rect width="6" height="6"/></g>
<g transform="translate(616,110) scale(3.7766666666667)"><circle cx="3" cy="3" r="3"/></g>
<g transform="translate(660,110) scale(3.7766666666667)"><path d="M6,6H0V3c0-1.7,1.3-3,3-3h0c1.7,0,3,1.3,3,3V6z"/></g>
<g transform="translate(704,110) scale(3.7766666666667)"><circle cx="3" cy="3" r="3"/></g>
<g transform="translate(748,110) scale(3.7766666666667)"><path d="M3,6L3,6C1.3,6,0,4.7,0,3V0h6v3C6,4.7,4.7,6,3,6z"/></g>
<g transform="translate(264,132) scale(3.7766666666667)"><path d="M6,6H0V3c0-1.7,1.3-3,3-3h0c1.7,0,3,1.3,3,3V6z"/></g>
<g transform="translate(330,132) scale(3.7766666666667)"><path d="M6,6H3C1.3,6,0,4.7,0,3v0c0-1.7,1.3-3,3-3h3C6,0,6,6,6,6z"/></g>
<g transform="translate(352,132) scale(3.7766666666667)"><rect width="6" height="6"/></g>
<g transform="translate(374,132) scale(3.7766666666667)"><rect width="6" height="6"/></g>
<g transform="translate(418,132) scale(3.7766666666667)"><circle cx="3" cy="3" r="3"/></g>
<g transform="translate(462,132) scale(3.7766666666667)"><circle cx="3" cy="3" r="3"/></g>
<g transform="translate(506,132) scale(3.7766666666667)"><path d="M6,6H3C1.3,6,0,4.7,0,3V0l6,0V6z"/></g>
<g transform="translate(528,132) scale(3.7766666666667)"><rect width="6" height="6"/></g>
<g transform="translate(550,132) scale(3.7766666666667)"><rect width="6" height="6"/></g>
<g transform="translate(572,132) scale(3.7766666666667)"><rect width="6" height="6"/></g>
<g transform="translate(594,132) scale(3.7766666666667)"><path d="M6,6H0V0l3,0c1.7,0,3,1.3,3,3V6z"/></g>
<g transform="translate(638,132) scale(3.7766666666667)"><path d="M6,6H0V3c0-1.7,1.3-3,3-3l3,0V6z"/></g>
<g transform="translate(660,132) scale(3.7766666666667)"><rect width="6" height="6"/></g>
<g transform="translate(682,132) scale(3.7766666666667)"><path d="M3,6H0V0l3,0c1.7,0,3,1.3,3,3v0C6,4.7,4.7,6,3,6z"/></g>
<g transform="translate(220,154) scale(3.7766666666667)"><path d="M6,6H0V3c0-1.7,1.3-3,3-3h0c1.7,0,3,1.3,3,3V6z"/></g>
<g transform="translate(264,154) scale(3.7766666666667)"><rect width="6" height="6"/></g>
<g transform="translate(308,154) scale(3.7766666666667)"><path d="M6,6H0V3c0-1.7,1.3-3,3-3h0c1.7,0,3,1.3,3,3V6z"/></g>
<g transform="translate(352,154) scale(3.7766666666667)"><rect width="6" height="6"/></g>
<g transform="translate(374,154) scale(3.7766666666667)"><path d="M3,6H0V0l6,0v3C6,4.7,4.7,6,3,6z"/></g>
<g transform="translate(440,154) scale(3.7766666666667)"><path d="M6,6H0V3c0-1.7,1.3-3,3-3h0c1.7,0,3,1.3,3,3V6z"/></g>
<g transform="translate(594,154) scale(3.7766666666667)"><path d="M6,6H3C1.3,6,0,4.7,0,3V0l6,0V6z"/></g>
<g transform="translate(616,154) scale(3.7766666666667)"><rect width="6" height="6"/></g>
<g transform="translate(638,154) scale(3.7766666666667)"><rect width="6" height="6"/></g>
<g transform="translate(660,154) scale(3.7766666666667)"><rect width="6" height="6"/></g>
<g transform="translate(704,154) scale(3.7766666666667)"><path d="M6,6H0V3c0-1.7,1.3-3,3-3l3,0V6z"/></g>
<g transform="translate(726,154) scale(3.7766666666667)"><rect width="6" height="6"/></g>
<g transform="translate(748,154) scale(3.7766666666667)"><path d="M6,6H0V0l3,0c1.7,0,3,1.3,3,3V6z"/></g>
<g transform="translate(220,176) scale(3.7766666666667)"><rect width="6" height="6"/></g>
<g transform="translate(264,176) scale(3.7766666666667)"><rect width="6" height="6"/></g>
<g transform="translate(308,176) scale(3.7766666666667)"><path d="M3,6L3,6C1.3,6,0,4.7,0,3V0h6v3C6,4.7,4.7,6,3,6z"/></g>
<g transform="translate(352,176) scale(3.7766666666667)"><rect width="6" height="6"/></g>
<g transform="translate(396,176) scale(3.7766666666667)"><circle cx="3" cy="3" r="3"/></g>
<g transform="translate(440,176) scale(3.7766666666667)"><path d="M3,6L3,6C1.3,6,0,4.7,0,3V0h6v3C6,4.7,4.7,6,3,6z"/></g>
<g transform="translate(484,176) scale(3.7766666666667)"><circle cx="3" cy="3" r="3"/></g>
<g transform="translate(528,176) scale(3.7766666666667)"><path d="M6,6H0V3c0-1.7,1.3-3,3-3h0c1.7,0,3,1.3,3,3V6z"/></g>
<g transform="translate(572,176) scale(3.7766666666667)"><circle cx="3" cy="3" r="3"/></g>
<g transform="translate(616,176) scale(3.7766666666667)"><path d="M3,6L3,6C1.3,6,0,4.7,0,3V0h6v3C6,4.7,4.7,6,3,6z"/></g>
<g transform="translate(660,176) scale(3.7766666666667)"><path d="M3,6L3,6C1.3,6,0,4.7,0,3V0h6v3C6,4.7,4.7,6,3,6z"/></g>
<g transform="translate(704,176) scale(3.7766666666667)"><path d="M3,6L3,6C1.3,6,0,4.7,0,3V0h6v3C6,4.7,4.7,6,3,6z"/></g>
<g transform="translate(748,176) scale(3.7766666666667)"><path d="M3,6L3,6C1.3,6,0,4.7,0,3V0h6v3C6,4.7,4.7,6,3,6z"/></g>
<g transform="translate(220,198) scale(3.7766666666667)"><rect width="6" height="6"/></g>
<g transform="translate(242,198) scale(3.7766666666667)"><rect width="6" height="6"/></g>
<g transform="translate(264,198) scale(3.7766666666667)"><rect width="6" height="6"/></g>
<g transform="translate(286,198) scale(3.7766666666667)"><path d="M3,6H0V0l3,0c1.7,0,3,1.3,3,3v0C6,4.7,4.7,6,3,6z"/></g>
<g transform="translate(352,198) scale(3.7766666666667)"><path d="M3,6L3,6C1.3,6,0,4.7,0,3V0h6v3C6,4.7,4.7,6,3,6z"/></g>
<g transform="translate(506,198) scale(3.7766666666667)"><path d="M6,6H3C1.3,6,0,4.7,0,3v0c0-1.7,1.3-3,3-3h3C6,0,6,6,6,6z"/></g>
<g transform="translate(528,198) scale(3.7766666666667)"><rect width="6" height="6"/></g>
<g transform="translate(550,198) scale(3.7766666666667)"><path d="M3,6H0V0l3,0c1.7,0,3,1.3,3,3v0C6,4.7,4.7,6,3,6z"/></g>
<g transform="translate(88,220) scale(3.7766666666667)"><path d="M6,6H0V3c0-1.7,1.3-3,3-3l3,0V6z"/></g>
<g transform="translate(110,220) scale(3.7766666666667)"><rect width="6" height="6"/></g>
<g transform="translate(132,220) scale(3.7766666666667)"><path d="M3,6H0V0l3,0c1.7,0,3,1.3,3,3v0C6,4.7,4.7,6,3,6z"/></g>
<g transform="translate(176,220) scale(3.7766666666667)"><circle cx="3" cy="3" r="3"/></g>
<g transform="translate(220,220) scale(3.7766666666667)"><rect width="6" height="6"/></g>
<g transform="translate(242,220) scale(3.7766666666667)"><rect width="6" height="6"/></g>
<g transform="translate(264,220) scale(3.7766666666667)"><rect width="6" height="6"/></g>
<g transform="translate(330,220) scale(3.7766666666667)"><path d="M6,6H0V3c0-1.7,1.3-3,3-3h0c1.7,0,3,1.3,3,3V6z"/></g>
<g transform="translate(374,220) scale(3.7766666666667)"><circle cx="3" cy="3" r="3"/></g>
<g transform="translate(418,220) scale(3.7766666666667)"><circle cx="3" cy="3" r="3"/></g>
<g transform="translate(462,220) scale(3.7766666666667)"><path d="M6,6H0V3c0-1.7,1.3-3,3-3l3,0V6z"/></g>
<g transform="translate(484,220) scale(3.7766666666667)"><path d="M6,6H0V0l3,0c1.7,0,3,1.3,3,3V6z"/></g>
<g transform="translate(572,220) scale(3.7766666666667)"><path d="M6,6H3C1.3,6,0,4.7,0,3v0c0-1.7,1.3-3,3-3h3C6,0,6,6,6,6z"/></g>
<g transform="translate(594,220) scale(3.7766666666667)"><rect width="6" height="6"/></g>
<g transform="translate(616,220) scale(3.7766666666667)"><rect width="6" height="6"/></g>
<g transform="translate(638,220) scale(3.7766666666667)"><path d="M3,6H0V0l3,0c1.7,0,3,1.3,3,3v0C6,4.7,4.7,6,3,6z"/></g>
<g transform="translate(682,220) scale(3.7766666666667)"><path d="M6,6H0V3c0-1.7,1.3-3,3-3l3,0V6z"/></g>
<g transform="translate(704,220) scale(3.7766666666667)"><path d="M3,6H0V0l3,0c1.7,0,3,1.3,3,3v0C6,4.7,4.7,6,3,6z"/></g>
<g transform="translate(748,220) scale(3.7766666666667)"><path d="M6,6H3C1.3,6,0,4.7,0,3v0c0-1.7,1.3-3,3-3h3C6,0,6,6,6,6z"/></g>
<g transform="translate(770,220) scale(3.7766666666667)"><rect width="6" height="6"/></g>
<g transform="translate(792,220) scale(3.7766666666667)"><rect width="6" height="6"/></g>
<g transform="translate(814,220) scale(3.7766666666667)"><path d="M6,6H0V0l3,0c1.7,0,3,1.3,3,3V6z"/></g>
<g transform="translate(880,220) scale(3.7766666666667)"><path d="M6,6H3C1.3,6,0,4.7,0,3v0c0-1.7,1.3-3,3-3h3C6,0,6,6,6,6z"/></g>
<g transform="translate(902,220) scale(3.7766666666667)"><rect width="6" height="6"/></g>
<g transform="translate(924,220) scale(3.7766666666667)"><path d="M3,6H0V0l3,0c1.7,0,3,1.3,3,3v0C6,4.7,4.7,6,3,6z"/></g>
<g transform="translate(88,242) scale(3.7766666666667)"><rect width="6" height="6"/></g>
<g transform="translate(154,242) scale(3.7766666666667)"><path d="M6,6H0V3c0-1.7,1.3-3,3-3h0c1.7,0,3,1.3,3,3V6z"/></g>
<g transform="translate(220,242) scale(3.7766666666667)"><rect width="6" height="6"/></g>
<g transform="translate(242,242) scale(3.7766666666667)"><rect width="6" height="6"/></g>
<g transform="translate(264,242) scale(3.7766666666667)"><rect width="6" height="6"/></g>
<g transform="translate(330,242) scale(3.7766666666667)"><rect width="6" height="6"/></g>
<g transform="translate(352,242) scale(3.7766666666667)"><path d="M6,6H0V0l3,0c1.7,0,3,1.3,3,3V6z"/></g>
<g transform="translate(462,242) scale(3.7766666666667)"><rect width="6" height="6"/></g>
<g transform="translate(484,242) scale(3.7766666666667)"><rect width="6" height="6"/></g>
<g transform="translate(506,242) scale(3.7766666666667)"><rect width="6" height="6"/></g>
<g transform="translate(528,242) scale(3.7766666666667)"><rect width="6" height="6"/></g>
<g transform="translate(550,242) scale(3.7766666666667)"><path d="M3,6H0V0l3,0c1.7,0,3,1.3,3,3v0C6,4.7,4.7,6,3,6z"/></g>
<g transform="translate(594,242) scale(3.7766666666667)"><path d="M3,6L3,6C1.3,6,0,4.7,0,3V0h6v3C6,4.7,4.7,6,3,6z"/></g>
<g transform="translate(682,242) scale(3.7766666666667)"><path d="M3,6L3,6C1.3,6,0,4.7,0,3V0h6v3C6,4.7,4.7,6,3,6z"/></g>
<g transform="translate(726,242) scale(3.7766666666667)"><circle cx="3" cy="3" r="3"/></g>
<g transform="translate(792,242) scale(3.7766666666667)"><path d="M6,6H3C1.3,6,0,4.7,0,3V0l6,0V6z"/></g>
<g transform="translate(814,242) scale(3.7766666666667)"><rect width="6" height="6"/></g>
<g transform="translate(836,242) scale(3.7766666666667)"><rect width="6" height="6"/></g>
<g transform="translate(858,242) scale(3.7766666666667)"><path d="M3,6H0V0l3,0c1.7,0,3,1.3,3,3v0C6,4.7,4.7,6,3,6z"/></g>
<g transform="translate(88,264) scale(3.7766666666667)"><path d="M6,6H3C1.3,6,0,4.7,0,3V0l6,0V6z"/></g>
<g transform="translate(110,264) scale(3.7766666666667)"><path d="M6,6H0V0l3,0c1.7,0,3,1.3,3,3V6z"/></g>
<g transform="translate(154,264) scale(3.7766666666667)"><rect width="6" height="6"/></g>
<g transform="translate(176,264) scale(3.7766666666667)"><rect width="6" height="6"/></g>
<g transform="translate(198,264) scale(3.7766666666667)"><rect width="6" height="6"/></g>
<g transform="translate(220,264) scale(3.7766666666667)"><rect width="6" height="6"/></g>
<g transform="translate(264,264) scale(3.7766666666667)"><rect width="6" height="6"/></g>
<g transform="translate(286,264) scale(3.7766666666667)"><rect width="6" height="6"/></g>
<g transform="translate(308,264) scale(3.7766666666667)"><rect width="6" height="6"/></g>
<g transform="translate(330,264) scale(3.7766666666667)"><rect width="6" height="6"/></g>
<g transform="translate(352,264) scale(3.7766666666667)"><rect width="6" height="6"/></g>
<g transform="translate(462,264) scale(3.7766666666667)"><path d="M6,6H3C1.3,6,0,4.7,0,3V0l6,0V6z"/></g>
<g transform="translate(484,264) scale(3.7766666666667)"><rect width="6" height="6"/></g>
<g transform="translate(506,264) scale(3.7766666666667)"><path d="M3,6H0V0l6,0v3C6,4.7,4.7,6,3,6z"/></g>
<g transform="translate(616,264) scale(3.7766666666667)"><path d="M6,6H3C1.3,6,0,4.7,0,3v0c0-1.7,1.3-3,3-3h3C6,0,6,6,6,6z"/></g>
<g transform="translate(638,264) scale(3.7766666666667)"><rect width="6" height="6"/></g>
<g transform="translate(660,264) scale(3.7766666666667)"><path d="M3,6H0V0l3,0c1.7,0,3,1.3,3,3v0C6,4.7,4.7,6,3,6z"/></g>
<g transform="translate(748,264) scale(3.7766666666667)"><circle cx="3" cy="3" r="3"/></g>
<g transform="translate(814,264) scale(3.7766666666667)"><path d="M3,6L3,6C1.3,6,0,4.7,0,3V0h6v3C6,4.7,4.7,6,3,6z"/></g>
<g transform="translate(880,264) scale(3.7766666666667)"><circle cx="3" cy="3" r="3"/></g>
<g transform="translate(44,286) scale(3.7766666666667)"><path d="M6,6H3C1.3,6,0,4.7,0,3v0c0-1.7,1.3-3,3-3h3C6,0,6,6,6,6z"/></g>
<g transform="translate(66,286) scale(3.7766666666667)"><path d="M3,6H0V0l3,0c1.7,0,3,1.3,3,3v0C6,4.7,4.7,6,3,6z"/></g>
<g transform="translate(110,286) scale(3.7766666666667)"><path d="M6,6H3C1.3,6,0,4.7,0,3V0l6,0V6z"/></g>
<g transform="translate(132,286) scale(3.7766666666667)"><rect width="6" height="6"/></g>
<g transform="translate(154,286) scale(3.7766666666667)"><rect width="6" height="6"/></g>
<g transform="translate(198,286) scale(3.7766666666667)"><path d="M6,6H3C1.3,6,0,4.7,0,3V0l6,0V6z"/></g>
<g transform="translate(220,286) scale(3.7766666666667)"><path d="M3,6H0V0l6,0v3C6,4.7,4.7,6,3,6z"/></g>
<g transform="translate(264,286) scale(3.7766666666667)"><rect width="6" height="6"/></g>
<g transform="translate(330,286) scale(3.7766666666667)"><rect width="6" height="6"/></g>
<g transform="translate(352,286) scale(3.7766666666667)"><path d="M3,6H0V0l6,0v3C6,4.7,4.7,6,3,6z"/></g>
<g transform="translate(484,286) scale(3.7766666666667)"><path d="M3,6L3,6C1.3,6,0,4.7,0,3V0h6v3C6,4.7,4.7,6,3,6z"/></g>
<g transform="translate(528,286) scale(3.7766666666667)"><path d="M6,6H0V3c0-1.7,1.3-3,3-3h0c1.7,0,3,1.3,3,3V6z"/></g>
<g transform="translate(572,286) scale(3.7766666666667)"><circle cx="3" cy="3" r="3"/></g>
<g transform="translate(638,286) scale(3.7766666666667)"><rect width="6" height="6"/></g>
<g transform="translate(682,286) scale(3.7766666666667)"><path d="M6,6H3C1.3,6,0,4.7,0,3v0c0-1.7,1.3-3,3-3h3C6,0,6,6,6,6z"/></g>
<g transform="translate(704,286) scale(3.7766666666667)"><path d="M6,6H0V0l3,0c1.7,0,3,1.3,3,3V6z"/></g>
<g transform="translate(836,286) scale(3.7766666666667)"><path d="M6,6H0V3c0-1.7,1.3-3,3-3h0c1.7,0,3,1.3,3,3V6z"/></g>
<g transform="translate(902,286) scale(3.7766666666667)"><path d="M6,6H0V3c0-1.7,1.3-3,3-3h0c1.7,0,3,1.3,3,3V6z"/></g>
<g transform="translate(154,308) scale(3.7766666666667)"><rect width="6" height="6"/></g>
<g transform="translate(176,308) scale(3.7766666666667)"><path d="M3,6H0V0l3,0c1.7,0,3,1.3,3,3v0C6,4.7,4.7,6,3,6z"/></g>
<g transform="translate(264,308) scale(3.7766666666667)"><rect width="6" height="6"/></g>
<g transform="translate(308,308) scale(3.7766666666667)"><path d="M6,6H3C1.3,6,0,4.7,0,3v0c0-1.7,1.3-3,3-3h3C6,0,6,6,6,6z"/></g>
<g transform="translate(330,308) scale(3.7766666666667)"><rect width="6" height="6"/></g>
<g transform="translate(396,308) scale(3.7766666666667)"><circle cx="3" cy="3" r="3"/></g>
<g transform="translate(440,308) scale(3.7766666666667)"><path d="M6,6H0V3c0-1.7,1.3-3,3-3l3,0V6z"/></g>
<g transform="translate(462,308) scale(3.7766666666667)"><path d="M6,6H0V0l3,0c1.7,0,3,1.3,3,3V6z"/></g>
<g transform="translate(528,308) scale(3.7766666666667)"><rect width="6" height="6"/></g>
<g transform="translate(616,308) scale(3.7766666666667)"><path d="M6,6H3C1.3,6,0,4.7,0,3v0c0-1.7,1.3-3,3-3h3C6,0,6,6,6,6z"/></g>
<g transform="translate(638,308) scale(3.7766666666667)"><rect width="6" height="6"/></g>
<g transform="translate(660,308) scale(3.7766666666667)"><path d="M3,6H0V0l3,0c1.7,0,3,1.3,3,3v0C6,4.7,4.7,6,3,6z"/></g>
<g transform="translate(704,308) scale(3.7766666666667)"><rect width="6" height="6"/></g>
<g transform="translate(770,308) scale(3.7766666666667)"><path d="M6,6H0V3c0-1.7,1.3-3,3-3h0c1.7,0,3,1.3,3,3V6z"/></g>
<g transform="translate(814,308) scale(3.7766666666667)"><path d="M6,6H3C1.3,6,0,4.7,0,3v0c0-1.7,1.3-3,3-3h3C6,0,6,6,6,6z"/></g>
<g transform="translate(836,308) scale(3.7766666666667)"><path d="M3,6H0V0l6,0v3C6,4.7,4.7,6,3,6z"/></g>
<g transform="translate(902,308) scale(3.7766666666667)"><path d="M3,6L3,6C1.3,6,0,4.7,0,3V0h6v3C6,4.7,4.7,6,3,6z"/></g>
<g transform="translate(154,330) scale(3.7766666666667)"><path d="M3,6L3,6C1.3,6,0,4.7,0,3V0h6v3C6,4.7,4.7,6,3,6z"/></g>
<g transform="translate(242,330) scale(3.7766666666667)"><path d="M6,6H0V3c0-1.7,1.3-3,3-3l3,0V6z"/></g>
<g transform="translate(264,330) scale(3.7766666666667)"><rect width="6" height="6"/></g>
<g transform="translate(330,330) scale(3.7766666666667)"><rect width="6" height="6"/></g>
<g transform="translate(418,330) scale(3.7766666666667)"><path d="M6,6H3C1.3,6,0,4.7,0,3v0c0-1.7,1.3-3,3-3h3C6,0,6,6,6,6z"/></g>
<g transform="translate(440,330) scale(3.7766666666667)"><rect width="6" height="6"/></g>
<g transform="translate(462,330) scale(3.7766666666667)"><path d="M3,6H0V0l6,0v3C6,4.7,4.7,6,3,6z"/></g>
<g transform="translate(528,330) scale(3.7766666666667)"><rect width="6" height="6"/></g>
<g transform="translate(638,330) scale(3.7766666666667)"><rect width="6" height="6"/></g>
<g transform="translate(682,330) scale(3.7766666666667)"><path d="M6,6H0V3c0-1.7,1.3-3,3-3l3,0V6z"/></g>
<g transform="translate(704,330) scale(3.7766666666667)"><rect width="6" height="6"/></g>
<g transform="translate(748,330) scale(3.7766666666667)"><path d="M6,6H3C1.3,6,0,4.7,0,3v0c0-1.7,1.3-3,3-3h3C6,0,6,6,6,6z"/></g>
<g transform="translate(770,330) scale(3.7766666666667)"><rect width="6" height="6"/></g>
<g transform="translate(880,330) scale(3.7766666666667)"><circle cx="3" cy="3" r="3"/></g>
<g transform="translate(66,352) scale(3.7766666666667)"><path d="M6,6H0V3c0-1.7,1.3-3,3-3l3,0V6z"/></g>
<g transform="translate(88,352) scale(3.7766666666667)"><path d="M3,6H0V0l3,0c1.7,0,3,1.3,3,3v0C6,4.7,4.7,6,3,6z"/></g>
<g transform="translate(176,352) scale(3.7766666666667)"><path d="M6,6H3C1.3,6,0,4.7,0,3v0c0-1.7,1.3-3,3-3h3C6,0,6,6,6,6z"/></g>
<g transform="translate(198,352) scale(3.7766666666667)"><rect width="6" height="6"/></g>
<g transform="translate(220,352) scale(3.7766666666667)"><rect width="6" height="6"/></g>
<g transform="translate(242,352) scale(3.7766666666667)"><rect width="6" height="6"/></g>
<g transform="translate(264,352) scale(3.7766666666667)"><rect width="6" height="6"/></g>
<g transform="translate(330,352) scale(3.7766666666667)"><rect width="6" height="6"/></g>
<g transform="translate(352,352) scale(3.7766666666667)"><path d="M6,6H0V0l3,0c1.7,0,3,1.3,3,3V6z"/></g>
<g transform="translate(396,352) scale(3.7766666666667)"><circle cx="3" cy="3" r="3"/></g>
<g transform="translate(484,352) scale(3.7766666666667)"><path d="M6,6H3C1.3,6,0,4.7,0,3v0c0-1.7,1.3-3,3-3h3C6,0,6,6,6,6z"/></g>
<g transform="translate(506,352) scale(3.7766666666667)"><rect width="6" height="6"/></g>
<g transform="translate(528,352) scale(3.7766666666667)"><rect width="6" height="6"/></g>
<g transform="translate(616,352) scale(3.7766666666667)"><path d="M6,6H3C1.3,6,0,4.7,0,3v0c0-1.7,1.3-3,3-3h3C6,0,6,6,6,6z"/></g>
<g transform="translate(638,352) scale(3.7766666666667)"><rect width="6" height="6"/></g>
<g transform="translate(660,352) scale(3.7766666666667)"><rect width="6" height="6"/></g>
<g transform="translate(682,352) scale(3.7766666666667)"><rect width="6" height="6"/></g>
<g transform="translate(704,352) scale(3.7766666666667)"><rect width="6" height="6"/></g>
<g transform="translate(726,352) scale(3.7766666666667)"><path d="M6,6H0V0l3,0c1.7,0,3,1.3,3,3V6z"/></g>
<g transform="translate(770,352) scale(3.7766666666667)"><rect width="6" height="6"/></g>
<g transform="translate(814,352) scale(3.7766666666667)"><path d="M6,6H3C1.3,6,0,4.7,0,3v0c0-1.7,1.3-3,3-3h3C6,0,6,6,6,6z"/></g>
<g transform="translate(836,352) scale(3.7766666666667)"><rect width="6" height="6"/></g>
<g transform="translate(858,352) scale(3.7766666666667)"><path d="M6,6H0V0l3,0c1.7,0,3,1.3,3,3V6z"/></g>
<g transform="translate(902,352) scale(3.7766666666667)"><path d="M6,6H0V3c0-1.7,1.3-3,3-3h0c1.7,0,3,1.3,3,3V6z"/></g>
<g transform="translate(66,374) scale(3.7766666666667)"><path d="M3,6L3,6C1.3,6,0,4.7,0,3V0h6v3C6,4.7,4.7,6,3,6z"/></g>
<g transform="translate(154,374) scale(3.7766666666667)"><path d="M6,6H0V3c0-1.7,1.3-3,3-3h0c1.7,0,3,1.3,3,3V6z"/></g>
<g transform="translate(220,374) scale(3.7766666666667)"><path d="M6,6H3C1.3,6,0,4.7,0,3V0l6,0V6z"/></g>
<g transform="translate(242,374) scale(3.7766666666667)"><rect width="6" height="6"/></g>
<g transform="translate(264,374) scale(3.7766666666667)"><path d="M3,6H0V0l6,0v3C6,4.7,4.7,6,3,6z"/></g>
<g transform="translate(330,374) scale(3.7766666666667)"><path d="M6,6H3C1.3,6,0,4.7,0,3V0l6,0V6z"/></g>
<g transform="translate(352,374) scale(3.7766666666667)"><rect width="6" height="6"/></g>
<g transform="translate(418,374) scale(3.7766666666667)"><circle cx="3" cy="3" r="3"/></g>
<g transform="translate(462,374) scale(3.7766666666667)"><circle cx="3" cy="3" r="3"/></g>
<g transform="translate(528,374) scale(3.7766666666667)"><rect width="6" height="6"/></g>
<g transform="translate(572,374) scale(3.7766666666667)"><circle cx="3" cy="3" r="3"/></g>
<g transform="translate(638,374) scale(3.7766666666667)"><rect width="6" height="6"/></g>
<g transform="translate(726,374) scale(3.7766666666667)"><rect width="6" height="6"/></g>
<g transform="translate(748,374) scale(3.7766666666667)"><rect width="6" height="6"/></g>
<g transform="translate(770,374) scale(3.7766666666667)"><path d="M3,6H0V0l6,0v3C6,4.7,4.7,6,3,6z"/></g>
<g transform="translate(858,374) scale(3.7766666666667)"><path d="M3,6L3,6C1.3,6,0,4.7,0,3V0h6v3C6,4.7,4.7,6,3,6z"/></g>
<g transform="translate(902,374) scale(3.7766666666667)"><path d="M3,6L3,6C1.3,6,0,4.7,0,3V0h6v3C6,4.7,4.7,6,3,6z"/></g>
<g transform="translate(88,396) scale(3.7766666666667)"><path d="M6,6H0V3c0-1.7,1.3-3,3-3h0c1.7,0,3,1.3,3,3V6z"/></g>
<g transform="translate(154,396) scale(3.7766666666667)"><path d="M6,6H3C1.3,6,0,4.7,0,3V0l6,0V6z"/></g>
<g transform="translate(176,396) scale(3.7766666666667)"><rect width="6" height="6"/></g>
<g transform="translate(198,396) scale(3.7766666666667)"><path d="M6,6H0V0l3,0c1.7,0,3,1.3,3,3V6z"/></g>
<g transform="translate(286,396) scale(3.7766666666667)"><path d="M6,6H0V3c0-1.7,1.3-3,3-3l3,0V6z"/></g>
<g transform="translate(308,396) scale(3.7766666666667)"><path d="M6,6H0V0l3,0c1.7,0,3,1.3,3,3V6z"/></g>
<g transform="translate(352,396) scale(3.7766666666667)"><rect width="6" height="6"/></g>
<g transform="translate(374,396) scale(3.7766666666667)"><path d="M3,6H0V0l3,0c1.7,0,3,1.3,3,3v0C6,4.7,4.7,6,3,6z"/></g>
<g transform="translate(506,396) scale(3.7766666666667)"><path d="M6,6H0V3c0-1.7,1.3-3,3-3l3,0V6z"/></g>
<g transform="translate(528,396) scale(3.7766666666667)"><path d="M3,6H0V0l6,0v3C6,4.7,4.7,6,3,6z"/></g>
<g transform="translate(616,396) scale(3.7766666666667)"><path d="M6,6H0V3c0-1.7,1.3-3,3-3l3,0V6z"/></g>
<g transform="translate(638,396) scale(3.7766666666667)"><path d="M3,6H0V0l6,0v3C6,4.7,4.7,6,3,6z"/></g>
<g transform="translate(682,396) scale(3.7766666666667)"><path d="M6,6H0V3c0-1.7,1.3-3,3-3h0c1.7,0,3,1.3,3,3V6z"/></g>
<g transform="translate(726,396) scale(3.7766666666667)"><rect width="6" height="6"/></g>
<g transform="translate(748,396) scale(3.7766666666667)"><rect width="6" height="6"/></g>
<g transform="translate(814,396) scale(3.7766666666667)"><path d="M6,6H0V3c0-1.7,1.3-3,3-3l3,0V6z"/></g>
<g transform="translate(836,396) scale(3.7766666666667)"><path d="M6,6H0V0l3,0c1.7,0,3,1.3,3,3V6z"/></g>
<g transform="translate(66,418) scale(3.7766666666667)"><path d="M6,6H3C1.3,6,0,4.7,0,3v0c0-1.7,1.3-3,3-3h3C6,0,6,6,6,6z"/></g>
<g transform="translate(88,418) scale(3.7766666666667)"><path d="M3,6H0V0l6,0v3C6,4.7,4.7,6,3,6z"/></g>
<g transform="translate(132,418) scale(3.7766666666667)"><path d="M6,6H0V3c0-1.7,1.3-3,3-3h0c1.7,0,3,1.3,3,3V6z"/></g>
<g transform="translate(198,418) scale(3.7766666666667)"><rect width="6" height="6"/></g>
<g transform="translate(220,418) scale(3.7766666666667)"><path d="M3,6H0V0l3,0c1.7,0,3,1.3,3,3v0C6,4.7,4.7,6,3,6z"/></g>
<g transform="translate(264,418) scale(3.7766666666667)"><path d="M6,6H3C1.3,6,0,4.7,0,3v0c0-1.7,1.3-3,3-3h3C6,0,6,6,6,6z"/></g>
<g transform="translate(286,418) scale(3.7766666666667)"><rect width="6" height="6"/></g>
<g transform="translate(308,418) scale(3.7766666666667)"><rect width="6" height="6"/></g>
<g transform="translate(330,418) scale(3.7766666666667)"><rect width="6" height="6"/></g>
<g transform="translate(352,418) scale(3.7766666666667)"><path d="M3,6H0V0l6,0v3C6,4.7,4.7,6,3,6z"/></g>
<g transform="translate(396,418) scale(3.7766666666667)"><path d="M6,6H0V3c0-1.7,1.3-3,3-3l3,0V6z"/></g>
<g transform="translate(418,418) scale(3.7766666666667)"><rect width="6" height="6"/></g>
<g transform="translate(440,418) scale(3.7766666666667)"><path d="M3,6H0V0l3,0c1.7,0,3,1.3,3,3v0C6,4.7,4.7,6,3,6z"/></g>
<g transform="translate(506,418) scale(3.7766666666667)"><path d="M3,6L3,6C1.3,6,0,4.7,0,3V0h6v3C6,4.7,4.7,6,3,6z"/></g>
<g transform="translate(594,418) scale(3.7766666666667)"><path d="M6,6H0V3c0-1.7,1.3-3,3-3l3,0V6z"/></g>
<g transform="translate(616,418) scale(3.7766666666667)"><rect width="6" height="6"/></g>
<g transform="translate(660,418) scale(3.7766666666667)"><path d="M6,6H3C1.3,6,0,4.7,0,3v0c0-1.7,1.3-3,3-3h3C6,0,6,6,6,6z"/></g>
<g transform="translate(682,418) scale(3.7766666666667)"><rect width="6" height="6"/></g>
<g transform="translate(704,418) scale(3.7766666666667)"><rect width="6" height="6"/></g>
<g transform="translate(726,418) scale(3.7766666666667)"><rect width="6" height="6"/></g>
<g transform="translate(748,418) scale(3.7766666666667)"><rect width="6" height="6"/></g>
<g transform="translate(770,418) scale(3.7766666666667)"><path d="M3,6H0V0l3,0c1.7,0,3,1.3,3,3v0C6,4.7,4.7,6,3,6z"/></g>
<g transform="translate(814,418) scale(3.7766666666667)"><path d="M6,6H3C1.3,6,0,4.7,0,3V0l6,0V6z"/></g>
<g transform="translate(836,418) scale(3.7766666666667)"><path d="M3,6H0V0l6,0v3C6,4.7,4.7,6,3,6z"/></g>
<g transform="translate(902,418) scale(3.7766666666667)"><path d="M6,6H0V3c0-1.7,1.3-3,3-3l3,0V6z"/></g>
<g transform="translate(924,418) scale(3.7766666666667)"><path d="M6,6H0V0l3,0c1.7,0,3,1.3,3,3V6z"/></g>
<g transform="translate(44,440) scale(3.7766666666667)"><path d="M6,6H0V3c0-1.7,1.3-3,3-3h0c1.7,0,3,1.3,3,3V6z"/></g>
<g transform="translate(132,440) scale(3.7766666666667)"><rect width="6" height="6"/></g>
<g transform="translate(176,440) scale(3.7766666666667)"><path d="M6,6H3C1.3,6,0,4.7,0,3v0c0-1.7,1.3-3,3-3h3C6,0,6,6,6,6z"/></g>
<g transform="translate(198,440) scale(3.7766666666667)"><rect width="6" height="6"/></g>
<g transform="translate(330,440) scale(3.7766666666667)"><path d="M3,6L3,6C1.3,6,0,4.7,0,3V0h6v3C6,4.7,4.7,6,3,6z"/></g>
<g transform="translate(374,440) scale(3.7766666666667)"><path d="M6,6H3C1.3,6,0,4.7,0,3v0c0-1.7,1.3-3,3-3h3C6,0,6,6,6,6z"/></g>
<g transform="translate(396,440) scale(3.7766666666667)"><rect width="6" height="6"/></g>
<g transform="translate(418,440) scale(3.7766666666667)"><rect width="6" height="6"/></g>
<g transform="translate(550,440) scale(3.7766666666667)"><circle cx="3" cy="3" r="3"/></g>
<g transform="translate(594,440) scale(3.7766666666667)"><path d="M6,6H3C1.3,6,0,4.7,0,3V0l6,0V6z"/></g>
<g transform="translate(616,440) scale(3.7766666666667)"><rect width="6" height="6"/></g>
<g transform="translate(638,440) scale(3.7766666666667)"><path d="M6,6H0V0l3,0c1.7,0,3,1.3,3,3V6z"/></g>
<g transform="translate(682,440) scale(3.7766666666667)"><rect width="6" height="6"/></g>
<g transform="translate(748,440) scale(3.7766666666667)"><rect width="6" height="6"/></g>
<g transform="translate(792,440) scale(3.7766666666667)"><circle cx="3" cy="3" r="3"/></g>
<g transform="translate(880,440) scale(3.7766666666667)"><path d="M6,6H3C1.3,6,0,4.7,0,3v0c0-1.7,1.3-3,3-3h3C6,0,6,6,6,6z"/></g>
<g transform="translate(902,440) scale(3.7766666666667)"><rect width="6" height="6"/></g>
<g transform="translate(924,440) scale(3.7766666666667)"><path d="M3,6H0V0l6,0v3C6,4.7,4.7,6,3,6z"/></g>
<g transform="translate(44,462) scale(3.7766666666667)"><path d="M6,6H3C1.3,6,0,4.7,0,3V0l6,0V6z"/></g>
<g transform="translate(66,462) scale(3.7766666666667)"><rect width="6" height="6"/></g>
<g transform="translate(88,462) scale(3.7766666666667)"><rect width="6" height="6"/></g>
<g transform="translate(110,462) scale(3.7766666666667)"><rect width="6" height="6"/></g>
<g transform="translate(132,462) scale(3.7766666666667)"><path d="M3,6H0V0l6,0v3C6,4.7,4.7,6,3,6z"/></g>
<g transform="translate(198,462) scale(3.7766666666667)"><path d="M6,6H3C1.3,6,0,4.7,0,3V0l6,0V6z"/></g>
<g transform="translate(220,462) scale(3.7766666666667)"><rect width="6" height="6"/></g>
<g transform="translate(242,462) scale(3.7766666666667)"><rect width="6" height="6"/></g>
<g transform="translate(264,462) scale(3.7766666666667)"><rect width="6" height="6"/></g>
<g transform="translate(286,462) scale(3.7766666666667)"><path d="M6,6H0V0l3,0c1.7,0,3,1.3,3,3V6z"/></g>
<g transform="translate(418,462) scale(3.7766666666667)"><rect width="6" height="6"/></g>
<g transform="translate(440,462) scale(3.7766666666667)"><rect width="6" height="6"/></g>
<g transform="translate(462,462) scale(3.7766666666667)"><rect width="6" height="6"/></g>
<g transform="translate(484,462) scale(3.7766666666667)"><path d="M3,6H0V0l3,0c1.7,0,3,1.3,3,3v0C6,4.7,4.7,6,3,6z"/></g>
<g transform="translate(638,462) scale(3.7766666666667)"><rect width="6" height="6"/></g>
<g transform="translate(682,462) scale(3.7766666666667)"><path d="M6,6H3C1.3,6,0,4.7,0,3V0l6,0V6z"/></g>
<g transform="translate(704,462) scale(3.7766666666667)"><rect width="6" height="6"/></g>
<g transform="translate(726,462) scale(3.7766666666667)"><rect width="6" height="6"/></g>
<g transform="translate(748,462) scale(3.7766666666667)"><rect width="6" height="6"/></g>
<g transform="translate(814,462) scale(3.7766666666667)"><circle cx="3" cy="3" r="3"/></g>
<g transform="translate(858,462) scale(3.7766666666667)"><path d="M6,6H0V3c0-1.7,1.3-3,3-3h0c1.7,0,3,1.3,3,3V6z"/></g>
<g transform="translate(88,484) scale(3.7766666666667)"><rect width="6" height="6"/></g>
<g transform="translate(110,484) scale(3.7766666666667)"><rect width="6" height="6"/></g>
<g transform="translate(154,484) scale(3.7766666666667)"><path d="M6,6H0V3c0-1.7,1.3-3,3-3l3,0V6z"/></g>
<g transform="translate(176,484) scale(3.7766666666667)"><path d="M3,6H0V0l3,0c1.7,0,3,1.3,3,3v0C6,4.7,4.7,6,3,6z"/></g>
<g transform="translate(220,484) scale(3.7766666666667)"><path d="M3,6L3,6C1.3,6,0,4.7,0,3V0h6v3C6,4.7,4.7,6,3,6z"/></g>
<g transform="translate(264,484) scale(3.7766666666667)"><path d="M6,6H3C1.3,6,0,4.7,0,3V0l6,0V6z"/></g>
<g transform="translate(286,484) scale(3.7766666666667)"><rect width="6" height="6"/></g>
<g transform="translate(352,484) scale(3.7766666666667)"><path d="M6,6H0V3c0-1.7,1.3-3,3-3h0c1.7,0,3,1.3,3,3V6z"/></g>
<g transform="translate(396,484) scale(3.7766666666667)"><path d="M6,6H3C1.3,6,0,4.7,0,3v0c0-1.7,1.3-3,3-3h3C6,0,6,6,6,6z"/></g>
<g transform="translate(418,484) scale(3.7766666666667)"><rect width="6" height="6"/></g>
<g transform="translate(462,484) scale(3.7766666666667)"><rect width="6" height="6"/></g>
<g transform="translate(550,484) scale(3.7766666666667)"><path d="M6,6H3C1.3,6,0,4.7,0,3v0c0-1.7,1.3-3,3-3h3C6,0,6,6,6,6z"/></g>
<g transform="translate(572,484) scale(3.7766666666667)"><rect width="6" height="6"/></g>
<g transform="translate(594,484) scale(3.7766666666667)"><path d="M6,6H0V0l3,0c1.7,0,3,1.3,3,3V6z"/></g>
<g transform="translate(638,484) scale(3.7766666666667)"><path d="M3,6L3,6C1.3,6,0,4.7,0,3V0h6v3C6,4.7,4.7,6,3,6z"/></g>
<g transform="translate(748,484) scale(3.7766666666667)"><path d="M6,6H3C1.3,6,0,4.7,0,3V0l6,0V6z"/></g>
<g transform="translate(770,484) scale(3.7766666666667)"><path d="M6,6H0V0l3,0c1.7,0,3,1.3,3,3V6z"/></g>
<g transform="translate(858,484) scale(3.7766666666667)"><path d="M6,6H3C1.3,6,0,4.7,0,3V0l6,0V6z"/></g>
<g transform="translate(880,484) scale(3.7766666666667)"><rect width="6" height="6"/></g>
<g transform="translate(902,484) scale(3.7766666666667)"><path d="M3,6H0V0l3,0c1.7,0,3,1.3,3,3v0C6,4.7,4.7,6,3,6z"/></g>
<g transform="translate(66,506) scale(3.7766666666667)"><path d="M6,6H3C1.3,6,0,4.7,0,3v0c0-1.7,1.3-3,3-3h3C6,0,6,6,6,6z"/></g>
<g transform="translate(88,506) scale(3.7766666666667)"><rect width="6" height="6"/></g>
<g transform="translate(110,506) scale(3.7766666666667)"><rect width="6" height="6"/></g>
<g transform="translate(132,506) scale(3.7766666666667)"><rect width="6" height="6"/></g>
<g transform="translate(154,506) scale(3.7766666666667)"><rect width="6" height="6"/></g>
<g transform="translate(198,506) scale(3.7766666666667)"><circle cx="3" cy="3" r="3"/></g>
<g transform="translate(286,506) scale(3.7766666666667)"><rect width="6" height="6"/></g>
<g transform="translate(308,506) scale(3.7766666666667)"><rect width="6" height="6"/></g>
<g transform="translate(330,506) scale(3.7766666666667)"><rect width="6" height="6"/></g>
<g transform="translate(352,506) scale(3.7766666666667)"><rect width="6" height="6"/></g>
<g transform="translate(374,506) scale(3.7766666666667)"><path d="M6,6H0V0l3,0c1.7,0,3,1.3,3,3V6z"/></g>
<g transform="translate(418,506) scale(3.7766666666667)"><rect width="6" height="6"/></g>
<g transform="translate(462,506) scale(3.7766666666667)"><path d="M6,6H3C1.3,6,0,4.7,0,3V0l6,0V6z"/></g>
<g transform="translate(484,506) scale(3.7766666666667)"><rect width="6" height="6"/></g>
<g transform="translate(506,506) scale(3.7766666666667)"><rect width="6" height="6"/></g>
<g transform="translate(528,506) scale(3.7766666666667)"><path d="M6,6H0V0l3,0c1.7,0,3,1.3,3,3V6z"/></g>
<g transform="translate(594,506) scale(3.7766666666667)"><path d="M3,6L3,6C1.3,6,0,4.7,0,3V0h6v3C6,4.7,4.7,6,3,6z"/></g>
<g transform="translate(660,506) scale(3.7766666666667)"><path d="M6,6H3C1.3,6,0,4.7,0,3v0c0-1.7,1.3-3,3-3h3C6,0,6,6,6,6z"/></g>
<g transform="translate(682,506) scale(3.7766666666667)"><rect width="6" height="6"/></g>
<g transform="translate(704,506) scale(3.7766666666667)"><path d="M3,6H0V0l3,0c1.7,0,3,1.3,3,3v0C6,4.7,4.7,6,3,6z"/></g>
<g transform="translate(770,506) scale(3.7766666666667)"><rect width="6" height="6"/></g>
<g transform="translate(792,506) scale(3.7766666666667)"><rect width="6" height="6"/></g>
<g transform="translate(814,506) scale(3.7766666666667)"><rect width="6" height="6"/></g>
<g transform="translate(836,506) scale(3.7766666666667)"><path d="M3,6H0V0l3,0c1.7,0,3,1.3,3,3v0C6,4.7,4.7,6,3,6z"/></g>
<g transform="translate(110,528) scale(3.7766666666667)"><path d="M6,6H3C1.3,6,0,4.7,0,3V0l6,0V6z"/></g>
<g transform="translate(132,528) scale(3.7766666666667)"><rect width="6" height="6"/></g>
<g transform="translate(154,528) scale(3.7766666666667)"><rect width="6" height="6"/></g>
<g transform="translate(176,528) scale(3.7766666666667)"><path d="M3,6H0V0l3,0c1.7,0,3,1.3,3,3v0C6,4.7,4.7,6,3,6z"/></g>
<g transform="translate(242,528) scale(3.7766666666667)"><path d="M6,6H0V3c0-1.7,1.3-3,3-3l3,0V6z"/></g>
<g transform="translate(264,528) scale(3.7766666666667)"><rect width="6" height="6"/></g>
<g transform="translate(286,528) scale(3.7766666666667)"><rect width="6" height="6"/></g>
<g transform="translate(308,528) scale(3.7766666666667)"><rect width="6" height="6"/></g>
<g transform="translate(330,528) scale(3.7766666666667)"><rect width="6" height="6"/></g>
<g transform="translate(352,528) scale(3.7766666666667)"><rect width="6" height="6"/></g>
<g transform="translate(374,528) scale(3.7766666666667)"><rect width="6" height="6"/></g>
<g transform="translate(396,528) scale(3.7766666666667)"><rect width="6" height="6"/></g>
<g transform="translate(418,528) scale(3.7766666666667)"><rect width="6" height="6"/></g>
<g transform="translate(484,528) scale(3.7766666666667)"><rect width="6" height="6"/></g>
<g transform="translate(528,528) scale(3.7766666666667)"><rect width="6" height="6"/></g>
<g transform="translate(572,528) scale(3.7766666666667)"><circle cx="3" cy="3" r="3"/></g>
<g transform="translate(616,528) scale(3.7766666666667)"><path d="M6,6H3C1.3,6,0,4.7,0,3v0c0-1.7,1.3-3,3-3h3C6,0,6,6,6,6z"/></g>
<g transform="translate(638,528) scale(3.7766666666667)"><path d="M6,6H0V0l3,0c1.7,0,3,1.3,3,3V6z"/></g>
<g transform="translate(726,528) scale(3.7766666666667)"><path d="M6,6H3C1.3,6,0,4.7,0,3v0c0-1.7,1.3-3,3-3h3C6,0,6,6,6,6z"/></g>
<g transform="translate(748,528) scale(3.7766666666667)"><rect width="6" height="6"/></g>
<g transform="translate(770,528) scale(3.7766666666667)"><path d="M3,6H0V0l6,0v3C6,4.7,4.7,6,3,6z"/></g>
<g transform="translate(814,528) scale(3.7766666666667)"><rect width="6" height="6"/></g>
<g transform="translate(880,528) scale(3.7766666666667)"><circle cx="3" cy="3" r="3"/></g>
<g transform="translate(132,550) scale(3.7766666666667)"><rect width="6" height="6"/></g>
<g transform="translate(198,550) scale(3.7766666666667)"><path d="M6,6H0V3c0-1.7,1.3-3,3-3h0c1.7,0,3,1.3,3,3V6z"/></g>
<g transform="translate(242,550) scale(3.7766666666667)"><path d="M6,6H3C1.3,6,0,4.7,0,3V0l6,0V6z"/></g>
<g transform="translate(264,550) scale(3.7766666666667)"><rect width="6" height="6"/></g>
<g transform="translate(286,550) scale(3.7766666666667)"><path d="M3,6H0V0l6,0v3C6,4.7,4.7,6,3,6z"/></g>
<g transform="translate(352,550) scale(3.7766666666667)"><rect width="6" height="6"/></g>
<g transform="translate(374,550) scale(3.7766666666667)"><rect width="6" height="6"/></g>
<g transform="translate(396,550) scale(3.7766666666667)"><rect width="6" height="6"/></g>
<g transform="translate(418,550) scale(3.7766666666667)"><path d="M3,6H0V0l6,0v3C6,4.7,4.7,6,3,6z"/></g>
<g transform="translate(462,550) scale(3.7766666666667)"><path d="M6,6H0V3c0-1.7,1.3-3,3-3l3,0V6z"/></g>
<g transform="translate(484,550) scale(3.7766666666667)"><path d="M3,6H0V0l6,0v3C6,4.7,4.7,6,3,6z"/></g>
<g transform="translate(528,550) scale(3.7766666666667)"><path d="M6,6H3C1.3,6,0,4.7,0,3V0l6,0V6z"/></g>
<g transform="translate(550,550) scale(3.7766666666667)"><path d="M3,6H0V0l3,0c1.7,0,3,1.3,3,3v0C6,4.7,4.7,6,3,6z"/></g>
<g transform="translate(594,550) scale(3.7766666666667)"><circle cx="3" cy="3" r="3"/></g>
<g transform="translate(638,550) scale(3.7766666666667)"><path d="M3,6L3,6C1.3,6,0,4.7,0,3V0h6v3C6,4.7,4.7,6,3,6z"/></g>
<g transform="translate(748,550) scale(3.7766666666667)"><rect width="6" height="6"/></g>
<g transform="translate(792,550) scale(3.7766666666667)"><path d="M6,6H3C1.3,6,0,4.7,0,3v0c0-1.7,1.3-3,3-3h3C6,0,6,6,6,6z"/></g>
<g transform="translate(814,550) scale(3.7766666666667)"><rect width="6" height="6"/></g>
<g transform="translate(858,550) scale(3.7766666666667)"><path d="M6,6H0V3c0-1.7,1.3-3,3-3h0c1.7,0,3,1.3,3,3V6z"/></g>
<g transform="translate(924,550) scale(3.7766666666667)"><circle cx="3" cy="3" r="3"/></g>
<g transform="translate(44,572) scale(3.7766666666667)"><circle cx="3" cy="3" r="3"/></g>
<g transform="translate(88,572) scale(3.7766666666667)"><path d="M6,6H0V3c0-1.7,1.3-3,3-3h0c1.7,0,3,1.3,3,3V6z"/></g>
<g transform="translate(132,572) scale(3.7766666666667)"><path d="M6,6H3C1.3,6,0,4.7,0,3V0l6,0V6z"/></g>
<g transform="translate(154,572) scale(3.7766666666667)"><rect width="6" height="6"/></g>
<g transform="translate(176,572) scale(3.7766666666667)"><rect width="6" height="6"/></g>
<g transform="translate(198,572) scale(3.7766666666667)"><rect width="6" height="6"/></g>
<g transform="translate(220,572) scale(3.7766666666667)"><path d="M6,6H0V0l3,0c1.7,0,3,1.3,3,3V6z"/></g>
<g transform="translate(264,572) scale(3.7766666666667)"><rect width="6" height="6"/></g>
<g transform="translate(352,572) scale(3.7766666666667)"><rect width="6" height="6"/></g>
<g transform="translate(374,572) scale(3.7766666666667)"><rect width="6" height="6"/></g>
<g transform="translate(396,572) scale(3.7766666666667)"><path d="M3,6H0V0l6,0v3C6,4.7,4.7,6,3,6z"/></g>
<g transform="translate(440,572) scale(3.7766666666667)"><path d="M6,6H0V3c0-1.7,1.3-3,3-3l3,0V6z"/></g>
<g transform="translate(462,572) scale(3.7766666666667)"><rect width="6" height="6"/></g>
<g transform="translate(660,572) scale(3.7766666666667)"><path d="M6,6H0V3c0-1.7,1.3-3,3-3h0c1.7,0,3,1.3,3,3V6z"/></g>
<g transform="translate(726,572) scale(3.7766666666667)"><path d="M6,6H0V3c0-1.7,1.3-3,3-3l3,0V6z"/></g>
<g transform="translate(748,572) scale(3.7766666666667)"><path d="M3,6H0V0l6,0v3C6,4.7,4.7,6,3,6z"/></g>
<g transform="translate(814,572) scale(3.7766666666667)"><rect width="6" height="6"/></g>
<g transform="translate(836,572) scale(3.7766666666667)"><rect width="6" height="6"/></g>
<g transform="translate(858,572) scale(3.7766666666667)"><rect width="6" height="6"/></g>
<g transform="translate(902,572) scale(3.7766666666667)"><circle cx="3" cy="3" r="3"/></g>
<g transform="translate(88,594) scale(3.7766666666667)"><path d="M6,6H3C1.3,6,0,4.7,0,3V0l6,0V6z"/></g>
<g transform="translate(110,594) scale(3.7766666666667)"><path d="M3,6H0V0l3,0c1.7,0,3,1.3,3,3v0C6,4.7,4.7,6,3,6z"/></g>
<g transform="translate(220,594) scale(3.7766666666667)"><path d="M6,6H3C1.3,6,0,4.7,0,3V0l6,0V6z"/></g>
<g transform="translate(242,594) scale(3.7766666666667)"><rect width="6" height="6"/></g>
<g transform="translate(264,594) scale(3.7766666666667)"><rect width="6" height="6"/></g>
<g transform="translate(308,594) scale(3.7766666666667)"><path d="M6,6H3C1.3,6,0,4.7,0,3v0c0-1.7,1.3-3,3-3h3C6,0,6,6,6,6z"/></g>
<g transform="translate(330,594) scale(3.7766666666667)"><rect width="6" height="6"/></g>
<g transform="translate(352,594) scale(3.7766666666667)"><rect width="6" height="6"/></g>
<g transform="translate(374,594) scale(3.7766666666667)"><path d="M3,6H0V0l6,0v3C6,4.7,4.7,6,3,6z"/></g>
<g transform="translate(418,594) scale(3.7766666666667)"><path d="M6,6H0V3c0-1.7,1.3-3,3-3l3,0V6z"/></g>
<g transform="translate(440,594) scale(3.7766666666667)"><rect width="6" height="6"/></g>
<g transform="translate(462,594) scale(3.7766666666667)"><rect width="6" height="6"/></g>
<g transform="translate(484,594) scale(3.7766666666667)"><path d="M3,6H0V0l3,0c1.7,0,3,1.3,3,3v0C6,4.7,4.7,6,3,6z"/></g>
<g transform="translate(528,594) scale(3.7766666666667)"><path d="M6,6H0V3c0-1.7,1.3-3,3-3l3,0V6z"/></g>
<g transform="translate(550,594) scale(3.7766666666667)"><rect width="6" height="6"/></g>
<g transform="translate(572,594) scale(3.7766666666667)"><rect width="6" height="6"/></g>
<g transform="translate(594,594) scale(3.7766666666667)"><rect width="6" height="6"/></g>
<g transform="translate(616,594) scale(3.7766666666667)"><rect width="6" height="6"/></g>
<g transform="translate(638,594) scale(3.7766666666667)"><rect width="6" height="6"/></g>
<g transform="translate(660,594) scale(3.7766666666667)"><path d="M3,6H0V0l6,0v3C6,4.7,4.7,6,3,6z"/></g>
<g transform="translate(726,594) scale(3.7766666666667)"><rect width="6" height="6"/></g>
<g transform="translate(770,594) scale(3.7766666666667)"><path d="M6,6H3C1.3,6,0,4.7,0,3v0c0-1.7,1.3-3,3-3h3C6,0,6,6,6,6z"/></g>
<g transform="translate(792,594) scale(3.7766666666667)"><rect width="6" height="6"/></g>
<g transform="translate(814,594) scale(3.7766666666667)"><rect width="6" height="6"/></g>
<g transform="translate(836,594) scale(3.7766666666667)"><rect width="6" height="6"/></g>
<g transform="translate(858,594) scale(3.7766666666667)"><path d="M3,6H0V0l6,0v3C6,4.7,4.7,6,3,6z"/></g>
<g transform="translate(924,594) scale(3.7766666666667)"><circle cx="3" cy="3" r="3"/></g>
<g transform="translate(66,616) scale(3.7766666666667)"><circle cx="3" cy="3" r="3"/></g>
<g transform="translate(176,616) scale(3.7766666666667)"><path d="M6,6H3C1.3,6,0,4.7,0,3v0c0-1.7,1.3-3,3-3h3C6,0,6,6,6,6z"/></g>
<g transform="translate(198,616) scale(3.7766666666667)"><path d="M6,6H0V0l3,0c1.7,0,3,1.3,3,3V6z"/></g>
<g transform="translate(242,616) scale(3.7766666666667)"><path d="M6,6H3C1.3,6,0,4.7,0,3V0l6,0V6z"/></g>
<g transform="translate(264,616) scale(3.7766666666667)"><rect width="6" height="6"/></g>
<g transform="translate(286,616) scale(3.7766666666667)"><path d="M3,6H0V0l3,0c1.7,0,3,1.3,3,3v0C6,4.7,4.7,6,3,6z"/></g>
<g transform="translate(352,616) scale(3.7766666666667)"><rect width="6" height="6"/></g>
<g transform="translate(396,616) scale(3.7766666666667)"><path d="M6,6H0V3c0-1.7,1.3-3,3-3l3,0V6z"/></g>
<g transform="translate(418,616) scale(3.7766666666667)"><rect width="6" height="6"/></g>
<g transform="translate(440,616) scale(3.7766666666667)"><rect width="6" height="6"/></g>
<g transform="translate(462,616) scale(3.7766666666667)"><rect width="6" height="6"/></g>
<g transform="translate(506,616) scale(3.7766666666667)"><path d="M6,6H0V3c0-1.7,1.3-3,3-3l3,0V6z"/></g>
<g transform="translate(528,616) scale(3.7766666666667)"><rect width="6" height="6"/></g>
<g transform="translate(572,616) scale(3.7766666666667)"><path d="M3,6L3,6C1.3,6,0,4.7,0,3V0h6v3C6,4.7,4.7,6,3,6z"/></g>
<g transform="translate(704,616) scale(3.7766666666667)"><path d="M6,6H0V3c0-1.7,1.3-3,3-3l3,0V6z"/></g>
<g transform="translate(726,616) scale(3.7766666666667)"><rect width="6" height="6"/></g>
<g transform="translate(748,616) scale(3.7766666666667)"><path d="M3,6H0V0l3,0c1.7,0,3,1.3,3,3v0C6,4.7,4.7,6,3,6z"/></g>
<g transform="translate(792,616) scale(3.7766666666667)"><rect width="6" height="6"/></g>
<g transform="translate(836,616) scale(3.7766666666667)"><rect width="6" height="6"/></g>
<g transform="translate(44,638) scale(3.7766666666667)"><circle cx="3" cy="3" r="3"/></g>
<g transform="translate(132,638) scale(3.7766666666667)"><path d="M6,6H0V3c0-1.7,1.3-3,3-3l3,0V6z"/></g>
<g transform="translate(154,638) scale(3.7766666666667)"><path d="M3,6H0V0l3,0c1.7,0,3,1.3,3,3v0C6,4.7,4.7,6,3,6z"/></g>
<g transform="translate(198,638) scale(3.7766666666667)"><path d="M3,6L3,6C1.3,6,0,4.7,0,3V0h6v3C6,4.7,4.7,6,3,6z"/></g>
<g transform="translate(330,638) scale(3.7766666666667)"><path d="M6,6H0V3c0-1.7,1.3-3,3-3l3,0V6z"/></g>
<g transform="translate(352,638) scale(3.7766666666667)"><rect width="6" height="6"/></g>
<g transform="translate(374,638) scale(3.7766666666667)"><rect width="6" height="6"/></g>
<g transform="translate(396,638) scale(3.7766666666667)"><rect width="6" height="6"/></g>
<g transform="translate(418,638) scale(3.7766666666667)"><rect width="6" height="6"/></g>
<g transform="translate(440,638) scale(3.7766666666667)"><rect width="6" height="6"/></g>
<g transform="translate(462,638) scale(3.7766666666667)"><rect width="6" height="6"/></g>
<g transform="translate(484,638) scale(3.7766666666667)"><rect width="6" height="6"/></g>
<g transform="translate(506,638) scale(3.7766666666667)"><rect width="6" height="6"/></g>
<g transform="translate(528,638) scale(3.7766666666667)"><rect width="6" height="6"/></g>
<g transform="translate(616,638) scale(3.7766666666667)"><path d="M6,6H3C1.3,6,0,4.7,0,3v0c0-1.7,1.3-3,3-3h3C6,0,6,6,6,6z"/></g>
<g transform="translate(638,638) scale(3.7766666666667)"><rect width="6" height="6"/></g>
<g transform="translate(660,638) scale(3.7766666666667)"><rect width="6" height="6"/></g>
<g transform="translate(682,638) scale(3.7766666666667)"><rect width="6" height="6"/></g>
<g transform="translate(704,638) scale(3.7766666666667)"><path d="M3,6H0V0l6,0v3C6,4.7,4.7,6,3,6z"/></g>
<g transform="translate(770,638) scale(3.7766666666667)"><path d="M6,6H3C1.3,6,0,4.7,0,3v0c0-1.7,1.3-3,3-3h3C6,0,6,6,6,6z"/></g>
<g transform="translate(792,638) scale(3.7766666666667)"><rect width="6" height="6"/></g>
<g transform="translate(814,638) scale(3.7766666666667)"><rect width="6" height="6"/></g>
<g transform="translate(836,638) scale(3.7766666666667)"><rect width="6" height="6"/></g>
<g transform="translate(132,660) scale(3.7766666666667)"><path d="M3,6L3,6C1.3,6,0,4.7,0,3V0h6v3C6,4.7,4.7,6,3,6z"/></g>
<g transform="translate(176,660) scale(3.7766666666667)"><circle cx="3" cy="3" r="3"/></g>
<g transform="translate(220,660) scale(3.7766666666667)"><circle cx="3" cy="3" r="3"/></g>
<g transform="translate(264,660) scale(3.7766666666667)"><path d="M6,6H3C1.3,6,0,4.7,0,3v0c0-1.7,1.3-3,3-3h3C6,0,6,6,6,6z"/></g>
<g transform="translate(286,660) scale(3.7766666666667)"><path d="M6,6H0V0l3,0c1.7,0,3,1.3,3,3V6z"/></g>
<g transform="translate(330,660) scale(3.7766666666667)"><path d="M6,6H3C1.3,6,0,4.7,0,3V0l6,0V6z"/></g>
<g transform="translate(352,660) scale(3.7766666666667)"><rect width="6" height="6"/></g>
<g transform="translate(374,660) scale(3.7766666666667)"><rect width="6" height="6"/></g>
<g transform="translate(418,660) scale(3.7766666666667)"><rect width="6" height="6"/></g>
<g transform="translate(440,660) scale(3.7766666666667)"><path d="M3,6H0V0l6,0v3C6,4.7,4.7,6,3,6z"/></g>
<g transform="translate(506,660) scale(3.7766666666667)"><path d="M6,6H3C1.3,6,0,4.7,0,3V0l6,0V6z"/></g>
<g transform="translate(528,660) scale(3.7766666666667)"><path d="M3,6H0V0l6,0v3C6,4.7,4.7,6,3,6z"/></g>
<g transform="translate(726,660) scale(3.7766666666667)"><path d="M6,6H3C1.3,6,0,4.7,0,3v0c0-1.7,1.3-3,3-3h3C6,0,6,6,6,6z"/></g>
<g transform="translate(748,660) scale(3.7766666666667)"><path d="M3,6H0V0l3,0c1.7,0,3,1.3,3,3v0C6,4.7,4.7,6,3,6z"/></g>
<g transform="translate(792,660) scale(3.7766666666667)"><path d="M6,6H3C1.3,6,0,4.7,0,3V0l6,0V6z"/></g>
<g transform="translate(814,660) scale(3.7766666666667)"><rect width="6" height="6"/></g>
<g transform="translate(836,660) scale(3.7766666666667)"><rect width="6" height="6"/></g>
<g transform="translate(858,660) scale(3.7766666666667)"><path d="M3,6H0V0l3,0c1.7,0,3,1.3,3,3v0C6,4.7,4.7,6,3,6z"/></g>
<g transform="translate(902,660) scale(3.7766666666667)"><path d="M6,6H0V3c0-1.7,1.3-3,3-3l3,0V6z"/></g>
<g transform="translate(924,660) scale(3.7766666666667)"><path d="M3,6H0V0l3,0c1.7,0,3,1.3,3,3v0C6,4.7,4.7,6,3,6z"/></g>
<g transform="translate(44,682) scale(3.7766666666667)"><path d="M6,6H0V3c0-1.7,1.3-3,3-3l3,0V6z"/></g>
<g transform="translate(66,682) scale(3.7766666666667)"><rect width="6" height="6"/></g>
<g transform="translate(88,682) scale(3.7766666666667)"><rect width="6" height="6"/></g>
<g transform="translate(110,682) scale(3.7766666666667)"><path d="M3,6H0V0l3,0c1.7,0,3,1.3,3,3v0C6,4.7,4.7,6,3,6z"/></g>
<g transform="translate(198,682) scale(3.7766666666667)"><path d="M6,6H0V3c0-1.7,1.3-3,3-3h0c1.7,0,3,1.3,3,3V6z"/></g>
<g transform="translate(286,682) scale(3.7766666666667)"><path d="M3,6L3,6C1.3,6,0,4.7,0,3V0h6v3C6,4.7,4.7,6,3,6z"/></g>
<g transform="translate(374,682) scale(3.7766666666667)"><path d="M3,6L3,6C1.3,6,0,4.7,0,3V0h6v3C6,4.7,4.7,6,3,6z"/></g>
<g transform="translate(418,682) scale(3.7766666666667)"><path d="M3,6L3,6C1.3,6,0,4.7,0,3V0h6v3C6,4.7,4.7,6,3,6z"/></g>
<g transform="translate(462,682) scale(3.7766666666667)"><circle cx="3" cy="3" r="3"/></g>
<g transform="translate(550,682) scale(3.7766666666667)"><path d="M6,6H0V3c0-1.7,1.3-3,3-3l3,0V6z"/></g>
<g transform="translate(572,682) scale(3.7766666666667)"><rect width="6" height="6"/></g>
<g transform="translate(594,682) scale(3.7766666666667)"><rect width="6" height="6"/></g>
<g transform="translate(616,682) scale(3.7766666666667)"><rect width="6" height="6"/></g>
<g transform="translate(638,682) scale(3.7766666666667)"><rect width="6" height="6"/></g>
<g transform="translate(660,682) scale(3.7766666666667)"><rect width="6" height="6"/></g>
<g transform="translate(682,682) scale(3.7766666666667)"><path d="M3,6H0V0l3,0c1.7,0,3,1.3,3,3v0C6,4.7,4.7,6,3,6z"/></g>
<g transform="translate(770,682) scale(3.7766666666667)"><path d="M6,6H0V3c0-1.7,1.3-3,3-3h0c1.7,0,3,1.3,3,3V6z"/></g>
<g transform="translate(814,682) scale(3.7766666666667)"><path d="M3,6L3,6C1.3,6,0,4.7,0,3V0h6v3C6,4.7,4.7,6,3,6z"/></g>
<g transform="translate(902,682) scale(3.7766666666667)"><path d="M3,6L3,6C1.3,6,0,4.7,0,3V0h6v3C6,4.7,4.7,6,3,6z"/></g>
<g transform="translate(44,704) scale(3.7766666666667)"><rect width="6" height="6"/></g>
<g transform="translate(88,704) scale(3.7766666666667)"><rect width="6" height="6"/></g>
<g transform="translate(176,704) scale(3.7766666666667)"><path d="M6,6H3C1.3,6,0,4.7,0,3v0c0-1.7,1.3-3,3-3h3C6,0,6,6,6,6z"/></g>
<g transform="translate(198,704) scale(3.7766666666667)"><path d="M3,6H0V0l6,0v3C6,4.7,4.7,6,3,6z"/></g>
<g transform="translate(396,704) scale(3.7766666666667)"><circle cx="3" cy="3" r="3"/></g>
<g transform="translate(506,704) scale(3.7766666666667)"><path d="M6,6H0V3c0-1.7,1.3-3,3-3h0c1.7,0,3,1.3,3,3V6z"/></g>
<g transform="translate(550,704) scale(3.7766666666667)"><rect width="6" height="6"/></g>
<g transform="translate(594,704) scale(3.7766666666667)"><path d="M3,6L3,6C1.3,6,0,4.7,0,3V0h6v3C6,4.7,4.7,6,3,6z"/></g>
<g transform="translate(748,704) scale(3.7766666666667)"><path d="M6,6H3C1.3,6,0,4.7,0,3v0c0-1.7,1.3-3,3-3h3C6,0,6,6,6,6z"/></g>
<g transform="translate(770,704) scale(3.7766666666667)"><rect width="6" height="6"/></g>
<g transform="translate(792,704) scale(3.7766666666667)"><path d="M3,6H0V0l3,0c1.7,0,3,1.3,3,3v0C6,4.7,4.7,6,3,6z"/></g>
<g transform="translate(836,704) scale(3.7766666666667)"><path d="M6,6H0V3c0-1.7,1.3-3,3-3l3,0V6z"/></g>
<g transform="translate(858,704) scale(3.7766666666667)"><path d="M6,6H0V0l3,0c1.7,0,3,1.3,3,3V6z"/></g>
<g transform="translate(44,726) scale(3.7766666666667)"><rect width="6" height="6"/></g>
<g transform="translate(88,726) scale(3.7766666666667)"><path d="M6,6H3C1.3,6,0,4.7,0,3V0l6,0V6z"/></g>
<g transform="translate(110,726) scale(3.7766666666667)"><path d="M6,6H0V0l3,0c1.7,0,3,1.3,3,3V6z"/></g>
<g transform="translate(220,726) scale(3.7766666666667)"><path d="M6,6H3C1.3,6,0,4.7,0,3v0c0-1.7,1.3-3,3-3h3C6,0,6,6,6,6z"/></g>
<g transform="translate(242,726) scale(3.7766666666667)"><rect width="6" height="6"/></g>
<g transform="translate(264,726) scale(3.7766666666667)"><path d="M6,6H0V0l3,0c1.7,0,3,1.3,3,3V6z"/></g>
<g transform="translate(330,726) scale(3.7766666666667)"><path d="M6,6H0V3c0-1.7,1.3-3,3-3l3,0V6z"/></g>
<g transform="translate(352,726) scale(3.7766666666667)"><path d="M3,6H0V0l3,0c1.7,0,3,1.3,3,3v0C6,4.7,4.7,6,3,6z"/></g>
<g transform="translate(440,726) scale(3.7766666666667)"><path d="M6,6H3C1.3,6,0,4.7,0,3v0c0-1.7,1.3-3,3-3h3C6,0,6,6,6,6z"/></g>
<g transform="translate(462,726) scale(3.7766666666667)"><rect width="6" height="6"/></g>
<g transform="translate(484,726) scale(3.7766666666667)"><rect width="6" height="6"/></g>
<g transform="translate(506,726) scale(3.7766666666667)"><rect width="6" height="6"/></g>
<g transform="translate(528,726) scale(3.7766666666667)"><rect width="6" height="6"/></g>
<g transform="translate(550,726) scale(3.7766666666667)"><rect width="6" height="6"/></g>
<g transform="translate(616,726) scale(3.7766666666667)"><path d="M6,6H0V3c0-1.7,1.3-3,3-3h0c1.7,0,3,1.3,3,3V6z"/></g>
<g transform="translate(660,726) scale(3.7766666666667)"><path d="M6,6H0V3c0-1.7,1.3-3,3-3h0c1.7,0,3,1.3,3,3V6z"/></g>
<g transform="translate(704,726) scale(3.7766666666667)"><circle cx="3" cy="3" r="3"/></g>
<g transform="translate(814,726) scale(3.7766666666667)"><path d="M6,6H0V3c0-1.7,1.3-3,3-3l3,0V6z"/></g>
<g transform="translate(836,726) scale(3.7766666666667)"><rect width="6" height="6"/></g>
<g transform="translate(858,726) scale(3.7766666666667)"><rect width="6" height="6"/></g>
<g transform="translate(880,726) scale(3.7766666666667)"><rect width="6" height="6"/></g>
<g transform="translate(902,726) scale(3.7766666666667)"><rect width="6" height="6"/></g>
<g transform="translate(924,726) scale(3.7766666666667)"><path d="M3,6H0V0l3,0c1.7,0,3,1.3,3,3v0C6,4.7,4.7,6,3,6z"/></g>
<g transform="translate(44,748) scale(3.7766666666667)"><path d="M3,6L3,6C1.3,6,0,4.7,0,3V0h6v3C6,4.7,4.7,6,3,6z"/></g>
<g transform="translate(110,748) scale(3.7766666666667)"><path d="M6,6H3C1.3,6,0,4.7,0,3V0l6,0V6z"/></g>
<g transform="translate(132,748) scale(3.7766666666667)"><rect width="6" height="6"/></g>
<g transform="translate(154,748) scale(3.7766666666667)"><rect width="6" height="6"/></g>
<g transform="translate(176,748) scale(3.7766666666667)"><path d="M3,6H0V0l3,0c1.7,0,3,1.3,3,3v0C6,4.7,4.7,6,3,6z"/></g>
<g transform="translate(242,748) scale(3.7766666666667)"><rect width="6" height="6"/></g>
<g transform="translate(264,748) scale(3.7766666666667)"><rect width="6" height="6"/></g>
<g transform="translate(286,748) scale(3.7766666666667)"><path d="M3,6H0V0l3,0c1.7,0,3,1.3,3,3v0C6,4.7,4.7,6,3,6z"/></g>
<g transform="translate(330,748) scale(3.7766666666667)"><rect width="6" height="6"/></g>
<g transform="translate(396,748) scale(3.7766666666667)"><circle cx="3" cy="3" r="3"/></g>
<g transform="translate(506,748) scale(3.7766666666667)"><path d="M6,6H3C1.3,6,0,4.7,0,3V0l6,0V6z"/></g>
<g transform="translate(528,748) scale(3.7766666666667)"><rect width="6" height="6"/></g>
<g transform="translate(550,748) scale(3.7766666666667)"><path d="M3,6H0V0l6,0v3C6,4.7,4.7,6,3,6z"/></g>
<g transform="translate(616,748) scale(3.7766666666667)"><path d="M3,6L3,6C1.3,6,0,4.7,0,3V0h6v3C6,4.7,4.7,6,3,6z"/></g>
<g transform="translate(660,748) scale(3.7766666666667)"><rect width="6" height="6"/></g>
<g transform="translate(748,748) scale(3.7766666666667)"><path d="M6,6H0V3c0-1.7,1.3-3,3-3l3,0V6z"/></g>
<g transform="translate(770,748) scale(3.7766666666667)"><rect width="6" height="6"/></g>
<g transform="translate(792,748) scale(3.7766666666667)"><rect width="6" height="6"/></g>
<g transform="translate(814,748) scale(3.7766666666667)"><rect width="6" height="6"/></g>
<g transform="translate(836,748) scale(3.7766666666667)"><rect width="6" height="6"/></g>
<g transform="translate(220,770) scale(3.7766666666667)"><path d="M6,6H3C1.3,6,0,4.7,0,3v0c0-1.7,1.3-3,3-3h3C6,0,6,6,6,6z"/></g>
<g transform="translate(242,770) scale(3.7766666666667)"><path d="M3,6H0V0l6,0v3C6,4.7,4.7,6,3,6z"/></g>
<g transform="translate(330,770) scale(3.7766666666667)"><path d="M6,6H3C1.3,6,0,4.7,0,3V0l6,0V6z"/></g>
<g transform="translate(352,770) scale(3.7766666666667)"><path d="M6,6H0V0l3,0c1.7,0,3,1.3,3,3V6z"/></g>
<g transform="translate(418,770) scale(3.7766666666667)"><path d="M6,6H0V3c0-1.7,1.3-3,3-3h0c1.7,0,3,1.3,3,3V6z"/></g>
<g transform="translate(484,770) scale(3.7766666666667)"><path d="M6,6H0V3c0-1.7,1.3-3,3-3h0c1.7,0,3,1.3,3,3V6z"/></g>
<g transform="translate(572,770) scale(3.7766666666667)"><circle cx="3" cy="3" r="3"/></g>
<g transform="translate(638,770) scale(3.7766666666667)"><path d="M6,6H0V3c0-1.7,1.3-3,3-3l3,0V6z"/></g>
<g transform="translate(660,770) scale(3.7766666666667)"><path d="M3,6H0V0l6,0v3C6,4.7,4.7,6,3,6z"/></g>
<g transform="translate(726,770) scale(3.7766666666667)"><path d="M6,6H0V3c0-1.7,1.3-3,3-3l3,0V6z"/></g>
<g transform="translate(748,770) scale(3.7766666666667)"><rect width="6" height="6"/></g>
<g transform="translate(836,770) scale(3.7766666666667)"><rect width="6" height="6"/></g>
<g transform="translate(902,770) scale(3.7766666666667)"><path d="M6,6H3C1.3,6,0,4.7,0,3v0c0-1.7,1.3-3,3-3h3C6,0,6,6,6,6z"/></g>
<g transform="translate(924,770) scale(3.7766666666667)"><path d="M3,6H0V0l3,0c1.7,0,3,1.3,3,3v0C6,4.7,4.7,6,3,6z"/></g>
<g transform="translate(264,792) scale(3.7766666666667)"><path d="M6,6H0V3c0-1.7,1.3-3,3-3h0c1.7,0,3,1.3,3,3V6z"/></g>
<g transform="translate(352,792) scale(3.7766666666667)"><path d="M3,6L3,6C1.3,6,0,4.7,0,3V0h6v3C6,4.7,4.7,6,3,6z"/></g>
<g transform="translate(396,792) scale(3.7766666666667)"><path d="M6,6H0V3c0-1.7,1.3-3,3-3l3,0V6z"/></g>
<g transform="translate(418,792) scale(3.7766666666667)"><rect width="6" height="6"/></g>
<g transform="translate(440,792) scale(3.7766666666667)"><rect width="6" height="6"/></g>
<g transform="translate(462,792) scale(3.7766666666667)"><rect width="6" height="6"/></g>
<g transform="translate(484,792) scale(3.7766666666667)"><path d="M3,6H0V0l6,0v3C6,4.7,4.7,6,3,6z"/></g>
<g transform="translate(528,792) scale(3.7766666666667)"><path d="M6,6H0V3c0-1.7,1.3-3,3-3l3,0V6z"/></g>
<g transform="translate(550,792) scale(3.7766666666667)"><path d="M3,6H0V0l3,0c1.7,0,3,1.3,3,3v0C6,4.7,4.7,6,3,6z"/></g>
<g transform="translate(594,792) scale(3.7766666666667)"><circle cx="3" cy="3" r="3"/></g>
<g transform="translate(638,792) scale(3.7766666666667)"><path d="M3,6L3,6C1.3,6,0,4.7,0,3V0h6v3C6,4.7,4.7,6,3,6z"/></g>
<g transform="translate(704,792) scale(3.7766666666667)"><path d="M6,6H3C1.3,6,0,4.7,0,3v0c0-1.7,1.3-3,3-3h3C6,0,6,6,6,6z"/></g>
<g transform="translate(726,792) scale(3.7766666666667)"><rect width="6" height="6"/></g>
<g transform="translate(748,792) scale(3.7766666666667)"><rect width="6" height="6"/></g>
<g transform="translate(792,792) scale(3.7766666666667)"><circle cx="3" cy="3" r="3"/></g>
<g transform="translate(836,792) scale(3.7766666666667)"><rect width="6" height="6"/></g>
<g transform="translate(880,792) scale(3.7766666666667)"><circle cx="3" cy="3" r="3"/></g>
<g transform="translate(242,814) scale(3.7766666666667)"><path d="M6,6H3C1.3,6,0,4.7,0,3v0c0-1.7,1.3-3,3-3h3C6,0,6,6,6,6z"/></g>
<g transform="translate(264,814) scale(3.7766666666667)"><rect width="6" height="6"/></g>
<g transform="translate(308,814) scale(3.7766666666667)"><path d="M6,6H3C1.3,6,0,4.7,0,3v0c0-1.7,1.3-3,3-3h3C6,0,6,6,6,6z"/></g>
<g transform="translate(330,814) scale(3.7766666666667)"><path d="M6,6H0V0l3,0c1.7,0,3,1.3,3,3V6z"/></g>
<g transform="translate(396,814) scale(3.7766666666667)"><path d="M3,6L3,6C1.3,6,0,4.7,0,3V0h6v3C6,4.7,4.7,6,3,6z"/></g>
<g transform="translate(528,814) scale(3.7766666666667)"><rect width="6" height="6"/></g>
<g transform="translate(616,814) scale(3.7766666666667)"><circle cx="3" cy="3" r="3"/></g>
<g transform="translate(726,814) scale(3.7766666666667)"><path d="M6,6H3C1.3,6,0,4.7,0,3V0l6,0V6z"/></g>
<g transform="translate(748,814) scale(3.7766666666667)"><rect width="6" height="6"/></g>
<g transform="translate(836,814) scale(3.7766666666667)"><rect width="6" height="6"/></g>
<g transform="translate(858,814) scale(3.7766666666667)"><path d="M3,6H0V0l3,0c1.7,0,3,1.3,3,3v0C6,4.7,4.7,6,3,6z"/></g>
<g transform="translate(220,836) scale(3.7766666666667)"><path d="M6,6H0V3c0-1.7,1.3-3,3-3h0c1.7,0,3,1.3,3,3V6z"/></g>
<g transform="translate(264,836) scale(3.7766666666667)"><rect width="6" height="6"/></g>
<g transform="translate(286,836) scale(3.7766666666667)"><path d="M3,6H0V0l3,0c1.7,0,3,1.3,3,3v0C6,4.7,4.7,6,3,6z"/></g>
<g transform="translate(330,836) scale(3.7766666666667)"><path d="M6,6H3C1.3,6,0,4.7,0,3V0l6,0V6z"/></g>
<g transform="translate(352,836) scale(3.7766666666667)"><path d="M6,6H0V0l3,0c1.7,0,3,1.3,3,3V6z"/></g>
<g transform="translate(440,836) scale(3.7766666666667)"><path d="M6,6H3C1.3,6,0,4.7,0,3v0c0-1.7,1.3-3,3-3h3C6,0,6,6,6,6z"/></g>
<g transform="translate(462,836) scale(3.7766666666667)"><rect width="6" height="6"/></g>
<g transform="translate(484,836) scale(3.7766666666667)"><rect width="6" height="6"/></g>
<g transform="translate(506,836) scale(3.7766666666667)"><rect width="6" height="6"/></g>
<g transform="translate(528,836) scale(3.7766666666667)"><rect width="6" height="6"/></g>
<g transform="translate(572,836) scale(3.7766666666667)"><path d="M6,6H0V3c0-1.7,1.3-3,3-3l3,0V6z"/></g>
<g transform="translate(594,836) scale(3.7766666666667)"><path d="M3,6H0V0l3,0c1.7,0,3,1.3,3,3v0C6,4.7,4.7,6,3,6z"/></g>
<g transform="translate(704,836) scale(3.7766666666667)"><circle cx="3" cy="3" r="3"/></g>
<g transform="translate(748,836) scale(3.7766666666667)"><path d="M6,6H3C1.3,6,0,4.7,0,3V0l6,0V6z"/></g>
<g transform="translate(770,836) scale(3.7766666666667)"><rect width="6" height="6"/></g>
<g transform="translate(792,836) scale(3.7766666666667)"><rect width="6" height="6"/></g>
<g transform="translate(814,836) scale(3.7766666666667)"><rect width="6" height="6"/></g>
<g transform="translate(836,836) scale(3.7766666666667)"><path d="M3,6H0V0l6,0v3C6,4.7,4.7,6,3,6z"/></g>
<g transform="translate(902,836) scale(3.7766666666667)"><path d="M6,6H0V3c0-1.7,1.3-3,3-3l3,0V6z"/></g>
<g transform="translate(924,836) scale(3.7766666666667)"><path d="M3,6H0V0l3,0c1.7,0,3,1.3,3,3v0C6,4.7,4.7,6,3,6z"/></g>
<g transform="translate(220,858) scale(3.7766666666667)"><rect width="6" height="6"/></g>
<g transform="translate(242,858) scale(3.7766666666667)"><rect width="6" height="6"/></g>
<g transform="translate(264,858) scale(3.7766666666667)"><rect width="6" height="6"/></g>
<g transform="translate(308,858) scale(3.7766666666667)"><path d="M6,6H0V3c0-1.7,1.3-3,3-3h0c1.7,0,3,1.3,3,3V6z"/></g>
<g transform="translate(352,858) scale(3.7766666666667)"><rect width="6" height="6"/></g>
<g transform="translate(374,858) scale(3.7766666666667)"><rect width="6" height="6"/></g>
<g transform="translate(396,858) scale(3.7766666666667)"><rect width="6" height="6"/></g>
<g transform="translate(418,858) scale(3.7766666666667)"><path d="M3,6H0V0l3,0c1.7,0,3,1.3,3,3v0C6,4.7,4.7,6,3,6z"/></g>
<g transform="translate(462,858) scale(3.7766666666667)"><rect width="6" height="6"/></g>
<g transform="translate(506,858) scale(3.7766666666667)"><rect width="6" height="6"/></g>
<g transform="translate(528,858) scale(3.7766666666667)"><rect width="6" height="6"/></g>
<g transform="translate(550,858) scale(3.7766666666667)"><rect width="6" height="6"/></g>
<g transform="translate(572,858) scale(3.7766666666667)"><path d="M3,6H0V0l6,0v3C6,4.7,4.7,6,3,6z"/></g>
<g transform="translate(616,858) scale(3.7766666666667)"><circle cx="3" cy="3" r="3"/></g>
<g transform="translate(682,858) scale(3.7766666666667)"><circle cx="3" cy="3" r="3"/></g>
<g transform="translate(792,858) scale(3.7766666666667)"><path d="M3,6L3,6C1.3,6,0,4.7,0,3V0h6v3C6,4.7,4.7,6,3,6z"/></g>
<g transform="translate(880,858) scale(3.7766666666667)"><path d="M6,6H3C1.3,6,0,4.7,0,3v0c0-1.7,1.3-3,3-3h3C6,0,6,6,6,6z"/></g>
<g transform="translate(902,858) scale(3.7766666666667)"><rect width="6" height="6"/></g>
<g transform="translate(220,880) scale(3.7766666666667)"><path d="M6,6H3C1.3,6,0,4.7,0,3V0l6,0V6z"/></g>
<g transform="translate(242,880) scale(3.7766666666667)"><rect width="6" height="6"/></g>
<g transform="translate(264,880) scale(3.7766666666667)"><path d="M3,6H0V0l6,0v3C6,4.7,4.7,6,3,6z"/></g>
<g transform="translate(308,880) scale(3.7766666666667)"><rect width="6" height="6"/></g>
<g transform="translate(352,880) scale(3.7766666666667)"><rect width="6" height="6"/></g>
<g transform="translate(374,880) scale(3.7766666666667)"><rect width="6" height="6"/></g>
<g transform="translate(440,880) scale(3.7766666666667)"><path d="M6,6H3C1.3,6,0,4.7,0,3v0c0-1.7,1.3-3,3-3h3C6,0,6,6,6,6z"/></g>
<g transform="translate(462,880) scale(3.7766666666667)"><rect width="6" height="6"/></g>
<g transform="translate(484,880) scale(3.7766666666667)"><rect width="6" height="6"/></g>
<g transform="translate(506,880) scale(3.7766666666667)"><rect width="6" height="6"/></g>
<g transform="translate(528,880) scale(3.7766666666667)"><rect width="6" height="6"/></g>
<g transform="translate(550,880) scale(3.7766666666667)"><path d="M3,6H0V0l6,0v3C6,4.7,4.7,6,3,6z"/></g>
<g transform="translate(594,880) scale(3.7766666666667)"><path d="M6,6H0V3c0-1.7,1.3-3,3-3h0c1.7,0,3,1.3,3,3V6z"/></g>
<g transform="translate(748,880) scale(3.7766666666667)"><circle cx="3" cy="3" r="3"/></g>
<g transform="translate(814,880) scale(3.7766666666667)"><circle cx="3" cy="3" r="3"/></g>
<g transform="translate(858,880) scale(3.7766666666667)"><path d="M6,6H0V3c0-1.7,1.3-3,3-3h0c1.7,0,3,1.3,3,3V6z"/></g>
<g transform="translate(902,880) scale(3.7766666666667)"><rect width="6" height="6"/></g>
<g transform="translate(242,902) scale(3.7766666666667)"><path d="M3,6L3,6C1.3,6,0,4.7,0,3V0h6v3C6,4.7,4.7,6,3,6z"/></g>
<g transform="translate(308,902) scale(3.7766666666667)"><rect width="6" height="6"/></g>
<g transform="translate(352,902) scale(3.7766666666667)"><path d="M6,6H3C1.3,6,0,4.7,0,3V0l6,0V6z"/></g>
<g transform="translate(374,902) scale(3.7766666666667)"><path d="M3,6H0V0l6,0v3C6,4.7,4.7,6,3,6z"/></g>
<g transform="translate(418,902) scale(3.7766666666667)"><circle cx="3" cy="3" r="3"/></g>
<g transform="translate(506,902) scale(3.7766666666667)"><path d="M6,6H3C1.3,6,0,4.7,0,3V0l6,0V6z"/></g>
<g transform="translate(528,902) scale(3.7766666666667)"><path d="M3,6H0V0l6,0v3C6,4.7,4.7,6,3,6z"/></g>
<g transform="translate(572,902) scale(3.7766666666667)"><path d="M6,6H3C1.3,6,0,4.7,0,3v0c0-1.7,1.3-3,3-3h3C6,0,6,6,6,6z"/></g>
<g transform="translate(594,902) scale(3.7766666666667)"><rect width="6" height="6"/></g>
<g transform="translate(638,902) scale(3.7766666666667)"><circle cx="3" cy="3" r="3"/></g>
<g transform="translate(682,902) scale(3.7766666666667)"><circle cx="3" cy="3" r="3"/></g>
<g transform="translate(726,902) scale(3.7766666666667)"><path d="M6,6H0V3c0-1.7,1.3-3,3-3h0c1.7,0,3,1.3,3,3V6z"/></g>
<g transform="translate(770,902) scale(3.7766666666667)"><path d="M6,6H3C1.3,6,0,4.7,0,3v0c0-1.7,1.3-3,3-3h3C6,0,6,6,6,6z"/></g>
<g transform="translate(792,902) scale(3.7766666666667)"><path d="M3,6H0V0l3,0c1.7,0,3,1.3,3,3v0C6,4.7,4.7,6,3,6z"/></g>
<g transform="translate(836,902) scale(3.7766666666667)"><path d="M6,6H3C1.3,6,0,4.7,0,3v0c0-1.7,1.3-3,3-3h3C6,0,6,6,6,6z"/></g>
<g transform="translate(858,902) scale(3.7766666666667)"><path d="M3,6H0V0l6,0v3C6,4.7,4.7,6,3,6z"/></g>
<g transform="translate(902,902) scale(3.7766666666667)"><rect width="6" height="6"/></g>
<g transform="translate(924,902) scale(3.7766666666667)"><path d="M3,6H0V0l3,0c1.7,0,3,1.3,3,3v0C6,4.7,4.7,6,3,6z"/></g>
<g transform="translate(286,924) scale(3.7766666666667)"><path d="M6,6H3C1.3,6,0,4.7,0,3v0c0-1.7,1.3-3,3-3h3C6,0,6,6,6,6z"/></g>
<g transform="translate(308,924) scale(3.7766666666667)"><rect width="6" height="6"/></g>
<g transform="translate(330,924) scale(3.7766666666667)"><path d="M3,6H0V0l3,0c1.7,0,3,1.3,3,3v0C6,4.7,4.7,6,3,6z"/></g>
<g transform="translate(440,924) scale(3.7766666666667)"><circle cx="3" cy="3" r="3"/></g>
<g transform="translate(550,924) scale(3.7766666666667)"><circle cx="3" cy="3" r="3"/></g>
<g transform="translate(594,924) scale(3.7766666666667)"><path d="M3,6L3,6C1.3,6,0,4.7,0,3V0h6v3C6,4.7,4.7,6,3,6z"/></g>
<g transform="translate(660,924) scale(3.7766666666667)"><circle cx="3" cy="3" r="3"/></g>
<g transform="translate(704,924) scale(3.7766666666667)"><path d="M6,6H3C1.3,6,0,4.7,0,3v0c0-1.7,1.3-3,3-3h3C6,0,6,6,6,6z"/></g>
<g transform="translate(726,924) scale(3.7766666666667)"><rect width="6" height="6"/></g>
<g transform="translate(748,924) scale(3.7766666666667)"><path d="M3,6H0V0l3,0c1.7,0,3,1.3,3,3v0C6,4.7,4.7,6,3,6z"/></g>
<g transform="translate(814,924) scale(3.7766666666667)"><circle cx="3" cy="3" r="3"/></g>
<g transform="translate(880,924) scale(3.7766666666667)"><path d="M6,6H3C1.3,6,0,4.7,0,3v0c0-1.7,1.3-3,3-3h3C6,0,6,6,6,6z"/></g>
<g transform="translate(902,924) scale(3.7766666666667)"><path d="M3,6H0V0l6,0v3C6,4.7,4.7,6,3,6z"/></g>
</g><g ><g transform="translate(44,44)"  fill="#000000"><g transform="scale(11)"><path d="M4.5,14h5.1C12,14,14,12,14,9.6V4.5C14,2,12,0,9.5,0H4.4C2,0,0,2,0,4.4v5.1C0,12,2,14,4.5,14z M12,4.8v4.4 c0,1.5-1.3,2.8-2.8,2.8H4.8C3.2,12,2,10.8,2,9.2V4.8C2,3.3,3.3,2,4.8,2h4.4C10.8,2,12,3.2,12,4.8z"/></g></g>
<g transform="translate(792,44)"  fill="#000000"><g transform="scale(11)"><path d="M4.5,14h5.1C12,14,14,12,14,9.6V4.5C14,2,12,0,9.5,0H4.4C2,0,0,2,0,4.4v5.1C0,12,2,14,4.5,14z M12,4.8v4.4 c0,1.5-1.3,2.8-2.8,2.8H4.8C3.2,12,2,10.8,2,9.2V4.8C2,3.3,3.3,2,4.8,2h4.4C10.8,2,12,3.2,12,4.8z"/></g></g>
<g transform="translate(44,792)"  fill="#000000"><g transform="scale(11)"><path d="M4.5,14h5.1C12,14,14,12,14,9.6V4.5C14,2,12,0,9.5,0H4.4C2,0,0,2,0,4.4v5.1C0,12,2,14,4.5,14z M12,4.8v4.4 c0,1.5-1.3,2.8-2.8,2.8H4.8C3.2,12,2,10.8,2,9.2V4.8C2,3.3,3.3,2,4.8,2h4.4C10.8,2,12,3.2,12,4.8z"/></g></g>
<g transform="translate(88,88)"  fill="#000000"><g transform="scale(11)"><path d="M6,1.7v2.7C6,5.2,5.2,6,4.3,6H1.7C0.7,6,0,5.3,0,4.3V1.7C0,0.8,0.8,0,1.7,0h2.7C5.3,0,6,0.7,6,1.7z"/></g></g>
<g transform="translate(836,88)"  fill="#000000"><g transform="scale(11)"><path d="M6,1.7v2.7C6,5.2,5.2,6,4.3,6H1.7C0.7,6,0,5.3,0,4.3V1.7C0,0.8,0.8,0,1.7,0h2.7C5.3,0,6,0.7,6,1.7z"/></g></g>
<g transform="translate(88,836)"  fill="#000000"><g transform="scale(11)"><path d="M6,1.7v2.7C6,5.2,5.2,6,4.3,6H1.7C0.7,6,0,5.3,0,4.3V1.7C0,0.8,0.8,0,1.7,0h2.7C5.3,0,6,0.7,6,1.7z"/></g></g></g>
</svg>