<svg xmlns="http://www.w3.org/2000/svg" xml:space="preserve" xmlns:xlink="http://www.w3.org/1999/xlink"
     style="max-width: 100%;height: auto;" width="980" height="980" viewBox="0 0 980 980">
<defs><mask id="qrmask"><g fill="#ffffff"><g>
<g transform="translate(200,40) scale(3.4333333333333)"><path d="M6,6H0V3c0-1.7,1.3-3,3-3h0c1.7,0,3,1.3,3,3V6z"/></g>
<g transform="translate(260,40) scale(3.4333333333333)"><path d="M6,6H3C1.3,6,0,4.7,0,3v0c0-1.7,1.3-3,3-3h3C6,0,6,6,6,6z"/></g>
<g transform="translate(280,40) scale(3.4333333333333)"><path d="M6,6H0V0l3,0c1.7,0,3,1.3,3,3V6z"/></g>
<g transform="translate(360,40) scale(3.4333333333333)"><path d="M6,6H3C1.3,6,0,4.7,0,3v0c0-1.7,1.3-3,3-3h3C6,0,6,6,6,6z"/></g>
<g transform="translate(380,40) scale(3.4333333333333)"><rect width="6" height="6"/></g>
<g transform="translate(400,40) scale(3.4333333333333)"><rect width="6" height="6"/></g>
<g transform="translate(420,40) scale(3.4333333333333)"><rect width="6" height="6"/></g>
<g transform="translate(440,40) scale(3.4333333333333)"><path d="M3,6H0V0l3,0c1.7,0,3,1.3,3,3v0C6,4.7,4.7,6,3,6z"/></g>
<g transform="translate(500,40) scale(3.4333333333333)"><path d="M6,6H0V3c0-1.7,1.3-3,3-3l3,0V6z"/></g>
<g transform="translate(520,40) scale(3.4333333333333)"><rect width="6" height="6"/></g>
<g transform="translate(540,40) scale(3.4333333333333)"><path d="M3,6H0V0l3,0c1.7,0,3,1.3,3,3v0C6,4.7,4.7,6,3,6z"/></g>
<g transform="translate(580,40) scale(3.4333333333333)"><path d="M6,6H0V3c0-1.7,1.3-3,3-3l3,0V6z"/></g>
<g transform="translate(600,40) scale(3.4333333333333)"><rect width="6" height="6"/></g>
<g transform="translate(620,40) scale(3.4333333333333)"><rect width="6" height="6"/></g>
<g transform="translate(640,40) scale(3.4333333333333)"><path d="M3,6H0V0l3,0c1.7,0,3,1.3,3,3v0C6,4.7,4.7,6,3,6z"/></g>
<g transform="translate(680,40) scale(3.4333333333333)"><path d="M6,6H3C1.3,6,0,4.7,0,3v0c0-1.7,1.3-3,3-3h3C6,0,6,6,6,6z"/></g>
<g transform="translate(700,40) scale(3.4333333333333)"><path d="M3,6H0V0l3,0c1.7,0,3,1.3,3,3v0C6,4.7,4.7,6,3,6z"/></g>
<g transform="translate(760,40) scale(3.4333333333333)"><circle cx="3" cy="3" r="3"/></g>
<g transform="translate(200,60) scale(3.4333333333333)"><rect width="6" height="6"/></g>
<g transform="translate(240,60) scale(3.4333333333333)"><circle cx="3" cy="3" r="3"/></g>
<g transform="translate(280,60) scale(3.4333333333333)"><path d="M6,6H3C1.3,6,0,4.7,0,3V0l6,0V6z"/></g>
<g transform="translate(300,60) scale(3.4333333333333)"><path d="M3,6H0V0l3,0c1.7,0,3,1.3,3,3v0C6,4.7,4.7,6,3,6z"/></g>
<g transform="translate(380,60) scale(3.4333333333333)"><path d="M6,6H3C1.3,6,0,4.7,0,3V0l6,0V6z"/></g>
<g transform="translate(400,60) scale(3.4333333333333)"><path d="M3,6H0V0l6,0v3C6,4.7,4.7,6,3,6z"/></g>
<g transform="translate(460,60) scale(3.4333333333333)"><path d="M6,6H0V3c0-1.7,1.3-3,3-3h0c1.7,0,3,1.3,3,3V6z"/></g>
<g transform="translate(500,60) scale(3.4333333333333)"><path d="M3,6L3,6C1.3,6,0,4.7,0,3V0h6v3C6,4.7,4.7,6,3,6z"/></g>
<g transform="translate(560,60) scale(3.4333333333333)"><path d="M6,6H3C1.3,6,0,4.7,0,3v0c0-1.7,1.3-3,3-3h3C6,0,6,6,6,6z"/></g>
<g transform="translate(580,60) scale(3.4333333333333)"><rect width="6" height="6"/></g>
<g transform="translate(600,60) scale(3.4333333333333)"><rect width="6" height="6"/></g>
<g transform="translate(620,60) scale(3.4333333333333)"><rect width="6" height="6"/></g>
<g transform="translate(660,60) scale(3.4333333333333)"><path d="M6,6H0V3c0-1.7,1.3-3,3-3h0c1.7,0,3,1.3,3,3V6z"/></g>
<g transform="translate(740,60) scale(3.4333333333333)"><path d="M6,6H0V3c0-1.7,1.3-3,3-3h0c1.7,0,3,1.3,3,3V6z"/></g>
<g transform="translate(200,80) scale(3.4333333333333)"><path d="M3,6L3,6C1.3,6,0,4.7,0,3V0h6v3C6,4.7,4.7,6,3,6z"/></g>
<g transform="translate(260,80) scale(3.4333333333333)"><circle cx="3" cy="3" r="3"/></g>
<g transform="translate(320,80) scale(3.4333333333333)"><path d="M6,6H3C1.3,6,0,4.7,0,3v0c0-1.7,1.3-3,3-3h3C6,0,6,6,6,6z"/></g>
<g transform="translate(340,80) scale(3.4333333333333)"><rect width="6" height="6"/></g>
<g transform="translate(360,80) scale(3.4333333333333)"><path d="M6,6H0V0l3,0c1.7,0,3,1.3,3,3V6z"/></g>
<g transform="translate(440,80) scale(3.4333333333333)"><path d="M6,6H0V3c0-1.7,1.3-3,3-3l3,0V6z"/></g>
<g transform="translate(460,80) scale(3.4333333333333)"><rect width="6" height="6"/></g>
<g transform="translate(480,80) scale(3.4333333333333)"><path d="M6,6H0V0l3,0c1.7,0,3,1.3,3,3V6z"/></g>
<g transform="translate(600,80) scale(3.4333333333333)"><path d="M6,6H3C1.3,6,0,4.7,0,3V0l6,0V6z"/></g>
<g transform="translate(620,80) scale(3.4333333333333)"><rect width="6" height="6"/></g>
<g transform="translate(640,80) scale(3.4333333333333)"><rect width="6" height="6"/></g>
<g transform="translate(660,80) scale(3.4333333333333)"><path d="M3,6H0V0l6,0v3C6,4.7,4.7,6,3,6z"/></g>
<g transform="translate(700,80) scale(3.4333333333333)"><path d="M6,6H0V3c0-1.7,1.3-3,3-3h0c1.7,0,3,1.3,3,3V6z"/></g>
<g transform="translate(740,80) scale(3.4333333333333)"><rect width="6" height="6"/></g>
<g transform="translate(220,100) scale(3.4333333333333)"><path d="M6,6H0V3c0-1.7,1.3-3,3-3l3,0V6z"/></g>
<g transform="translate(240,100) scale(3.4333333333333)"><path d="M3,6H0V0l3,0c1.7,0,3,1.3,3,3v0C6,4.7,4.7,6,3,6z"/></g>
<g transform="translate(280,100) scale(3.4333333333333)"><circle cx="3" cy="3" r="3"/></g>
<g transform="translate(340,100) scale(3.4333333333333)"><path d="M6,6H3C1.3,6,0,4.7,0,3V0l6,0V6z"/></g>
<g transform="translate(360,100) scale(3.4333333333333)"><path d="M3,6H0V0l6,0v3C6,4.7,4.7,6,3,6z"/></g>
<g transform="translate(400,100) scale(3.4333333333333)"><path d="M6,6H0V3c0-1.7,1.3-3,3-3l3,0V6z"/></g>
<g transform="translate(420,100) scale(3.4333333333333)"><rect width="6" height="6"/></g>
<g transform="translate(440,100) scale(3.4333333333333)"><rect width="6" height="6"/></g>
<g transform="translate(460,100) scale(3.4333333333333)"><rect width="6" height="6"/></g>
<g transform="translate(480,100) scale(3.4333333333333)"><rect width="6" height="6"/></g>
<g transform="translate(500,100) scale(3.4333333333333)"><rect width="6" height="6"/></g>
<g transform="translate(520,100) scale(3.4333333333333)"><path d="M6,6H0V0l3,0c1.7,0,3,1.3,3,3V6z"/></g>
<g transform="translate(560,100) scale(3.4333333333333)"><path d="M6,6H0V3c0-1.7,1.3-3,3-3l3,0V6z"/></g>
<g transform="translate(580,100) scale(3.4333333333333)"><path d="M3,6H0V0l3,0c1.7,0,3,1.3,3,3v0C6,4.7,4.7,6,3,6z"/></g>
<g transform="translate(620,100) scale(3.4333333333333)"><rect width="6" height="6"/></g>
<g transform="translate(640,100) scale(3.4333333333333)"><rect width="6" height="6"/></g>
<g transform="translate(700,100) scale(3.4333333333333)"><path d="M3,6L3,6C1.3,6,0,4.7,0,3V0h6v3C6,4.7,4.7,6,3,6z"/></g>
<g transform="translate(740,100) scale(3.4333333333333)"><rect width="6" height="6"/></g>
<g transform="translate(760,100) scale(3.4333333333333)"><path d="M6,6H0V0l3,0c1.7,0,3,1.3,3,3V6z"/></g>
<g transform="translate(220,120) scale(3.4333333333333)"><path d="M3,6L3,6C1.3,6,0,4.7,0,3V0h6v3C6,4.7,4.7,6,3,6z"/></g>
<g transform="translate(260,120) scale(3.4333333333333)"><path d="M6,6H0V3c0-1.7,1.3-3,3-3h0c1.7,0,3,1.3,3,3V6z"/></g>
<g transform="translate(320,120) scale(3.4333333333333)"><path d="M6,6H0V3c0-1.7,1.3-3,3-3h0c1.7,0,3,1.3,3,3V6z"/></g>
<g transform="translate(400,120) scale(3.4333333333333)"><rect width="6" height="6"/></g>
<g transform="translate(420,120) scale(3.4333333333333)"><rect width="6" height="6"/></g>
<g transform="translate(440,120) scale(3.4333333333333)"><rect width="6" height="6"/></g>
<g transform="translate(460,120) scale(3.4333333333333)"><rect width="6" height="6"/></g>
<g transform="translate(480,120) scale(3.4333333333333)"><rect width="6" height="6"/></g>
<g transform="translate(500,120) scale(3.4333333333333)"><rect width="6" height="6"/></g>
<g transform="translate(520,120) scale(3.4333333333333)"><rect width="6" height="6"/></g>
<g transform="translate(560,120) scale(3.4333333333333)"><rect width="6" height="6"/></g>
<g transform="translate(620,120) scale(3.4333333333333)"><path d="M6,6H3C1.3,6,0,4.7,0,3V0l6,0V6z"/></g>
<g transform="translate(640,120) scale(3.4333333333333)"><rect width="6" height="6"/></g>
<g transform="translate(660,120) scale(3.4333333333333)"><path d="M3,6H0V0l3,0c1.7,0,3,1.3,3,3v0C6,4.7,4.7,6,3,6z"/></g>
<g transform="translate(720,120) scale(3.4333333333333)"><path d="M6,6H3C1.3,6,0,4.7,0,3v0c0-1.7,1.3-3,3-3h3C6,0,6,6,6,6z"/></g>
<g transform="translate(740,120) scale(3.4333333333333)"><rect width="6" height="6"/></g>
<g transform="translate(760,120) scale(3.4333333333333)"><path d="M3,6H0V0l6,0v3C6,4.7,4.7,6,3,6z"/></g>
<g transform="translate(200,140) scale(3.4333333333333)"><path d="M6,6H0V3c0-1.7,1.3-3,3-3h0c1.7,0,3,1.3,3,3V6z"/></g>
<g transform="translate(240,140) scale(3.4333333333333)"><path d="M6,6H0V3c0-1.7,1.3-3,3-3l3,0V6z"/></g>
<g transform="translate(260,140) scale(3.4333333333333)"><path d="M3,6H0V0l6,0v3C6,4.7,4.7,6,3,6z"/></g>
<g transform="translate(320,140) scale(3.4333333333333)"><rect width="6" height="6"/></g>
<g transform="translate(340,140) scale(3.4333333333333)"><path d="M3,6H0V0l3,0c1.7,0,3,1.3,3,3v0C6,4.7,4.7,6,3,6z"/></g>
<g transform="translate(400,140) scale(3.4333333333333)"><rect width="6" height="6"/></g>
<g transform="translate(420,140) scale(3.4333333333333)"><rect width="6" height="6"/></g>
<g transform="translate(440,140) scale(3.4333333333333)"><rect width="6" height="6"/></g>
<g transform="translate(520,140) scale(3.4333333333333)"><rect width="6" height="6"/></g>
<g transform="translate(540,140) scale(3.4333333333333)"><rect width="6" height="6"/></g>
<g transform="translate(560,140) scale(3.4333333333333)"><rect width="6" height="6"/></g>
<g transform="translate(600,140) scale(3.4333333333333)"><path d="M6,6H0V3c0-1.7,1.3-3,3-3h0c1.7,0,3,1.3,3,3V6z"/></g>
<g transform="translate(200,160) scale(3.4333333333333)"><rect width="6" height="6"/></g>
<g transform="translate(240,160) scale(3.4333333333333)"><path d="M3,6L3,6C1.3,6,0,4.7,0,3V0h6v3C6,4.7,4.7,6,3,6z"/></g>
<g transform="translate(280,160) scale(3.4333333333333)"><path d="M6,6H0V3c0-1.7,1.3-3,3-3h0c1.7,0,3,1.3,3,3V6z"/></g>
<g transform="translate(320,160) scale(3.4333333333333)"><path d="M3,6L3,6C1.3,6,0,4.7,0,3V0h6v3C6,4.7,4.7,6,3,6z"/></g>
<g transform="translate(360,160) scale(3.4333333333333)"><circle cx="3" cy="3" r="3"/></g>
<g transform="translate(400,160) scale(3.4333333333333)"><rect width="6" height="6"/></g>
<g transform="translate(440,160) scale(3.4333333333333)"><rect width="6" height="6"/></g>
<g transform="translate(480,160) scale(3.4333333333333)"><circle cx="3" cy="3" r="3"/></g>
<g transform="translate(520,160) scale(3.4333333333333)"><rect width="6" height="6"/></g>
<g transform="translate(560,160) scale(3.4333333333333)"><path d="M3,6L3,6C1.3,6,0,4.7,0,3V0h6v3C6,4.7,4.7,6,3,6z"/></g>
<g transform="translate(600,160) scale(3.4333333333333)"><rect width="6" height="6"/></g>
<g transform="translate(640,160) scale(3.4333333333333)"><path d="M6,6H0V3c0-1.7,1.3-3,3-3h0c1.7,0,3,1.3,3,3V6z"/></g>
<g transform="translate(680,160) scale(3.4333333333333)"><path d="M6,6H0V3c0-1.7,1.3-3,3-3h0c1.7,0,3,1.3,3,3V6z"/></g>
<g transform="translate(720,160) scale(3.4333333333333)"><path d="M6,6H0V3c0-1.7,1.3-3,3-3h0c1.7,0,3,1.3,3,3V6z"/></g>
<g transform="translate(760,160) scale(3.4333333333333)"><path d="M6,6H0V3c0-1.7,1.3-3,3-3h0c1.7,0,3,1.3,3,3V6z"/></g>
<g transform="translate(200,180) scale(3.4333333333333)"><rect width="6" height="6"/></g>
<g transform="translate(260,180) scale(3.4333333333333)"><path d="M6,6H3C1.3,6,0,4.7,0,3v0c0-1.7,1.3-3,3-3h3C6,0,6,6,6,6z"/></g>
<g transform="translate(280,180) scale(3.4333333333333)"><path d="M3,6H0V0l6,0v3C6,4.7,4.7,6,3,6z"/></g>
<g transform="translate(400,180) scale(3.4333333333333)"><path d="M6,6H3C1.3,6,0,4.7,0,3V0l6,0V6z"/></g>
<g transform="translate(420,180) scale(3.4333333333333)"><rect width="6" height="6"/></g>
<g transform="translate(440,180) scale(3.4333333333333)"><rect width="6" height="6"/></g>
<g transform="translate(520,180) scale(3.4333333333333)"><rect width="6" height="6"/></g>
<g transform="translate(540,180) scale(3.4333333333333)"><path d="M6,6H0V0l3,0c1.7,0,3,1.3,3,3V6z"/></g>
<g transform="translate(600,180) scale(3.4333333333333)"><path d="M6,6H3C1.3,6,0,4.7,0,3V0l6,0V6z"/></g>
<g transform="translate(620,180) scale(3.4333333333333)"><rect width="6" height="6"/></g>
<g transform="translate(640,180) scale(3.4333333333333)"><rect width="6" height="6"/></g>
<g transform="translate(660,180) scale(3.4333333333333)"><rect width="6" height="6"/></g>
<g transform="translate(680,180) scale(3.4333333333333)"><rect width="6" height="6"/></g>
<g transform="translate(700,180) scale(3.4333333333333)"><rect width="6" height="6"/></g>
<g transform="translate(720,180) scale(3.4333333333333)"><path d="M3,6H0V0l6,0v3C6,4.7,4.7,6,3,6z"/></g>
<g transform="translate(760,180) scale(3.4333333333333)"><rect width="6" height="6"/></g>
<g transform="translate(80,200) scale(3.4333333333333)"><path d="M6,6H3C1.3,6,0,4.7,0,3v0c0-1.7,1.3-3,3-3h3C6,0,6,6,6,6z"/></g>
<g transform="translate(100,200) scale(3.4333333333333)"><rect width="6" height="6"/></g>
<g transform="translate(120,200) scale(3.4333333333333)"><path d="M6,6H0V0l3,0c1.7,0,3,1.3,3,3V6z"/></g>
<g transform="translate(160,200) scale(3.4333333333333)"><circle cx="3" cy="3" r="3"/></g>
<g transform="translate(200,200) scale(3.4333333333333)"><path d="M6,6H3C1.3,6,0,4.7,0,3V0l6,0V6z"/></g>
<g transform="translate(220,200) scale(3.4333333333333)"><rect width="6" height="6"/></g>
<g transform="translate(240,200) scale(3.4333333333333)"><path d="M3,6H0V0l3,0c1.7,0,3,1.3,3,3v0C6,4.7,4.7,6,3,6z"/></g>
<g transform="translate(300,200) scale(3.4333333333333)"><path d="M6,6H0V3c0-1.7,1.3-3,3-3h0c1.7,0,3,1.3,3,3V6z"/></g>
<g transform="translate(380,200) scale(3.4333333333333)"><path d="M6,6H0V3c0-1.7,1.3-3,3-3h0c1.7,0,3,1.3,3,3V6z"/></g>
<g transform="translate(420,200) scale(3.4333333333333)"><rect width="6" height="6"/></g>
<g transform="translate(440,200) scale(3.4333333333333)"><rect width="6" height="6"/></g>
<g transform="translate(460,200) scale(3.4333333333333)"><rect width="6" height="6"/></g>
<g transform="translate(480,200) scale(3.4333333333333)"><rect width="6" height="6"/></g>
<g transform="translate(500,200) scale(3.4333333333333)"><rect width="6" height="6"/></g>
<g transform="translate(520,200) scale(3.4333333333333)"><rect width="6" height="6"/></g>
<g transform="translate(540,200) scale(3.4333333333333)"><rect width="6" height="6"/></g>
<g transform="translate(640,200) scale(3.4333333333333)"><rect width="6" height="6"/></g>
<g transform="translate(700,200) scale(3.4333333333333)"><rect width="6" height="6"/></g>
<g transform="translate(760,200) scale(3.4333333333333)"><path d="M6,6H3C1.3,6,0,4.7,0,3V0l6,0V6z"/></g>
<g transform="translate(780,200) scale(3.4333333333333)"><rect width="6" height="6"/></g>
<g transform="translate(800,200) scale(3.4333333333333)"><rect width="6" height="6"/></g>
<g transform="translate(820,200) scale(3.4333333333333)"><path d="M3,6H0V0l3,0c1.7,0,3,1.3,3,3v0C6,4.7,4.7,6,3,6z"/></g>
<g transform="translate(880,200) scale(3.4333333333333)"><path d="M6,6H3C1.3,6,0,4.7,0,3v0c0-1.7,1.3-3,3-3h3C6,0,6,6,6,6z"/></g>
<g transform="translate(900,200) scale(3.4333333333333)"><rect width="6" height="6"/></g>
<g transform="translate(920,200) scale(3.4333333333333)"><path d="M6,6H0V0l3,0c1.7,0,3,1.3,3,3V6z"/></g>
<g transform="translate(40,220) scale(3.4333333333333)"><path d="M6,6H3C1.3,6,0,4.7,0,3v0c0-1.7,1.3-3,3-3h3C6,0,6,6,6,6z"/></g>
<g transform="translate(60,220) scale(3.4333333333333)"><path d="M6,6H0V0l3,0c1.7,0,3,1.3,3,3V6z"/></g>
<g transform="translate(120,220) scale(3.4333333333333)"><rect width="6" height="6"/></g>
<g transform="translate(180,220) scale(3.4333333333333)"><circle cx="3" cy="3" r="3"/></g>
<g transform="translate(220,220) scale(3.4333333333333)"><path d="M3,6L3,6C1.3,6,0,4.7,0,3V0h6v3C6,4.7,4.7,6,3,6z"/></g>
<g transform="translate(280,220) scale(3.4333333333333)"><path d="M6,6H3C1.3,6,0,4.7,0,3v0c0-1.7,1.3-3,3-3h3C6,0,6,6,6,6z"/></g>
<g transform="translate(300,220) scale(3.4333333333333)"><rect width="6" height="6"/></g>
<g transform="translate(320,220) scale(3.4333333333333)"><path d="M3,6H0V0l3,0c1.7,0,3,1.3,3,3v0C6,4.7,4.7,6,3,6z"/></g>
<g transform="translate(380,220) scale(3.4333333333333)"><path d="M6,6H3C1.3,6,0,4.7,0,3V0l6,0V6z"/></g>
<g transform="translate(400,220) scale(3.4333333333333)"><rect width="6" height="6"/></g>
<g transform="translate(420,220) scale(3.4333333333333)"><rect width="6" height="6"/></g>
<g transform="translate(440,220) scale(3.4333333333333)"><rect width="6" height="6"/></g>
<g transform="translate(480,220) scale(3.4333333333333)"><path d="M3,6L3,6C1.3,6,0,4.7,0,3V0h6v3C6,4.7,4.7,6,3,6z"/></g>
<g transform="translate(540,220) scale(3.4333333333333)"><path d="M3,6L3,6C1.3,6,0,4.7,0,3V0h6v3C6,4.7,4.7,6,3,6z"/></g>
<g transform="translate(580,220) scale(3.4333333333333)"><path d="M6,6H3C1.3,6,0,4.7,0,3v0c0-1.7,1.3-3,3-3h3C6,0,6,6,6,6z"/></g>
<g transform="translate(600,220) scale(3.4333333333333)"><path d="M3,6H0V0l3,0c1.7,0,3,1.3,3,3v0C6,4.7,4.7,6,3,6z"/></g>
<g transform="translate(640,220) scale(3.4333333333333)"><rect width="6" height="6"/></g>
<g transform="translate(660,220) scale(3.4333333333333)"><path d="M6,6H0V0l3,0c1.7,0,3,1.3,3,3V6z"/></g>
<g transform="translate(700,220) scale(3.4333333333333)"><path d="M3,6L3,6C1.3,6,0,4.7,0,3V0h6v3C6,4.7,4.7,6,3,6z"/></g>
<g transform="translate(780,220) scale(3.4333333333333)"><rect width="6" height="6"/></g>
<g transform="translate(840,220) scale(3.4333333333333)"><path d="M6,6H3C1.3,6,0,4.7,0,3v0c0-1.7,1.3-3,3-3h3C6,0,6,6,6,6z"/></g>
<g transform="translate(860,220) scale(3.4333333333333)"><path d="M3,6H0V0l3,0c1.7,0,3,1.3,3,3v0C6,4.7,4.7,6,3,6z"/></g>
<g transform="translate(900,220) scale(3.4333333333333)"><rect width="6" height="6"/></g>
<g transform="translate(920,220) scale(3.4333333333333)"><path d="M3,6H0V0l6,0v3C6,4.7,4.7,6,3,6z"/></g>
<g transform="translate(60,240) scale(3.4333333333333)"><rect width="6" height="6"/></g>
<g transform="translate(120,240) scale(3.4333333333333)"><path d="M6,6H3C1.3,6,0,4.7,0,3V0l6,0V6z"/></g>
<g transform="translate(140,240) scale(3.4333333333333)"><rect width="6" height="6"/></g>
<g transform="translate(160,240) scale(3.4333333333333)"><path d="M3,6H0V0l3,0c1.7,0,3,1.3,3,3v0C6,4.7,4.7,6,3,6z"/></g>
<g transform="translate(200,240) scale(3.4333333333333)"><circle cx="3" cy="3" r="3"/></g>
<g transform="translate(300,240) scale(3.4333333333333)"><path d="M3,6L3,6C1.3,6,0,4.7,0,3V0h6v3C6,4.7,4.7,6,3,6z"/></g>
<g transform="translate(340,240) scale(3.4333333333333)"><circle cx="3" cy="3" r="3"/></g>
<g transform="translate(400,240) scale(3.4333333333333)"><rect width="6" height="6"/></g>
<g transform="translate(440,240) scale(3.4333333333333)"><rect width="6" height="6"/></g>
<g transform="translate(460,240) scale(3.4333333333333)"><path d="M3,6H0V0l3,0c1.7,0,3,1.3,3,3v0C6,4.7,4.7,6,3,6z"/></g>
<g transform="translate(520,240) scale(3.4333333333333)"><circle cx="3" cy="3" r="3"/></g>
<g transform="translate(560,240) scale(3.4333333333333)"><circle cx="3" cy="3" r="3"/></g>
<g transform="translate(640,240) scale(3.4333333333333)"><rect width="6" height="6"/></g>
<g transform="translate(660,240) scale(3.4333333333333)"><rect width="6" height="6"/></g>
<g transform="translate(720,240) scale(3.4333333333333)"><path d="M6,6H3C1.3,6,0,4.7,0,3v0c0-1.7,1.3-3,3-3h3C6,0,6,6,6,6z"/></g>
<g transform="translate(740,240) scale(3.4333333333333)"><path d="M3,6H0V0l3,0c1.7,0,3,1.3,3,3v0C6,4.7,4.7,6,3,6z"/></g>
<g transform="translate(780,240) scale(3.4333333333333)"><path d="M6,6H3C1.3,6,0,4.7,0,3V0l6,0V6z"/></g>
<g transform="translate(800,240) scale(3.4333333333333)"><path d="M3,6H0V0l3,0c1.7,0,3,1.3,3,3v0C6,4.7,4.7,6,3,6z"/></g>
<g transform="translate(900,240) scale(3.4333333333333)"><path d="M3,6L3,6C1.3,6,0,4.7,0,3V0h6v3C6,4.7,4.7,6,3,6z"/></g>
<g transform="translate(60,260) scale(3.4333333333333)"><path d="M3,6L3,6C1.3,6,0,4.7,0,3V0h6v3C6,4.7,4.7,6,3,6z"/></g>
<g transform="translate(100,260) scale(3.4333333333333)"><path d="M6,6H0V3c0-1.7,1.3-3,3-3h0c1.7,0,3,1.3,3,3V6z"/></g>
<g transform="translate(140,260) scale(3.4333333333333)"><rect width="6" height="6"/></g>
<g transform="translate(220,260) scale(3.4333333333333)"><circle cx="3" cy="3" r="3"/></g>
<g transform="translate(260,260) scale(3.4333333333333)"><path d="M6,6H3C1.3,6,0,4.7,0,3v0c0-1.7,1.3-3,3-3h3C6,0,6,6,6,6z"/></g>
<g transform="translate(280,260) scale(3.4333333333333)"><path d="M3,6H0V0l3,0c1.7,0,3,1.3,3,3v0C6,4.7,4.7,6,3,6z"/></g>
<g transform="translate(400,260) scale(3.4333333333333)"><rect width="6" height="6"/></g>
<g transform="translate(440,260) scale(3.4333333333333)"><path d="M3,6L3,6C1.3,6,0,4.7,0,3V0h6v3C6,4.7,4.7,6,3,6z"/></g>
<g transform="translate(540,260) scale(3.4333333333333)"><circle cx="3" cy="3" r="3"/></g>
<g transform="translate(620,260) scale(3.4333333333333)"><path d="M6,6H3C1.3,6,0,4.7,0,3v0c0-1.7,1.3-3,3-3h3C6,0,6,6,6,6z"/></g>
<g transform="translate(640,260) scale(3.4333333333333)"><rect width="6" height="6"/></g>
<g transform="translate(660,260) scale(3.4333333333333)"><rect width="6" height="6"/></g>
<g transform="translate(680,260) scale(3.4333333333333)"><path d="M3,6H0V0l3,0c1.7,0,3,1.3,3,3v0C6,4.7,4.7,6,3,6z"/></g>
<g transform="translate(760,260) scale(3.4333333333333)"><circle cx="3" cy="3" r="3"/></g>
<g transform="translate(820,260) scale(3.4333333333333)"><path d="M6,6H3C1.3,6,0,4.7,0,3v0c0-1.7,1.3-3,3-3h3C6,0,6,6,6,6z"/></g>
<g transform="translate(840,260) scale(3.4333333333333)"><rect width="6" height="6"/></g>
<g transform="translate(860,260) scale(3.4333333333333)"><rect width="6" height="6"/></g>
<g transform="translate(880,260) scale(3.4333333333333)"><path d="M3,6H0V0l3,0c1.7,0,3,1.3,3,3v0C6,4.7,4.7,6,3,6z"/></g>
<g transform="translate(920,260) scale(3.4333333333333)"><circle cx="3" cy="3" r="3"/></g>
<g transform="translate(40,280) scale(3.4333333333333)"><circle cx="3" cy="3" r="3"/></g>
<g transform="translate(80,280) scale(3.4333333333333)"><path d="M6,6H0V3c0-1.7,1.3-3,3-3l3,0V6z"/></g>
<g transform="translate(100,280) scale(3.4333333333333)"><path d="M3,6H0V0l6,0v3C6,4.7,4.7,6,3,6z"/></g>
<g transform="translate(140,280) scale(3.4333333333333)"><path d="M6,6H3C1.3,6,0,4.7,0,3V0l6,0V6z"/></g>
<g transform="translate(160,280) scale(3.4333333333333)"><path d="M3,6H0V0l3,0c1.7,0,3,1.3,3,3v0C6,4.7,4.7,6,3,6z"/></g>
<g transform="translate(240,280) scale(3.4333333333333)"><circle cx="3" cy="3" r="3"/></g>
<g transform="translate(340,280) scale(3.4333333333333)"><circle cx="3" cy="3" r="3"/></g>
<g transform="translate(380,280) scale(3.4333333333333)"><path d="M6,6H0V3c0-1.7,1.3-3,3-3l3,0V6z"/></g>
<g transform="translate(400,280) scale(3.4333333333333)"><rect width="6" height="6"/></g>
<g transform="translate(520,280) scale(3.4333333333333)"><path d="M6,6H0V3c0-1.7,1.3-3,3-3h0c1.7,0,3,1.3,3,3V6z"/></g>
<g transform="translate(560,280) scale(3.4333333333333)"><path d="M6,6H3C1.3,6,0,4.7,0,3v0c0-1.7,1.3-3,3-3h3C6,0,6,6,6,6z"/></g>
<g transform="translate(580,280) scale(3.4333333333333)"><path d="M6,6H0V0l3,0c1.7,0,3,1.3,3,3V6z"/></g>
<g transform="translate(640,280) scale(3.4333333333333)"><rect width="6" height="6"/></g>
<g transform="translate(660,280) scale(3.4333333333333)"><path d="M3,6H0V0l6,0v3C6,4.7,4.7,6,3,6z"/></g>
<g transform="translate(700,280) scale(3.4333333333333)"><path d="M6,6H3C1.3,6,0,4.7,0,3v0c0-1.7,1.3-3,3-3h3C6,0,6,6,6,6z"/></g>
<g transform="translate(720,280) scale(3.4333333333333)"><path d="M3,6H0V0l3,0c1.7,0,3,1.3,3,3v0C6,4.7,4.7,6,3,6z"/></g>
<g transform="translate(800,280) scale(3.4333333333333)"><circle cx="3" cy="3" r="3"/></g>
<g transform="translate(900,280) scale(3.4333333333333)"><path d="M6,6H0V3c0-1.7,1.3-3,3-3h0c1.7,0,3,1.3,3,3V6z"/></g>
<g transform="translate(60,300) scale(3.4333333333333)"><path d="M6,6H3C1.3,6,0,4.7,0,3v0c0-1.7,1.3-3,3-3h3C6,0,6,6,6,6z"/></g>
<g transform="translate(80,300) scale(3.4333333333333)"><path d="M3,6H0V0l6,0v3C6,4.7,4.7,6,3,6z"/></g>
<g transform="translate(120,300) scale(3.4333333333333)"><circle cx="3" cy="3" r="3"/></g>
<g transform="translate(200,300) scale(3.4333333333333)"><path d="M6,6H0V3c0-1.7,1.3-3,3-3h0c1.7,0,3,1.3,3,3V6z"/></g>
<g transform="translate(280,300) scale(3.4333333333333)"><path d="M6,6H0V3c0-1.7,1.3-3,3-3h0c1.7,0,3,1.3,3,3V6z"/></g>
<g transform="translate(320,300) scale(3.4333333333333)"><path d="M6,6H0V3c0-1.7,1.3-3,3-3h0c1.7,0,3,1.3,3,3V6z"/></g>
<g transform="translate(380,300) scale(3.4333333333333)"><rect width="6" height="6"/></g>
<g transform="translate(400,300) scale(3.4333333333333)"><path d="M3,6H0V0l6,0v3C6,4.7,4.7,6,3,6z"/></g>
<g transform="translate(460,300) scale(3.4333333333333)"><path d="M6,6H0V3c0-1.7,1.3-3,3-3h0c1.7,0,3,1.3,3,3V6z"/></g>
<g transform="translate(520,300) scale(3.4333333333333)"><path d="M6,6H3C1.3,6,0,4.7,0,3V0l6,0V6z"/></g>
<g transform="translate(540,300) scale(3.4333333333333)"><path d="M3,6H0V0l3,0c1.7,0,3,1.3,3,3v0C6,4.7,4.7,6,3,6z"/></g>
<g transform="translate(580,300) scale(3.4333333333333)"><path d="M6,6H3C1.3,6,0,4.7,0,3V0l6,0V6z"/></g>
<g transform="translate(600,300) scale(3.4333333333333)"><rect width="6" height="6"/></g>
<g transform="translate(620,300) scale(3.4333333333333)"><rect width="6" height="6"/></g>
<g transform="translate(640,300) scale(3.4333333333333)"><path d="M3,6H0V0l6,0v3C6,4.7,4.7,6,3,6z"/></g>
<g transform="translate(680,300) scale(3.4333333333333)"><circle cx="3" cy="3" r="3"/></g>
<g transform="translate(740,300) scale(3.4333333333333)"><path d="M6,6H3C1.3,6,0,4.7,0,3v0c0-1.7,1.3-3,3-3h3C6,0,6,6,6,6z"/></g>
<g transform="translate(760,300) scale(3.4333333333333)"><path d="M3,6H0V0l3,0c1.7,0,3,1.3,3,3v0C6,4.7,4.7,6,3,6z"/></g>
<g transform="translate(840,300) scale(3.4333333333333)"><circle cx="3" cy="3" r="3"/></g>
<g transform="translate(880,300) scale(3.4333333333333)"><path d="M6,6H0V3c0-1.7,1.3-3,3-3l3,0V6z"/></g>
<g transform="translate(900,300) scale(3.4333333333333)"><rect width="6" height="6"/></g>
<g transform="translate(920,300) scale(3.4333333333333)"><path d="M3,6H0V0l3,0c1.7,0,3,1.3,3,3v0C6,4.7,4.7,6,3,6z"/></g>
<g transform="translate(40,320) scale(3.4333333333333)"><path d="M6,6H0V3c0-1.7,1.3-3,3-3h0c1.7,0,3,1.3,3,3V6z"/></g>
<g transform="translate(160,320) scale(3.4333333333333)"><path d="M6,6H3C1.3,6,0,4.7,0,3v0c0-1.7,1.3-3,3-3h3C6,0,6,6,6,6z"/></g>
<g transform="translate(180,320) scale(3.4333333333333)"><rect width="6" height="6"/></g>
<g transform="translate(200,320) scale(3.4333333333333)"><rect width="6" height="6"/></g>
<g transform="translate(220,320) scale(3.4333333333333)"><path d="M6,6H0V0l3,0c1.7,0,3,1.3,3,3V6z"/></g>
<g transform="translate(260,320) scale(3.4333333333333)"><path d="M6,6H3C1.3,6,0,4.7,0,3v0c0-1.7,1.3-3,3-3h3C6,0,6,6,6,6z"/></g>
<g transform="translate(280,320) scale(3.4333333333333)"><rect width="6" height="6"/></g>
<g transform="translate(300,320) scale(3.4333333333333)"><rect width="6" height="6"/></g>
<g transform="translate(320,320) scale(3.4333333333333)"><rect width="6" height="6"/></g>
<g transform="translate(380,320) scale(3.4333333333333)"><rect width="6" height="6"/></g>
<g transform="translate(440,320) scale(3.4333333333333)"><path d="M6,6H0V3c0-1.7,1.3-3,3-3l3,0V6z"/></g>
<g transform="translate(460,320) scale(3.4333333333333)"><path d="M3,6H0V0l6,0v3C6,4.7,4.7,6,3,6z"/></g>
<g transform="translate(500,320) scale(3.4333333333333)"><path d="M6,6H0V3c0-1.7,1.3-3,3-3h0c1.7,0,3,1.3,3,3V6z"/></g>
<g transform="translate(600,320) scale(3.4333333333333)"><path d="M3,6L3,6C1.3,6,0,4.7,0,3V0h6v3C6,4.7,4.7,6,3,6z"/></g>
<g transform="translate(700,320) scale(3.4333333333333)"><path d="M6,6H0V3c0-1.7,1.3-3,3-3l3,0V6z"/></g>
<g transform="translate(720,320) scale(3.4333333333333)"><path d="M3,6H0V0l3,0c1.7,0,3,1.3,3,3v0C6,4.7,4.7,6,3,6z"/></g>
<g transform="translate(780,320) scale(3.4333333333333)"><path d="M6,6H3C1.3,6,0,4.7,0,3v0c0-1.7,1.3-3,3-3h3C6,0,6,6,6,6z"/></g>
<g transform="translate(800,320) scale(3.4333333333333)"><rect width="6" height="6"/></g>
<g transform="translate(820,320) scale(3.4333333333333)"><path d="M6,6H0V0l3,0c1.7,0,3,1.3,3,3V6z"/></g>
<g transform="translate(860,320) scale(3.4333333333333)"><path d="M6,6H0V3c0-1.7,1.3-3,3-3l3,0V6z"/></g>
<g transform="translate(880,320) scale(3.4333333333333)"><rect width="6" height="6"/></g>
<g transform="translate(900,320) scale(3.4333333333333)"><path d="M3,6H0V0l6,0v3C6,4.7,4.7,6,3,6z"/></g>
<g transform="translate(40,340) scale(3.4333333333333)"><rect width="6" height="6"/></g>
<g transform="translate(80,340) scale(3.4333333333333)"><path d="M6,6H3C1.3,6,0,4.7,0,3v0c0-1.7,1.3-3,3-3h3C6,0,6,6,6,6z"/></g>
<g transform="translate(100,340) scale(3.4333333333333)"><rect width="6" height="6"/></g>
<g transform="translate(120,340) scale(3.4333333333333)"><rect width="6" height="6"/></g>
<g transform="translate(140,340) scale(3.4333333333333)"><path d="M3,6H0V0l3,0c1.7,0,3,1.3,3,3v0C6,4.7,4.7,6,3,6z"/></g>
<g transform="translate(220,340) scale(3.4333333333333)"><path d="M6,6H3C1.3,6,0,4.7,0,3V0l6,0V6z"/></g>
<g transform="translate(240,340) scale(3.4333333333333)"><path d="M6,6H0V0l3,0c1.7,0,3,1.3,3,3V6z"/></g>
<g transform="translate(280,340) scale(3.4333333333333)"><rect width="6" height="6"/></g>
<g transform="translate(320,340) scale(3.4333333333333)"><rect width="6" height="6"/></g>
<g transform="translate(340,340) scale(3.4333333333333)"><path d="M6,6H0V0l3,0c1.7,0,3,1.3,3,3V6z"/></g>
<g transform="translate(380,340) scale(3.4333333333333)"><path d="M3,6L3,6C1.3,6,0,4.7,0,3V0h6v3C6,4.7,4.7,6,3,6z"/></g>
<g transform="translate(420,340) scale(3.4333333333333)"><path d="M6,6H0V3c0-1.7,1.3-3,3-3l3,0V6z"/></g>
<g transform="translate(440,340) scale(3.4333333333333)"><path d="M3,6H0V0l6,0v3C6,4.7,4.7,6,3,6z"/></g>
<g transform="translate(480,340) scale(3.4333333333333)"><path d="M6,6H3C1.3,6,0,4.7,0,3v0c0-1.7,1.3-3,3-3h3C6,0,6,6,6,6z"/></g>
<g transform="translate(500,340) scale(3.4333333333333)"><rect width="6" height="6"/></g>
<g transform="translate(540,340) scale(3.4333333333333)"><circle cx="3" cy="3" r="3"/></g>
<g transform="translate(620,340) scale(3.4333333333333)"><circle cx="3" cy="3" r="3"/></g>
<g transform="translate(680,340) scale(3.4333333333333)"><path d="M6,6H3C1.3,6,0,4.7,0,3v0c0-1.7,1.3-3,3-3h3C6,0,6,6,6,6z"/></g>
<g transform="translate(700,340) scale(3.4333333333333)"><path d="M3,6H0V0l6,0v3C6,4.7,4.7,6,3,6z"/></g>
<g transform="translate(740,340) scale(3.4333333333333)"><path d="M6,6H0V3c0-1.7,1.3-3,3-3h0c1.7,0,3,1.3,3,3V6z"/></g>
<g transform="translate(820,340) scale(3.4333333333333)"><path d="M6,6H3C1.3,6,0,4.7,0,3V0l6,0V6z"/></g>
<g transform="translate(840,340) scale(3.4333333333333)"><rect width="6" height="6"/></g>
<g transform="translate(860,340) scale(3.4333333333333)"><rect width="6" height="6"/></g>
<g transform="translate(880,340) scale(3.4333333333333)"><path d="M3,6H0V0l6,0v3C6,4.7,4.7,6,3,6z"/></g>
<g transform="translate(40,360) scale(3.4333333333333)"><path d="M3,6L3,6C1.3,6,0,4.7,0,3V0h6v3C6,4.7,4.7,6,3,6z"/></g>
<g transform="translate(100,360) scale(3.4333333333333)"><rect width="6" height="6"/></g>
<g transform="translate(120,360) scale(3.4333333333333)"><path d="M3,6H0V0l6,0v3C6,4.7,4.7,6,3,6z"/></g>
<g transform="translate(160,360) scale(3.4333333333333)"><circle cx="3" cy="3" r="3"/></g>
<g transform="translate(200,360) scale(3.4333333333333)"><circle cx="3" cy="3" r="3"/></g>
<g transform="translate(240,360) scale(3.4333333333333)"><path d="M6,6H3C1.3,6,0,4.7,0,3V0l6,0V6z"/></g>
<g transform="translate(260,360) scale(3.4333333333333)"><rect width="6" height="6"/></g>
<g transform="translate(280,360) scale(3.4333333333333)"><rect width="6" height="6"/></g>
<g transform="translate(320,360) scale(3.4333333333333)"><rect width="6" height="6"/></g>
<g transform="translate(340,360) scale(3.4333333333333)"><rect width="6" height="6"/></g>
<g transform="translate(360,360) scale(3.4333333333333)"><path d="M6,6H0V0l3,0c1.7,0,3,1.3,3,3V6z"/></g>
<g transform="translate(400,360) scale(3.4333333333333)"><path d="M6,6H3C1.3,6,0,4.7,0,3v0c0-1.7,1.3-3,3-3h3C6,0,6,6,6,6z"/></g>
<g transform="translate(420,360) scale(3.4333333333333)"><rect width="6" height="6"/></g>
<g transform="translate(500,360) scale(3.4333333333333)"><path d="M3,6L3,6C1.3,6,0,4.7,0,3V0h6v3C6,4.7,4.7,6,3,6z"/></g>
<g transform="translate(580,360) scale(3.4333333333333)"><circle cx="3" cy="3" r="3"/></g>
<g transform="translate(660,360) scale(3.4333333333333)"><circle cx="3" cy="3" r="3"/></g>
<g transform="translate(720,360) scale(3.4333333333333)"><path d="M6,6H3C1.3,6,0,4.7,0,3v0c0-1.7,1.3-3,3-3h3C6,0,6,6,6,6z"/></g>
<g transform="translate(740,360) scale(3.4333333333333)"><rect width="6" height="6"/></g>
<g transform="translate(900,360) scale(3.4333333333333)"><circle cx="3" cy="3" r="3"/></g>
<g transform="translate(60,380) scale(3.4333333333333)"><path d="M6,6H0V3c0-1.7,1.3-3,3-3h0c1.7,0,3,1.3,3,3V6z"/></g>
<g transform="translate(100,380) scale(3.4333333333333)"><path d="M3,6L3,6C1.3,6,0,4.7,0,3V0h6v3C6,4.7,4.7,6,3,6z"/></g>
<g transform="translate(140,380) scale(3.4333333333333)"><path d="M6,6H0V3c0-1.7,1.3-3,3-3h0c1.7,0,3,1.3,3,3V6z"/></g>
<g transform="translate(180,380) scale(3.4333333333333)"><circle cx="3" cy="3" r="3"/></g>
<g transform="translate(280,380) scale(3.4333333333333)"><rect width="6" height="6"/></g>
<g transform="translate(320,380) scale(3.4333333333333)"><rect width="6" height="6"/></g>
<g transform="translate(360,380) scale(3.4333333333333)"><rect width="6" height="6"/></g>
<g transform="translate(380,380) scale(3.4333333333333)"><path d="M3,6H0V0l3,0c1.7,0,3,1.3,3,3v0C6,4.7,4.7,6,3,6z"/></g>
<g transform="translate(420,380) scale(3.4333333333333)"><rect width="6" height="6"/></g>
<g transform="translate(460,380) scale(3.4333333333333)"><circle cx="3" cy="3" r="3"/></g>
<g transform="translate(520,380) scale(3.4333333333333)"><path d="M6,6H0V3c0-1.7,1.3-3,3-3h0c1.7,0,3,1.3,3,3V6z"/></g>
<g transform="translate(560,380) scale(3.4333333333333)"><circle cx="3" cy="3" r="3"/></g>
<g transform="translate(600,380) scale(3.4333333333333)"><path d="M6,6H0V3c0-1.7,1.3-3,3-3l3,0V6z"/></g>
<g transform="translate(620,380) scale(3.4333333333333)"><path d="M3,6H0V0l3,0c1.7,0,3,1.3,3,3v0C6,4.7,4.7,6,3,6z"/></g>
<g transform="translate(700,380) scale(3.4333333333333)"><circle cx="3" cy="3" r="3"/></g>
<g transform="translate(740,380) scale(3.4333333333333)"><rect width="6" height="6"/></g>
<g transform="translate(760,380) scale(3.4333333333333)"><rect width="6" height="6"/></g>
<g transform="translate(780,380) scale(3.4333333333333)"><path d="M6,6H0V0l3,0c1.7,0,3,1.3,3,3V6z"/></g>
<g transform="translate(820,380) scale(3.4333333333333)"><circle cx="3" cy="3" r="3"/></g>
<g transform="translate(880,380) scale(3.4333333333333)"><circle cx="3" cy="3" r="3"/></g>
<g transform="translate(920,380) scale(3.4333333333333)"><circle cx="3" cy="3" r="3"/></g>
<g transform="translate(40,400) scale(3.4333333333333)"><path d="M6,6H0V3c0-1.7,1.3-3,3-3l3,0V6z"/></g>
<g transform="translate(60,400) scale(3.4333333333333)"><rect width="6" height="6"/></g>
<g transform="translate(80,400) scale(3.4333333333333)"><path d="M3,6H0V0l3,0c1.7,0,3,1.3,3,3v0C6,4.7,4.7,6,3,6z"/></g>
<g transform="translate(140,400) scale(3.4333333333333)"><rect width="6" height="6"/></g>
<g transform="translate(160,400) scale(3.4333333333333)"><path d="M3,6H0V0l3,0c1.7,0,3,1.3,3,3v0C6,4.7,4.7,6,3,6z"/></g>
<g transform="translate(200,400) scale(3.4333333333333)"><path d="M6,6H0V3c0-1.7,1.3-3,3-3h0c1.7,0,3,1.3,3,3V6z"/></g>
<g transform="translate(260,400) scale(3.4333333333333)"><path d="M6,6H3C1.3,6,0,4.7,0,3v0c0-1.7,1.3-3,3-3h3C6,0,6,6,6,6z"/></g>
<g transform="translate(280,400) scale(3.4333333333333)"><rect width="6" height="6"/></g>
<g transform="translate(300,400) scale(3.4333333333333)"><rect width="6" height="6"/></g>
<g transform="translate(320,400) scale(3.4333333333333)"><rect width="6" height="6"/></g>
<g transform="translate(360,400) scale(3.4333333333333)"><path d="M3,6L3,6C1.3,6,0,4.7,0,3V0h6v3C6,4.7,4.7,6,3,6z"/></g>
<g transform="translate(400,400) scale(3.4333333333333)"><path d="M6,6H3C1.3,6,0,4.7,0,3v0c0-1.7,1.3-3,3-3h3C6,0,6,6,6,6z"/></g>
<g transform="translate(420,400) scale(3.4333333333333)"><rect width="6" height="6"/></g>
<g transform="translate(440,400) scale(3.4333333333333)"><path d="M3,6H0V0l3,0c1.7,0,3,1.3,3,3v0C6,4.7,4.7,6,3,6z"/></g>
<g transform="translate(480,400) scale(3.4333333333333)"><circle cx="3" cy="3" r="3"/></g>
<g transform="translate(520,400) scale(3.4333333333333)"><rect width="6" height="6"/></g>
<g transform="translate(600,400) scale(3.4333333333333)"><path d="M3,6L3,6C1.3,6,0,4.7,0,3V0h6v3C6,4.7,4.7,6,3,6z"/></g>
<g transform="translate(640,400) scale(3.4333333333333)"><path d="M6,6H0V3c0-1.7,1.3-3,3-3l3,0V6z"/></g>
<g transform="translate(660,400) scale(3.4333333333333)"><path d="M6,6H0V0l3,0c1.7,0,3,1.3,3,3V6z"/></g>
<g transform="translate(740,400) scale(3.4333333333333)"><rect width="6" height="6"/></g>
<g transform="translate(760,400) scale(3.4333333333333)"><rect width="6" height="6"/></g>
<g transform="translate(780,400) scale(3.4333333333333)"><rect width="6" height="6"/></g>
<g transform="translate(800,400) scale(3.4333333333333)"><path d="M6,6H0V0l3,0c1.7,0,3,1.3,3,3V6z"/></g>
<g transform="translate(860,400) scale(3.4333333333333)"><path d="M6,6H0V3c0-1.7,1.3-3,3-3h0c1.7,0,3,1.3,3,3V6z"/></g>
<g transform="translate(900,400) scale(3.4333333333333)"><path d="M6,6H0V3c0-1.7,1.3-3,3-3h0c1.7,0,3,1.3,3,3V6z"/></g>
<g transform="translate(40,420) scale(3.4333333333333)"><rect width="6" height="6"/></g>
<g transform="translate(60,420) scale(3.4333333333333)"><path d="M3,6H0V0l6,0v3C6,4.7,4.7,6,3,6z"/></g>
<g transform="translate(120,420) scale(3.4333333333333)"><path d="M6,6H0V3c0-1.7,1.3-3,3-3l3,0V6z"/></g>
<g transform="translate(140,420) scale(3.4333333333333)"><rect width="6" height="6"/></g>
<g transform="translate(200,420) scale(3.4333333333333)"><rect width="6" height="6"/></g>
<g transform="translate(220,420) scale(3.4333333333333)"><rect width="6" height="6"/></g>
<g transform="translate(240,420) scale(3.4333333333333)"><path d="M3,6H0V0l3,0c1.7,0,3,1.3,3,3v0C6,4.7,4.7,6,3,6z"/></g>
<g transform="translate(300,420) scale(3.4333333333333)"><path d="M6,6H3C1.3,6,0,4.7,0,3V0l6,0V6z"/></g>
<g transform="translate(320,420) scale(3.4333333333333)"><path d="M3,6H0V0l6,0v3C6,4.7,4.7,6,3,6z"/></g>
<g transform="translate(460,420) scale(3.4333333333333)"><path d="M6,6H0V3c0-1.7,1.3-3,3-3h0c1.7,0,3,1.3,3,3V6z"/></g>
<g transform="translate(520,420) scale(3.4333333333333)"><rect width="6" height="6"/></g>
<g transform="translate(540,420) scale(3.4333333333333)"><path d="M6,6H0V0l3,0c1.7,0,3,1.3,3,3V6z"/></g>
<g transform="translate(580,420) scale(3.4333333333333)"><circle cx="3" cy="3" r="3"/></g>
<g transform="translate(640,420) scale(3.4333333333333)"><rect width="6" height="6"/></g>
<g transform="translate(660,420) scale(3.4333333333333)"><rect width="6" height="6"/></g>
<g transform="translate(680,420) scale(3.4333333333333)"><path d="M3,6H0V0l3,0c1.7,0,3,1.3,3,3v0C6,4.7,4.7,6,3,6z"/></g>
<g transform="translate(740,420) scale(3.4333333333333)"><rect width="6" height="6"/></g>
<g transform="translate(800,420) scale(3.4333333333333)"><rect width="6" height="6"/></g>
<g transform="translate(840,420) scale(3.4333333333333)"><path d="M6,6H0V3c0-1.7,1.3-3,3-3l3,0V6z"/></g>
<g transform="translate(860,420) scale(3.4333333333333)"><rect width="6" height="6"/></g>
<g transform="translate(880,420) scale(3.4333333333333)"><rect width="6" height="6"/></g>
<g transform="translate(900,420) scale(3.4333333333333)"><rect width="6" height="6"/></g>
<g transform="translate(920,420) scale(3.4333333333333)"><path d="M3,6H0V0l3,0c1.7,0,3,1.3,3,3v0C6,4.7,4.7,6,3,6z"/></g>
<g transform="translate(40,440) scale(3.4333333333333)"><rect width="6" height="6"/></g>
<g transform="translate(80,440) scale(3.4333333333333)"><path d="M6,6H0V3c0-1.7,1.3-3,3-3l3,0V6z"/></g>
<g transform="translate(100,440) scale(3.4333333333333)"><rect width="6" height="6"/></g>
<g transform="translate(120,440) scale(3.4333333333333)"><rect width="6" height="6"/></g>
<g transform="translate(140,440) scale(3.4333333333333)"><rect width="6" height="6"/></g>
<g transform="translate(160,440) scale(3.4333333333333)"><rect width="6" height="6"/></g>
<g transform="translate(180,440) scale(3.4333333333333)"><rect width="6" height="6"/></g>
<g transform="translate(200,440) scale(3.4333333333333)"><rect width="6" height="6"/></g>
<g transform="translate(220,440) scale(3.4333333333333)"><rect width="6" height="6"/></g>
<g transform="translate(260,440) scale(3.4333333333333)"><circle cx="3" cy="3" r="3"/></g>
<g transform="translate(360,440) scale(3.4333333333333)"><path d="M6,6H0V3c0-1.7,1.3-3,3-3h0c1.7,0,3,1.3,3,3V6z"/></g>
<g transform="translate(400,440) scale(3.4333333333333)"><path d="M6,6H0V3c0-1.7,1.3-3,3-3h0c1.7,0,3,1.3,3,3V6z"/></g>
<g transform="translate(440,440) scale(3.4333333333333)"><path d="M6,6H0V3c0-1.7,1.3-3,3-3l3,0V6z"/></g>
<g transform="translate(460,440) scale(3.4333333333333)"><rect width="6" height="6"/></g>
<g transform="translate(480,440) scale(3.4333333333333)"><rect width="6" height="6"/></g>
<g transform="translate(500,440) scale(3.4333333333333)"><rect width="6" height="6"/></g>
<g transform="translate(520,440) scale(3.4333333333333)"><rect width="6" height="6"/></g>
<g transform="translate(540,440) scale(3.4333333333333)"><rect width="6" height="6"/></g>
<g transform="translate(560,440) scale(3.4333333333333)"><path d="M3,6H0V0l3,0c1.7,0,3,1.3,3,3v0C6,4.7,4.7,6,3,6z"/></g>
<g transform="translate(620,440) scale(3.4333333333333)"><path d="M6,6H3C1.3,6,0,4.7,0,3v0c0-1.7,1.3-3,3-3h3C6,0,6,6,6,6z"/></g>
<g transform="translate(640,440) scale(3.4333333333333)"><rect width="6" height="6"/></g>
<g transform="translate(660,440) scale(3.4333333333333)"><path d="M3,6H0V0l6,0v3C6,4.7,4.7,6,3,6z"/></g>
<g transform="translate(720,440) scale(3.4333333333333)"><path d="M6,6H3C1.3,6,0,4.7,0,3v0c0-1.7,1.3-3,3-3h3C6,0,6,6,6,6z"/></g>
<g transform="translate(740,440) scale(3.4333333333333)"><rect width="6" height="6"/></g>
<g transform="translate(760,440) scale(3.4333333333333)"><rect width="6" height="6"/></g>
<g transform="translate(780,440) scale(3.4333333333333)"><rect width="6" height="6"/></g>
<g transform="translate(800,440) scale(3.4333333333333)"><rect width="6" height="6"/></g>
<g transform="translate(820,440) scale(3.4333333333333)"><rect width="6" height="6"/></g>
<g transform="translate(840,440) scale(3.4333333333333)"><rect width="6" height="6"/></g>
<g transform="translate(860,440) scale(3.4333333333333)"><rect width="6" height="6"/></g>
<g transform="translate(40,460) scale(3.4333333333333)"><rect width="6" height="6"/></g>
<g transform="translate(60,460) scale(3.4333333333333)"><rect width="6" height="6"/></g>
<g transform="translate(80,460) scale(3.4333333333333)"><rect width="6" height="6"/></g>
<g transform="translate(100,460) scale(3.4333333333333)"><rect width="6" height="6"/></g>
<g transform="translate(120,460) scale(3.4333333333333)"><rect width="6" height="6"/></g>
<g transform="translate(200,460) scale(3.4333333333333)"><rect width="6" height="6"/></g>
<g transform="translate(220,460) scale(3.4333333333333)"><rect width="6" height="6"/></g>
<g transform="translate(240,460) scale(3.4333333333333)"><path d="M6,6H0V0l3,0c1.7,0,3,1.3,3,3V6z"/></g>
<g transform="translate(360,460) scale(3.4333333333333)"><path d="M6,6H3C1.3,6,0,4.7,0,3V0l6,0V6z"/></g>
<g transform="translate(380,460) scale(3.4333333333333)"><rect width="6" height="6"/></g>
<g transform="translate(400,460) scale(3.4333333333333)"><path d="M3,6H0V0l6,0v3C6,4.7,4.7,6,3,6z"/></g>
<g transform="translate(440,460) scale(3.4333333333333)"><rect width="6" height="6"/></g>
<g transform="translate(520,460) scale(3.4333333333333)"><rect width="6" height="6"/></g>
<g transform="translate(580,460) scale(3.4333333333333)"><path d="M6,6H0V3c0-1.7,1.3-3,3-3l3,0V6z"/></g>
<g transform="translate(600,460) scale(3.4333333333333)"><path d="M6,6H0V0l3,0c1.7,0,3,1.3,3,3V6z"/></g>
<g transform="translate(640,460) scale(3.4333333333333)"><rect width="6" height="6"/></g>
<g transform="translate(740,460) scale(3.4333333333333)"><rect width="6" height="6"/></g>
<g transform="translate(760,460) scale(3.4333333333333)"><rect width="6" height="6"/></g>
<g transform="translate(840,460) scale(3.4333333333333)"><rect width="6" height="6"/></g>
<g transform="translate(860,460) scale(3.4333333333333)"><rect width="6" height="6"/></g>
<g transform="translate(880,460) scale(3.4333333333333)"><path d="M3,6H0V0l3,0c1.7,0,3,1.3,3,3v0C6,4.7,4.7,6,3,6z"/></g>
<g transform="translate(920,460) scale(3.4333333333333)"><circle cx="3" cy="3" r="3"/></g>
<g transform="translate(40,480) scale(3.4333333333333)"><path d="M3,6L3,6C1.3,6,0,4.7,0,3V0h6v3C6,4.7,4.7,6,3,6z"/></g>
<g transform="translate(80,480) scale(3.4333333333333)"><path d="M3,6L3,6C1.3,6,0,4.7,0,3V0h6v3C6,4.7,4.7,6,3,6z"/></g>
<g transform="translate(120,480) scale(3.4333333333333)"><rect width="6" height="6"/></g>
<g transform="translate(160,480) scale(3.4333333333333)"><circle cx="3" cy="3" r="3"/></g>
<g transform="translate(200,480) scale(3.4333333333333)"><rect width="6" height="6"/></g>
<g transform="translate(220,480) scale(3.4333333333333)"><rect width="6" height="6"/></g>
<g transform="translate(240,480) scale(3.4333333333333)"><path d="M3,6H0V0l6,0v3C6,4.7,4.7,6,3,6z"/></g>
<g transform="translate(280,480) scale(3.4333333333333)"><path d="M6,6H0V3c0-1.7,1.3-3,3-3l3,0V6z"/></g>
<g transform="translate(300,480) scale(3.4333333333333)"><rect width="6" height="6"/></g>
<g transform="translate(320,480) scale(3.4333333333333)"><rect width="6" height="6"/></g>
<g transform="translate(340,480) scale(3.4333333333333)"><path d="M3,6H0V0l3,0c1.7,0,3,1.3,3,3v0C6,4.7,4.7,6,3,6z"/></g>
<g transform="translate(380,480) scale(3.4333333333333)"><path d="M3,6L3,6C1.3,6,0,4.7,0,3V0h6v3C6,4.7,4.7,6,3,6z"/></g>
<g transform="translate(420,480) scale(3.4333333333333)"><path d="M6,6H0V3c0-1.7,1.3-3,3-3l3,0V6z"/></g>
<g transform="translate(440,480) scale(3.4333333333333)"><rect width="6" height="6"/></g>
<g transform="translate(480,480) scale(3.4333333333333)"><circle cx="3" cy="3" r="3"/></g>
<g transform="translate(520,480) scale(3.4333333333333)"><rect width="6" height="6"/></g>
<g transform="translate(540,480) scale(3.4333333333333)"><rect width="6" height="6"/></g>
<g transform="translate(560,480) scale(3.4333333333333)"><rect width="6" height="6"/></g>
<g transform="translate(580,480) scale(3.4333333333333)"><rect width="6" height="6"/></g>
<g transform="translate(600,480) scale(3.4333333333333)"><rect width="6" height="6"/></g>
<g transform="translate(620,480) scale(3.4333333333333)"><rect width="6" height="6"/></g>
<g transform="translate(640,480) scale(3.4333333333333)"><rect width="6" height="6"/></g>
<g transform="translate(680,480) scale(3.4333333333333)"><circle cx="3" cy="3" r="3"/></g>
<g transform="translate(720,480) scale(3.4333333333333)"><path d="M6,6H3C1.3,6,0,4.7,0,3v0c0-1.7,1.3-3,3-3h3C6,0,6,6,6,6z"/></g>
<g transform="translate(740,480) scale(3.4333333333333)"><rect width="6" height="6"/></g>
<g transform="translate(760,480) scale(3.4333333333333)"><rect width="6" height="6"/></g>
<g transform="translate(800,480) scale(3.4333333333333)"><circle cx="3" cy="3" r="3"/></g>
<g transform="translate(840,480) scale(3.4333333333333)"><rect width="6" height="6"/></g>
<g transform="translate(860,480) scale(3.4333333333333)"><rect width="6" height="6"/></g>
<g transform="translate(900,480) scale(3.4333333333333)"><path d="M6,6H0V3c0-1.7,1.3-3,3-3h0c1.7,0,3,1.3,3,3V6z"/></g>
<g transform="translate(120,500) scale(3.4333333333333)"><rect width="6" height="6"/></g>
<g transform="translate(200,500) scale(3.4333333333333)"><rect width="6" height="6"/></g>
<g transform="translate(260,500) scale(3.4333333333333)"><path d="M6,6H3C1.3,6,0,4.7,0,3v0c0-1.7,1.3-3,3-3h3C6,0,6,6,6,6z"/></g>
<g transform="translate(280,500) scale(3.4333333333333)"><rect width="6" height="6"/></g>
<g transform="translate(400,500) scale(3.4333333333333)"><path d="M6,6H3C1.3,6,0,4.7,0,3v0c0-1.7,1.3-3,3-3h3C6,0,6,6,6,6z"/></g>
<g transform="translate(420,500) scale(3.4333333333333)"><rect width="6" height="6"/></g>
<g transform="translate(440,500) scale(3.4333333333333)"><rect width="6" height="6"/></g>
<g transform="translate(520,500) scale(3.4333333333333)"><rect width="6" height="6"/></g>
<g transform="translate(540,500) scale(3.4333333333333)"><rect width="6" height="6"/></g>
<g transform="translate(560,500) scale(3.4333333333333)"><path d="M3,6H0V0l6,0v3C6,4.7,4.7,6,3,6z"/></g>
<g transform="translate(600,500) scale(3.4333333333333)"><rect width="6" height="6"/></g>
<g transform="translate(620,500) scale(3.4333333333333)"><rect width="6" height="6"/></g>
<g transform="translate(640,500) scale(3.4333333333333)"><path d="M3,6H0V0l6,0v3C6,4.7,4.7,6,3,6z"/></g>
<g transform="translate(760,500) scale(3.4333333333333)"><rect width="6" height="6"/></g>
<g transform="translate(840,500) scale(3.4333333333333)"><rect width="6" height="6"/></g>
<g transform="translate(860,500) scale(3.4333333333333)"><rect width="6" height="6"/></g>
<g transform="translate(880,500) scale(3.4333333333333)"><rect width="6" height="6"/></g>
<g transform="translate(900,500) scale(3.4333333333333)"><path d="M3,6H0V0l6,0v3C6,4.7,4.7,6,3,6z"/></g>
<g transform="translate(60,520) scale(3.4333333333333)"><path d="M6,6H0V3c0-1.7,1.3-3,3-3h0c1.7,0,3,1.3,3,3V6z"/></g>
<g transform="translate(120,520) scale(3.4333333333333)"><path d="M6,6H3C1.3,6,0,4.7,0,3V0l6,0V6z"/></g>
<g transform="translate(140,520) scale(3.4333333333333)"><rect width="6" height="6"/></g>
<g transform="translate(160,520) scale(3.4333333333333)"><rect width="6" height="6"/></g>
<g transform="translate(180,520) scale(3.4333333333333)"><rect width="6" height="6"/></g>
<g transform="translate(200,520) scale(3.4333333333333)"><rect width="6" height="6"/></g>
<g transform="translate(220,520) scale(3.4333333333333)"><rect width="6" height="6"/></g>
<g transform="translate(240,520) scale(3.4333333333333)"><path d="M3,6H0V0l3,0c1.7,0,3,1.3,3,3v0C6,4.7,4.7,6,3,6z"/></g>
<g transform="translate(280,520) scale(3.4333333333333)"><rect width="6" height="6"/></g>
<g transform="translate(300,520) scale(3.4333333333333)"><path d="M3,6H0V0l3,0c1.7,0,3,1.3,3,3v0C6,4.7,4.7,6,3,6z"/></g>
<g transform="translate(420,520) scale(3.4333333333333)"><rect width="6" height="6"/></g>
<g transform="translate(440,520) scale(3.4333333333333)"><rect width="6" height="6"/></g>
<g transform="translate(460,520) scale(3.4333333333333)"><rect width="6" height="6"/></g>
<g transform="translate(480,520) scale(3.4333333333333)"><rect width="6" height="6"/></g>
<g transform="translate(500,520) scale(3.4333333333333)"><rect width="6" height="6"/></g>
<g transform="translate(520,520) scale(3.4333333333333)"><rect width="6" height="6"/></g>
<g transform="translate(540,520) scale(3.4333333333333)"><path d="M3,6H0V0l6,0v3C6,4.7,4.7,6,3,6z"/></g>
<g transform="translate(600,520) scale(3.4333333333333)"><rect width="6" height="6"/></g>
<g transform="translate(620,520) scale(3.4333333333333)"><rect width="6" height="6"/></g>
<g transform="translate(660,520) scale(3.4333333333333)"><path d="M6,6H3C1.3,6,0,4.7,0,3v0c0-1.7,1.3-3,3-3h3C6,0,6,6,6,6z"/></g>
<g transform="translate(680,520) scale(3.4333333333333)"><rect width="6" height="6"/></g>
<g transform="translate(700,520) scale(3.4333333333333)"><path d="M3,6H0V0l3,0c1.7,0,3,1.3,3,3v0C6,4.7,4.7,6,3,6z"/></g>
<g transform="translate(760,520) scale(3.4333333333333)"><path d="M6,6H3C1.3,6,0,4.7,0,3V0l6,0V6z"/></g>
<g transform="translate(780,520) scale(3.4333333333333)"><rect width="6" height="6"/></g>
<g transform="translate(800,520) scale(3.4333333333333)"><rect width="6" height="6"/></g>
<g transform="translate(820,520) scale(3.4333333333333)"><rect width="6" height="6"/></g>
<g transform="translate(840,520) scale(3.4333333333333)"><path d="M3,6H0V0l6,0v3C6,4.7,4.7,6,3,6z"/></g>
<g transform="translate(60,540) scale(3.4333333333333)"><path d="M6,6H3C1.3,6,0,4.7,0,3V0l6,0V6z"/></g>
<g transform="translate(80,540) scale(3.4333333333333)"><rect width="6" height="6"/></g>
<g transform="translate(100,540) scale(3.4333333333333)"><path d="M3,6H0V0l3,0c1.7,0,3,1.3,3,3v0C6,4.7,4.7,6,3,6z"/></g>
<g transform="translate(200,540) scale(3.4333333333333)"><rect width="6" height="6"/></g>
<g transform="translate(260,540) scale(3.4333333333333)"><path d="M6,6H3C1.3,6,0,4.7,0,3v0c0-1.7,1.3-3,3-3h3C6,0,6,6,6,6z"/></g>
<g transform="translate(280,540) scale(3.4333333333333)"><rect width="6" height="6"/></g>
<g transform="translate(320,540) scale(3.4333333333333)"><circle cx="3" cy="3" r="3"/></g>
<g transform="translate(420,540) scale(3.4333333333333)"><path d="M3,6L3,6C1.3,6,0,4.7,0,3V0h6v3C6,4.7,4.7,6,3,6z"/></g>
<g transform="translate(460,540) scale(3.4333333333333)"><rect width="6" height="6"/></g>
<g transform="translate(520,540) scale(3.4333333333333)"><path d="M3,6L3,6C1.3,6,0,4.7,0,3V0h6v3C6,4.7,4.7,6,3,6z"/></g>
<g transform="translate(600,540) scale(3.4333333333333)"><path d="M6,6H3C1.3,6,0,4.7,0,3V0l6,0V6z"/></g>
<g transform="translate(620,540) scale(3.4333333333333)"><rect width="6" height="6"/></g>
<g transform="translate(640,540) scale(3.4333333333333)"><path d="M6,6H0V0l3,0c1.7,0,3,1.3,3,3V6z"/></g>
<g transform="translate(680,540) scale(3.4333333333333)"><rect width="6" height="6"/></g>
<g transform="translate(740,540) scale(3.4333333333333)"><circle cx="3" cy="3" r="3"/></g>
<g transform="translate(820,540) scale(3.4333333333333)"><path d="M3,6L3,6C1.3,6,0,4.7,0,3V0h6v3C6,4.7,4.7,6,3,6z"/></g>
<g transform="translate(920,540) scale(3.4333333333333)"><circle cx="3" cy="3" r="3"/></g>
<g transform="translate(40,560) scale(3.4333333333333)"><path d="M6,6H0V3c0-1.7,1.3-3,3-3h0c1.7,0,3,1.3,3,3V6z"/></g>
<g transform="translate(140,560) scale(3.4333333333333)"><path d="M6,6H0V3c0-1.7,1.3-3,3-3l3,0V6z"/></g>
<g transform="translate(160,560) scale(3.4333333333333)"><rect width="6" height="6"/></g>
<g transform="translate(180,560) scale(3.4333333333333)"><rect width="6" height="6"/></g>
<g transform="translate(200,560) scale(3.4333333333333)"><rect width="6" height="6"/></g>
<g transform="translate(220,560) scale(3.4333333333333)"><path d="M3,6H0V0l3,0c1.7,0,3,1.3,3,3v0C6,4.7,4.7,6,3,6z"/></g>
<g transform="translate(280,560) scale(3.4333333333333)"><rect width="6" height="6"/></g>
<g transform="translate(400,560) scale(3.4333333333333)"><circle cx="3" cy="3" r="3"/></g>
<g transform="translate(440,560) scale(3.4333333333333)"><path d="M6,6H3C1.3,6,0,4.7,0,3v0c0-1.7,1.3-3,3-3h3C6,0,6,6,6,6z"/></g>
<g transform="translate(460,560) scale(3.4333333333333)"><rect width="6" height="6"/></g>
<g transform="translate(480,560) scale(3.4333333333333)"><path d="M6,6H0V0l3,0c1.7,0,3,1.3,3,3V6z"/></g>
<g transform="translate(580,560) scale(3.4333333333333)"><circle cx="3" cy="3" r="3"/></g>
<g transform="translate(620,560) scale(3.4333333333333)"><rect width="6" height="6"/></g>
<g transform="translate(640,560) scale(3.4333333333333)"><rect width="6" height="6"/></g>
<g transform="translate(660,560) scale(3.4333333333333)"><rect width="6" height="6"/></g>
<g transform="translate(680,560) scale(3.4333333333333)"><rect width="6" height="6"/></g>
<g transform="translate(720,560) scale(3.4333333333333)"><circle cx="3" cy="3" r="3"/></g>
<g transform="translate(760,560) scale(3.4333333333333)"><path d="M6,6H3C1.3,6,0,4.7,0,3v0c0-1.7,1.3-3,3-3h3C6,0,6,6,6,6z"/></g>
<g transform="translate(780,560) scale(3.4333333333333)"><path d="M6,6H0V0l3,0c1.7,0,3,1.3,3,3V6z"/></g>
<g transform="translate(860,560) scale(3.4333333333333)"><path d="M6,6H0V3c0-1.7,1.3-3,3-3l3,0V6z"/></g>
<g transform="translate(880,560) scale(3.4333333333333)"><rect width="6" height="6"/></g>
<g transform="translate(900,560) scale(3.4333333333333)"><path d="M3,6H0V0l3,0c1.7,0,3,1.3,3,3v0C6,4.7,4.7,6,3,6z"/></g>
<g transform="translate(40,580) scale(3.4333333333333)"><rect width="6" height="6"/></g>
<g transform="translate(60,580) scale(3.4333333333333)"><path d="M3,6H0V0l3,0c1.7,0,3,1.3,3,3v0C6,4.7,4.7,6,3,6z"/></g>
<g transform="translate(100,580) scale(3.4333333333333)"><path d="M6,6H0V3c0-1.7,1.3-3,3-3l3,0V6z"/></g>
<g transform="translate(120,580) scale(3.4333333333333)"><rect width="6" height="6"/></g>
<g transform="translate(140,580) scale(3.4333333333333)"><path d="M3,6H0V0l6,0v3C6,4.7,4.7,6,3,6z"/></g>
<g transform="translate(200,580) scale(3.4333333333333)"><path d="M3,6L3,6C1.3,6,0,4.7,0,3V0h6v3C6,4.7,4.7,6,3,6z"/></g>
<g transform="translate(260,580) scale(3.4333333333333)"><path d="M6,6H0V3c0-1.7,1.3-3,3-3l3,0V6z"/></g>
<g transform="translate(280,580) scale(3.4333333333333)"><rect width="6" height="6"/></g>
<g transform="translate(320,580) scale(3.4333333333333)"><path d="M6,6H0V3c0-1.7,1.3-3,3-3l3,0V6z"/></g>
<g transform="translate(340,580) scale(3.4333333333333)"><path d="M6,6H0V0l3,0c1.7,0,3,1.3,3,3V6z"/></g>
<g transform="translate(460,580) scale(3.4333333333333)"><path d="M6,6H3C1.3,6,0,4.7,0,3V0l6,0V6z"/></g>
<g transform="translate(480,580) scale(3.4333333333333)"><rect width="6" height="6"/></g>
<g transform="translate(520,580) scale(3.4333333333333)"><path d="M6,6H3C1.3,6,0,4.7,0,3v0c0-1.7,1.3-3,3-3h3C6,0,6,6,6,6z"/></g>
<g transform="translate(540,580) scale(3.4333333333333)"><path d="M3,6H0V0l3,0c1.7,0,3,1.3,3,3v0C6,4.7,4.7,6,3,6z"/></g>
<g transform="translate(620,580) scale(3.4333333333333)"><path d="M6,6H3C1.3,6,0,4.7,0,3V0l6,0V6z"/></g>
<g transform="translate(640,580) scale(3.4333333333333)"><rect width="6" height="6"/></g>
<g transform="translate(660,580) scale(3.4333333333333)"><rect width="6" height="6"/></g>
<g transform="translate(680,580) scale(3.4333333333333)"><rect width="6" height="6"/></g>
<g transform="translate(700,580) scale(3.4333333333333)"><path d="M6,6H0V0l3,0c1.7,0,3,1.3,3,3V6z"/></g>
<g transform="translate(740,580) scale(3.4333333333333)"><circle cx="3" cy="3" r="3"/></g>
<g transform="translate(780,580) scale(3.4333333333333)"><rect width="6" height="6"/></g>
<g transform="translate(800,580) scale(3.4333333333333)"><path d="M3,6H0V0l3,0c1.7,0,3,1.3,3,3v0C6,4.7,4.7,6,3,6z"/></g>
<g transform="translate(860,580) scale(3.4333333333333)"><path d="M6,6H3C1.3,6,0,4.7,0,3V0l6,0V6z"/></g>
<g transform="translate(880,580) scale(3.4333333333333)"><path d="M3,6H0V0l6,0v3C6,4.7,4.7,6,3,6z"/></g>
<g transform="translate(920,580) scale(3.4333333333333)"><circle cx="3" cy="3" r="3"/></g>
<g transform="translate(40,600) scale(3.4333333333333)"><rect width="6" height="6"/></g>
<g transform="translate(80,600) scale(3.4333333333333)"><path d="M6,6H0V3c0-1.7,1.3-3,3-3l3,0V6z"/></g>
<g transform="translate(100,600) scale(3.4333333333333)"><rect width="6" height="6"/></g>
<g transform="translate(160,600) scale(3.4333333333333)"><path d="M6,6H3C1.3,6,0,4.7,0,3v0c0-1.7,1.3-3,3-3h3C6,0,6,6,6,6z"/></g>
<g transform="translate(180,600) scale(3.4333333333333)"><path d="M3,6H0V0l3,0c1.7,0,3,1.3,3,3v0C6,4.7,4.7,6,3,6z"/></g>
<g transform="translate(240,600) scale(3.4333333333333)"><path d="M6,6H0V3c0-1.7,1.3-3,3-3l3,0V6z"/></g>
<g transform="translate(260,600) scale(3.4333333333333)"><rect width="6" height="6"/></g>
<g transform="translate(280,600) scale(3.4333333333333)"><rect width="6" height="6"/></g>
<g transform="translate(300,600) scale(3.4333333333333)"><rect width="6" height="6"/></g>
<g transform="translate(320,600) scale(3.4333333333333)"><rect width="6" height="6"/></g>
<g transform="translate(340,600) scale(3.4333333333333)"><rect width="6" height="6"/></g>
<g transform="translate(360,600) scale(3.4333333333333)"><rect width="6" height="6"/></g>
<g transform="translate(380,600) scale(3.4333333333333)"><path d="M6,6H0V0l3,0c1.7,0,3,1.3,3,3V6z"/></g>
<g transform="translate(440,600) scale(3.4333333333333)"><path d="M6,6H0V3c0-1.7,1.3-3,3-3h0c1.7,0,3,1.3,3,3V6z"/></g>
<g transform="translate(480,600) scale(3.4333333333333)"><path d="M3,6L3,6C1.3,6,0,4.7,0,3V0h6v3C6,4.7,4.7,6,3,6z"/></g>
<g transform="translate(560,600) scale(3.4333333333333)"><path d="M6,6H0V3c0-1.7,1.3-3,3-3h0c1.7,0,3,1.3,3,3V6z"/></g>
<g transform="translate(600,600) scale(3.4333333333333)"><path d="M6,6H0V3c0-1.7,1.3-3,3-3h0c1.7,0,3,1.3,3,3V6z"/></g>
<g transform="translate(640,600) scale(3.4333333333333)"><rect width="6" height="6"/></g>
<g transform="translate(660,600) scale(3.4333333333333)"><path d="M3,6H0V0l6,0v3C6,4.7,4.7,6,3,6z"/></g>
<g transform="translate(700,600) scale(3.4333333333333)"><path d="M3,6L3,6C1.3,6,0,4.7,0,3V0h6v3C6,4.7,4.7,6,3,6z"/></g>
<g transform="translate(780,600) scale(3.4333333333333)"><path d="M3,6L3,6C1.3,6,0,4.7,0,3V0h6v3C6,4.7,4.7,6,3,6z"/></g>
<g transform="translate(840,600) scale(3.4333333333333)"><circle cx="3" cy="3" r="3"/></g>
<g transform="translate(900,600) scale(3.4333333333333)"><path d="M6,6H0V3c0-1.7,1.3-3,3-3h0c1.7,0,3,1.3,3,3V6z"/></g>
<g transform="translate(40,620) scale(3.4333333333333)"><path d="M3,6L3,6C1.3,6,0,4.7,0,3V0h6v3C6,4.7,4.7,6,3,6z"/></g>
<g transform="translate(80,620) scale(3.4333333333333)"><path d="M6,6H3C1.3,6,0,4.7,0,3V0l6,0V6z"/></g>
<g transform="translate(100,620) scale(3.4333333333333)"><rect width="6" height="6"/></g>
<g transform="translate(140,620) scale(3.4333333333333)"><path d="M6,6H0V3c0-1.7,1.3-3,3-3h0c1.7,0,3,1.3,3,3V6z"/></g>
<g transform="translate(200,620) scale(3.4333333333333)"><circle cx="3" cy="3" r="3"/></g>
<g transform="translate(240,620) scale(3.4333333333333)"><path d="M3,6L3,6C1.3,6,0,4.7,0,3V0h6v3C6,4.7,4.7,6,3,6z"/></g>
<g transform="translate(280,620) scale(3.4333333333333)"><path d="M3,6L3,6C1.3,6,0,4.7,0,3V0h6v3C6,4.7,4.7,6,3,6z"/></g>
<g transform="translate(340,620) scale(3.4333333333333)"><rect width="6" height="6"/></g>
<g transform="translate(360,620) scale(3.4333333333333)"><rect width="6" height="6"/></g>
<g transform="translate(380,620) scale(3.4333333333333)"><path d="M3,6H0V0l6,0v3C6,4.7,4.7,6,3,6z"/></g>
<g transform="translate(420,620) scale(3.4333333333333)"><path d="M6,6H0V3c0-1.7,1.3-3,3-3l3,0V6z"/></g>
<g transform="translate(440,620) scale(3.4333333333333)"><path d="M3,6H0V0l6,0v3C6,4.7,4.7,6,3,6z"/></g>
<g transform="translate(520,620) scale(3.4333333333333)"><path d="M6,6H0V3c0-1.7,1.3-3,3-3h0c1.7,0,3,1.3,3,3V6z"/></g>
<g transform="translate(560,620) scale(3.4333333333333)"><rect width="6" height="6"/></g>
<g transform="translate(580,620) scale(3.4333333333333)"><rect width="6" height="6"/></g>
<g transform="translate(600,620) scale(3.4333333333333)"><rect width="6" height="6"/></g>
<g transform="translate(620,620) scale(3.4333333333333)"><rect width="6" height="6"/></g>
<g transform="translate(640,620) scale(3.4333333333333)"><rect width="6" height="6"/></g>
<g transform="translate(760,620) scale(3.4333333333333)"><circle cx="3" cy="3" r="3"/></g>
<g transform="translate(800,620) scale(3.4333333333333)"><circle cx="3" cy="3" r="3"/></g>
<g transform="translate(860,620) scale(3.4333333333333)"><path d="M6,6H0V3c0-1.7,1.3-3,3-3l3,0V6z"/></g>
<g transform="translate(880,620) scale(3.4333333333333)"><rect width="6" height="6"/></g>
<g transform="translate(900,620) scale(3.4333333333333)"><rect width="6" height="6"/></g>
<g transform="translate(920,620) scale(3.4333333333333)"><path d="M3,6H0V0l3,0c1.7,0,3,1.3,3,3v0C6,4.7,4.7,6,3,6z"/></g>
<g transform="translate(100,640) scale(3.4333333333333)"><rect width="6" height="6"/></g>
<g transform="translate(120,640) scale(3.4333333333333)"><rect width="6" height="6"/></g>
<g transform="translate(140,640) scale(3.4333333333333)"><rect width="6" height="6"/></g>
<g transform="translate(160,640) scale(3.4333333333333)"><rect width="6" height="6"/></g>
<g transform="translate(180,640) scale(3.4333333333333)"><path d="M3,6H0V0l3,0c1.7,0,3,1.3,3,3v0C6,4.7,4.7,6,3,6z"/></g>
<g transform="translate(260,640) scale(3.4333333333333)"><circle cx="3" cy="3" r="3"/></g>
<g transform="translate(340,640) scale(3.4333333333333)"><path d="M3,6L3,6C1.3,6,0,4.7,0,3V0h6v3C6,4.7,4.7,6,3,6z"/></g>
<g transform="translate(420,640) scale(3.4333333333333)"><path d="M3,6L3,6C1.3,6,0,4.7,0,3V0h6v3C6,4.7,4.7,6,3,6z"/></g>
<g transform="translate(460,640) scale(3.4333333333333)"><path d="M6,6H3C1.3,6,0,4.7,0,3v0c0-1.7,1.3-3,3-3h3C6,0,6,6,6,6z"/></g>
<g transform="translate(480,640) scale(3.4333333333333)"><path d="M6,6H0V0l3,0c1.7,0,3,1.3,3,3V6z"/></g>
<g transform="translate(520,640) scale(3.4333333333333)"><path d="M3,6L3,6C1.3,6,0,4.7,0,3V0h6v3C6,4.7,4.7,6,3,6z"/></g>
<g transform="translate(560,640) scale(3.4333333333333)"><path d="M6,6H3C1.3,6,0,4.7,0,3V0l6,0V6z"/></g>
<g transform="translate(580,640) scale(3.4333333333333)"><path d="M3,6H0V0l6,0v3C6,4.7,4.7,6,3,6z"/></g>
<g transform="translate(620,640) scale(3.4333333333333)"><path d="M6,6H3C1.3,6,0,4.7,0,3V0l6,0V6z"/></g>
<g transform="translate(640,640) scale(3.4333333333333)"><rect width="6" height="6"/></g>
<g transform="translate(660,640) scale(3.4333333333333)"><rect width="6" height="6"/></g>
<g transform="translate(680,640) scale(3.4333333333333)"><rect width="6" height="6"/></g>
<g transform="translate(700,640) scale(3.4333333333333)"><rect width="6" height="6"/></g>
<g transform="translate(720,640) scale(3.4333333333333)"><rect width="6" height="6"/></g>
<g transform="translate(740,640) scale(3.4333333333333)"><path d="M3,6H0V0l3,0c1.7,0,3,1.3,3,3v0C6,4.7,4.7,6,3,6z"/></g>
<g transform="translate(820,640) scale(3.4333333333333)"><circle cx="3" cy="3" r="3"/></g>
<g transform="translate(860,640) scale(3.4333333333333)"><rect width="6" height="6"/></g>
<g transform="translate(880,640) scale(3.4333333333333)"><rect width="6" height="6"/></g>
<g transform="translate(900,640) scale(3.4333333333333)"><rect width="6" height="6"/></g>
<g transform="translate(100,660) scale(3.4333333333333)"><rect width="6" height="6"/></g>
<g transform="translate(120,660) scale(3.4333333333333)"><path d="M3,6H0V0l6,0v3C6,4.7,4.7,6,3,6z"/></g>
<g transform="translate(220,660) scale(3.4333333333333)"><path d="M6,6H0V3c0-1.7,1.3-3,3-3l3,0V6z"/></g>
<g transform="translate(240,660) scale(3.4333333333333)"><path d="M3,6H0V0l3,0c1.7,0,3,1.3,3,3v0C6,4.7,4.7,6,3,6z"/></g>
<g transform="translate(300,660) scale(3.4333333333333)"><path d="M6,6H3C1.3,6,0,4.7,0,3v0c0-1.7,1.3-3,3-3h3C6,0,6,6,6,6z"/></g>
<g transform="translate(320,660) scale(3.4333333333333)"><path d="M3,6H0V0l3,0c1.7,0,3,1.3,3,3v0C6,4.7,4.7,6,3,6z"/></g>
<g transform="translate(380,660) scale(3.4333333333333)"><path d="M6,6H0V3c0-1.7,1.3-3,3-3h0c1.7,0,3,1.3,3,3V6z"/></g>
<g transform="translate(440,660) scale(3.4333333333333)"><path d="M6,6H0V3c0-1.7,1.3-3,3-3h0c1.7,0,3,1.3,3,3V6z"/></g>
<g transform="translate(480,660) scale(3.4333333333333)"><path d="M6,6H3C1.3,6,0,4.7,0,3V0l6,0V6z"/></g>
<g transform="translate(500,660) scale(3.4333333333333)"><path d="M6,6H0V0l3,0c1.7,0,3,1.3,3,3V6z"/></g>
<g transform="translate(660,660) scale(3.4333333333333)"><rect width="6" height="6"/></g>
<g transform="translate(720,660) scale(3.4333333333333)"><path d="M3,6L3,6C1.3,6,0,4.7,0,3V0h6v3C6,4.7,4.7,6,3,6z"/></g>
<g transform="translate(760,660) scale(3.4333333333333)"><path d="M6,6H0V3c0-1.7,1.3-3,3-3l3,0V6z"/></g>
<g transform="translate(780,660) scale(3.4333333333333)"><path d="M3,6H0V0l3,0c1.7,0,3,1.3,3,3v0C6,4.7,4.7,6,3,6z"/></g>
<g transform="translate(860,660) scale(3.4333333333333)"><path d="M6,6H3C1.3,6,0,4.7,0,3V0l6,0V6z"/></g>
<g transform="translate(880,660) scale(3.4333333333333)"><rect width="6" height="6"/></g>
<g transform="translate(900,660) scale(3.4333333333333)"><rect width="6" height="6"/></g>
<g transform="translate(40,680) scale(3.4333333333333)"><path d="M6,6H0V3c0-1.7,1.3-3,3-3l3,0V6z"/></g>
<g transform="translate(60,680) scale(3.4333333333333)"><rect width="6" height="6"/></g>
<g transform="translate(80,680) scale(3.4333333333333)"><rect width="6" height="6"/></g>
<g transform="translate(100,680) scale(3.4333333333333)"><path d="M3,6H0V0l6,0v3C6,4.7,4.7,6,3,6z"/></g>
<g transform="translate(140,680) scale(3.4333333333333)"><path d="M6,6H0V3c0-1.7,1.3-3,3-3l3,0V6z"/></g>
<g transform="translate(160,680) scale(3.4333333333333)"><rect width="6" height="6"/></g>
<g transform="translate(180,680) scale(3.4333333333333)"><path d="M3,6H0V0l3,0c1.7,0,3,1.3,3,3v0C6,4.7,4.7,6,3,6z"/></g>
<g transform="translate(220,680) scale(3.4333333333333)"><path d="M3,6L3,6C1.3,6,0,4.7,0,3V0h6v3C6,4.7,4.7,6,3,6z"/></g>
<g transform="translate(260,680) scale(3.4333333333333)"><path d="M6,6H0V3c0-1.7,1.3-3,3-3l3,0V6z"/></g>
<g transform="translate(280,680) scale(3.4333333333333)"><path d="M6,6H0V0l3,0c1.7,0,3,1.3,3,3V6z"/></g>
<g transform="translate(340,680) scale(3.4333333333333)"><path d="M6,6H3C1.3,6,0,4.7,0,3v0c0-1.7,1.3-3,3-3h3C6,0,6,6,6,6z"/></g>
<g transform="translate(360,680) scale(3.4333333333333)"><rect width="6" height="6"/></g>
<g transform="translate(380,680) scale(3.4333333333333)"><path d="M3,6H0V0l6,0v3C6,4.7,4.7,6,3,6z"/></g>
<g transform="translate(420,680) scale(3.4333333333333)"><path d="M6,6H0V3c0-1.7,1.3-3,3-3l3,0V6z"/></g>
<g transform="translate(440,680) scale(3.4333333333333)"><rect width="6" height="6"/></g>
<g transform="translate(460,680) scale(3.4333333333333)"><path d="M6,6H0V0l3,0c1.7,0,3,1.3,3,3V6z"/></g>
<g transform="translate(500,680) scale(3.4333333333333)"><path d="M6,6H3C1.3,6,0,4.7,0,3V0l6,0V6z"/></g>
<g transform="translate(520,680) scale(3.4333333333333)"><rect width="6" height="6"/></g>
<g transform="translate(540,680) scale(3.4333333333333)"><rect width="6" height="6"/></g>
<g transform="translate(560,680) scale(3.4333333333333)"><rect width="6" height="6"/></g>
<g transform="translate(580,680) scale(3.4333333333333)"><rect width="6" height="6"/></g>
<g transform="translate(600,680) scale(3.4333333333333)"><rect width="6" height="6"/></g>
<g transform="translate(620,680) scale(3.4333333333333)"><path d="M6,6H0V0l3,0c1.7,0,3,1.3,3,3V6z"/></g>
<g transform="translate(660,680) scale(3.4333333333333)"><rect width="6" height="6"/></g>
<g transform="translate(680,680) scale(3.4333333333333)"><rect width="6" height="6"/></g>
<g transform="translate(700,680) scale(3.4333333333333)"><path d="M3,6H0V0l3,0c1.7,0,3,1.3,3,3v0C6,4.7,4.7,6,3,6z"/></g>
<g transform="translate(760,680) scale(3.4333333333333)"><rect width="6" height="6"/></g>
<g transform="translate(820,680) scale(3.4333333333333)"><path d="M6,6H3C1.3,6,0,4.7,0,3v0c0-1.7,1.3-3,3-3h3C6,0,6,6,6,6z"/></g>
<g transform="translate(840,680) scale(3.4333333333333)"><path d="M3,6H0V0l3,0c1.7,0,3,1.3,3,3v0C6,4.7,4.7,6,3,6z"/></g>
<g transform="translate(900,680) scale(3.4333333333333)"><rect width="6" height="6"/></g>
<g transform="translate(40,700) scale(3.4333333333333)"><path d="M6,6H3C1.3,6,0,4.7,0,3V0l6,0V6z"/></g>
<g transform="translate(60,700) scale(3.4333333333333)"><path d="M3,6H0V0l6,0v3C6,4.7,4.7,6,3,6z"/></g>
<g transform="translate(140,700) scale(3.4333333333333)"><path d="M3,6L3,6C1.3,6,0,4.7,0,3V0h6v3C6,4.7,4.7,6,3,6z"/></g>
<g transform="translate(260,700) scale(3.4333333333333)"><path d="M6,6H3C1.3,6,0,4.7,0,3V0l6,0V6z"/></g>
<g transform="translate(280,700) scale(3.4333333333333)"><rect width="6" height="6"/></g>
<g transform="translate(300,700) scale(3.4333333333333)"><path d="M6,6H0V0l3,0c1.7,0,3,1.3,3,3V6z"/></g>
<g transform="translate(400,700) scale(3.4333333333333)"><path d="M6,6H3C1.3,6,0,4.7,0,3v0c0-1.7,1.3-3,3-3h3C6,0,6,6,6,6z"/></g>
<g transform="translate(420,700) scale(3.4333333333333)"><path d="M3,6H0V0l6,0v3C6,4.7,4.7,6,3,6z"/></g>
<g transform="translate(460,700) scale(3.4333333333333)"><path d="M3,6L3,6C1.3,6,0,4.7,0,3V0h6v3C6,4.7,4.7,6,3,6z"/></g>
<g transform="translate(540,700) scale(3.4333333333333)"><path d="M3,6L3,6C1.3,6,0,4.7,0,3V0h6v3C6,4.7,4.7,6,3,6z"/></g>
<g transform="translate(600,700) scale(3.4333333333333)"><rect width="6" height="6"/></g>
<g transform="translate(620,700) scale(3.4333333333333)"><rect width="6" height="6"/></g>
<g transform="translate(660,700) scale(3.4333333333333)"><path d="M6,6H3C1.3,6,0,4.7,0,3V0l6,0V6z"/></g>
<g transform="translate(680,700) scale(3.4333333333333)"><path d="M3,6H0V0l6,0v3C6,4.7,4.7,6,3,6z"/></g>
<g transform="translate(760,700) scale(3.4333333333333)"><rect width="6" height="6"/></g>
<g transform="translate(800,700) scale(3.4333333333333)"><circle cx="3" cy="3" r="3"/></g>
<g transform="translate(860,700) scale(3.4333333333333)"><path d="M6,6H3C1.3,6,0,4.7,0,3v0c0-1.7,1.3-3,3-3h3C6,0,6,6,6,6z"/></g>
<g transform="translate(880,700) scale(3.4333333333333)"><rect width="6" height="6"/></g>
<g transform="translate(900,700) scale(3.4333333333333)"><rect width="6" height="6"/></g>
<g transform="translate(920,700) scale(3.4333333333333)"><path d="M3,6H0V0l3,0c1.7,0,3,1.3,3,3v0C6,4.7,4.7,6,3,6z"/></g>
<g transform="translate(120,720) scale(3.4333333333333)"><path d="M6,6H0V3c0-1.7,1.3-3,3-3h0c1.7,0,3,1.3,3,3V6z"/></g>
<g transform="translate(160,720) scale(3.4333333333333)"><circle cx="3" cy="3" r="3"/></g>
<g transform="translate(220,720) scale(3.4333333333333)"><path d="M6,6H0V3c0-1.7,1.3-3,3-3l3,0V6z"/></g>
<g transform="translate(240,720) scale(3.4333333333333)"><path d="M3,6H0V0l3,0c1.7,0,3,1.3,3,3v0C6,4.7,4.7,6,3,6z"/></g>
<g transform="translate(280,720) scale(3.4333333333333)"><rect width="6" height="6"/></g>
<g transform="translate(300,720) scale(3.4333333333333)"><rect width="6" height="6"/></g>
<g transform="translate(320,720) scale(3.4333333333333)"><rect width="6" height="6"/></g>
<g transform="translate(340,720) scale(3.4333333333333)"><path d="M3,6H0V0l3,0c1.7,0,3,1.3,3,3v0C6,4.7,4.7,6,3,6z"/></g>
<g transform="translate(380,720) scale(3.4333333333333)"><path d="M6,6H0V3c0-1.7,1.3-3,3-3h0c1.7,0,3,1.3,3,3V6z"/></g>
<g transform="translate(440,720) scale(3.4333333333333)"><path d="M6,6H0V3c0-1.7,1.3-3,3-3h0c1.7,0,3,1.3,3,3V6z"/></g>
<g transform="translate(480,720) scale(3.4333333333333)"><path d="M6,6H0V3c0-1.7,1.3-3,3-3h0c1.7,0,3,1.3,3,3V6z"/></g>
<g transform="translate(520,720) scale(3.4333333333333)"><path d="M6,6H0V3c0-1.7,1.3-3,3-3h0c1.7,0,3,1.3,3,3V6z"/></g>
<g transform="translate(560,720) scale(3.4333333333333)"><path d="M6,6H0V3c0-1.7,1.3-3,3-3l3,0V6z"/></g>
<g transform="translate(580,720) scale(3.4333333333333)"><rect width="6" height="6"/></g>
<g transform="translate(600,720) scale(3.4333333333333)"><rect width="6" height="6"/></g>
<g transform="translate(620,720) scale(3.4333333333333)"><rect width="6" height="6"/></g>
<g transform="translate(640,720) scale(3.4333333333333)"><path d="M3,6H0V0l3,0c1.7,0,3,1.3,3,3v0C6,4.7,4.7,6,3,6z"/></g>
<g transform="translate(700,720) scale(3.4333333333333)"><path d="M6,6H0V3c0-1.7,1.3-3,3-3l3,0V6z"/></g>
<g transform="translate(720,720) scale(3.4333333333333)"><path d="M3,6H0V0l3,0c1.7,0,3,1.3,3,3v0C6,4.7,4.7,6,3,6z"/></g>
<g transform="translate(760,720) scale(3.4333333333333)"><path d="M3,6L3,6C1.3,6,0,4.7,0,3V0h6v3C6,4.7,4.7,6,3,6z"/></g>
<g transform="translate(840,720) scale(3.4333333333333)"><circle cx="3" cy="3" r="3"/></g>
<g transform="translate(880,720) scale(3.4333333333333)"><rect width="6" height="6"/></g>
<g transform="translate(900,720) scale(3.4333333333333)"><rect width="6" height="6"/></g>
<g transform="translate(60,740) scale(3.4333333333333)"><path d="M6,6H3C1.3,6,0,4.7,0,3v0c0-1.7,1.3-3,3-3h3C6,0,6,6,6,6z"/></g>
<g transform="translate(80,740) scale(3.4333333333333)"><rect width="6" height="6"/></g>
<g transform="translate(100,740) scale(3.4333333333333)"><rect width="6" height="6"/></g>
<g transform="translate(120,740) scale(3.4333333333333)"><rect width="6" height="6"/></g>
<g transform="translate(180,740) scale(3.4333333333333)"><path d="M6,6H3C1.3,6,0,4.7,0,3v0c0-1.7,1.3-3,3-3h3C6,0,6,6,6,6z"/></g>
<g transform="translate(200,740) scale(3.4333333333333)"><rect width="6" height="6"/></g>
<g transform="translate(220,740) scale(3.4333333333333)"><rect width="6" height="6"/></g>
<g transform="translate(260,740) scale(3.4333333333333)"><path d="M6,6H3C1.3,6,0,4.7,0,3v0c0-1.7,1.3-3,3-3h3C6,0,6,6,6,6z"/></g>
<g transform="translate(280,740) scale(3.4333333333333)"><rect width="6" height="6"/></g>
<g transform="translate(300,740) scale(3.4333333333333)"><rect width="6" height="6"/></g>
<g transform="translate(320,740) scale(3.4333333333333)"><rect width="6" height="6"/></g>
<g transform="translate(380,740) scale(3.4333333333333)"><path d="M3,6L3,6C1.3,6,0,4.7,0,3V0h6v3C6,4.7,4.7,6,3,6z"/></g>
<g transform="translate(440,740) scale(3.4333333333333)"><rect width="6" height="6"/></g>
<g transform="translate(480,740) scale(3.4333333333333)"><rect width="6" height="6"/></g>
<g transform="translate(500,740) scale(3.4333333333333)"><rect width="6" height="6"/></g>
<g transform="translate(520,740) scale(3.4333333333333)"><rect width="6" height="6"/></g>
<g transform="translate(560,740) scale(3.4333333333333)"><path d="M3,6L3,6C1.3,6,0,4.7,0,3V0h6v3C6,4.7,4.7,6,3,6z"/></g>
<g transform="translate(600,740) scale(3.4333333333333)"><path d="M3,6L3,6C1.3,6,0,4.7,0,3V0h6v3C6,4.7,4.7,6,3,6z"/></g>
<g transform="translate(660,740) scale(3.4333333333333)"><path d="M6,6H0V3c0-1.7,1.3-3,3-3l3,0V6z"/></g>
<g transform="translate(680,740) scale(3.4333333333333)"><rect width="6" height="6"/></g>
<g transform="translate(700,740) scale(3.4333333333333)"><rect width="6" height="6"/></g>
<g transform="translate(740,740) scale(3.4333333333333)"><circle cx="3" cy="3" r="3"/></g>
<g transform="translate(780,740) scale(3.4333333333333)"><path d="M6,6H0V3c0-1.7,1.3-3,3-3l3,0V6z"/></g>
<g transform="translate(800,740) scale(3.4333333333333)"><rect width="6" height="6"/></g>
<g transform="translate(820,740) scale(3.4333333333333)"><path d="M6,6H0V0l3,0c1.7,0,3,1.3,3,3V6z"/></g>
<g transform="translate(860,740) scale(3.4333333333333)"><path d="M6,6H3C1.3,6,0,4.7,0,3v0c0-1.7,1.3-3,3-3h3C6,0,6,6,6,6z"/></g>
<g transform="translate(880,740) scale(3.4333333333333)"><rect width="6" height="6"/></g>
<g transform="translate(900,740) scale(3.4333333333333)"><rect width="6" height="6"/></g>
<g transform="translate(40,760) scale(3.4333333333333)"><circle cx="3" cy="3" r="3"/></g>
<g transform="translate(100,760) scale(3.4333333333333)"><path d="M6,6H3C1.3,6,0,4.7,0,3V0l6,0V6z"/></g>
<g transform="translate(120,760) scale(3.4333333333333)"><path d="M3,6H0V0l6,0v3C6,4.7,4.7,6,3,6z"/></g>
<g transform="translate(160,760) scale(3.4333333333333)"><circle cx="3" cy="3" r="3"/></g>
<g transform="translate(220,760) scale(3.4333333333333)"><rect width="6" height="6"/></g>
<g transform="translate(240,760) scale(3.4333333333333)"><path d="M3,6H0V0l3,0c1.7,0,3,1.3,3,3v0C6,4.7,4.7,6,3,6z"/></g>
<g transform="translate(280,760) scale(3.4333333333333)"><rect width="6" height="6"/></g>
<g transform="translate(320,760) scale(3.4333333333333)"><path d="M3,6L3,6C1.3,6,0,4.7,0,3V0h6v3C6,4.7,4.7,6,3,6z"/></g>
<g transform="translate(400,760) scale(3.4333333333333)"><circle cx="3" cy="3" r="3"/></g>
<g transform="translate(440,760) scale(3.4333333333333)"><rect width="6" height="6"/></g>
<g transform="translate(460,760) scale(3.4333333333333)"><rect width="6" height="6"/></g>
<g transform="translate(480,760) scale(3.4333333333333)"><rect width="6" height="6"/></g>
<g transform="translate(500,760) scale(3.4333333333333)"><rect width="6" height="6"/></g>
<g transform="translate(520,760) scale(3.4333333333333)"><rect width="6" height="6"/></g>
<g transform="translate(540,760) scale(3.4333333333333)"><path d="M3,6H0V0l3,0c1.7,0,3,1.3,3,3v0C6,4.7,4.7,6,3,6z"/></g>
<g transform="translate(580,760) scale(3.4333333333333)"><circle cx="3" cy="3" r="3"/></g>
<g transform="translate(620,760) scale(3.4333333333333)"><path d="M6,6H0V3c0-1.7,1.3-3,3-3h0c1.7,0,3,1.3,3,3V6z"/></g>
<g transform="translate(660,760) scale(3.4333333333333)"><rect width="6" height="6"/></g>
<g transform="translate(700,760) scale(3.4333333333333)"><rect width="6" height="6"/></g>
<g transform="translate(760,760) scale(3.4333333333333)"><path d="M6,6H0V3c0-1.7,1.3-3,3-3l3,0V6z"/></g>
<g transform="translate(780,760) scale(3.4333333333333)"><rect width="6" height="6"/></g>
<g transform="translate(800,760) scale(3.4333333333333)"><rect width="6" height="6"/></g>
<g transform="translate(820,760) scale(3.4333333333333)"><rect width="6" height="6"/></g>
<g transform="translate(840,760) scale(3.4333333333333)"><path d="M6,6H0V0l3,0c1.7,0,3,1.3,3,3V6z"/></g>
<g transform="translate(900,760) scale(3.4333333333333)"><path d="M3,6L3,6C1.3,6,0,4.7,0,3V0h6v3C6,4.7,4.7,6,3,6z"/></g>
<g transform="translate(200,780) scale(3.4333333333333)"><path d="M6,6H3C1.3,6,0,4.7,0,3v0c0-1.7,1.3-3,3-3h3C6,0,6,6,6,6z"/></g>
<g transform="translate(220,780) scale(3.4333333333333)"><rect width="6" height="6"/></g>
<g transform="translate(260,780) scale(3.4333333333333)"><path d="M6,6H0V3c0-1.7,1.3-3,3-3l3,0V6z"/></g>
<g transform="translate(280,780) scale(3.4333333333333)"><path d="M3,6H0V0l6,0v3C6,4.7,4.7,6,3,6z"/></g>
<g transform="translate(440,780) scale(3.4333333333333)"><rect width="6" height="6"/></g>
<g transform="translate(520,780) scale(3.4333333333333)"><rect width="6" height="6"/></g>
<g transform="translate(560,780) scale(3.4333333333333)"><path d="M6,6H0V3c0-1.7,1.3-3,3-3h0c1.7,0,3,1.3,3,3V6z"/></g>
<g transform="translate(620,780) scale(3.4333333333333)"><path d="M3,6L3,6C1.3,6,0,4.7,0,3V0h6v3C6,4.7,4.7,6,3,6z"/></g>
<g transform="translate(660,780) scale(3.4333333333333)"><path d="M6,6H3C1.3,6,0,4.7,0,3V0l6,0V6z"/></g>
<g transform="translate(680,780) scale(3.4333333333333)"><rect width="6" height="6"/></g>
<g transform="translate(700,780) scale(3.4333333333333)"><path d="M3,6H0V0l6,0v3C6,4.7,4.7,6,3,6z"/></g>
<g transform="translate(760,780) scale(3.4333333333333)"><rect width="6" height="6"/></g>
<g transform="translate(840,780) scale(3.4333333333333)"><rect width="6" height="6"/></g>
<g transform="translate(920,780) scale(3.4333333333333)"><circle cx="3" cy="3" r="3"/></g>
<g transform="translate(220,800) scale(3.4333333333333)"><rect width="6" height="6"/></g>
<g transform="translate(240,800) scale(3.4333333333333)"><rect width="6" height="6"/></g>
<g transform="translate(260,800) scale(3.4333333333333)"><path d="M3,6H0V0l6,0v3C6,4.7,4.7,6,3,6z"/></g>
<g transform="translate(320,800) scale(3.4333333333333)"><circle cx="3" cy="3" r="3"/></g>
<g transform="translate(400,800) scale(3.4333333333333)"><path d="M6,6H3C1.3,6,0,4.7,0,3v0c0-1.7,1.3-3,3-3h3C6,0,6,6,6,6z"/></g>
<g transform="translate(420,800) scale(3.4333333333333)"><rect width="6" height="6"/></g>
<g transform="translate(440,800) scale(3.4333333333333)"><rect width="6" height="6"/></g>
<g transform="translate(480,800) scale(3.4333333333333)"><circle cx="3" cy="3" r="3"/></g>
<g transform="translate(520,800) scale(3.4333333333333)"><rect width="6" height="6"/></g>
<g transform="translate(560,800) scale(3.4333333333333)"><path d="M3,6L3,6C1.3,6,0,4.7,0,3V0h6v3C6,4.7,4.7,6,3,6z"/></g>
<g transform="translate(600,800) scale(3.4333333333333)"><circle cx="3" cy="3" r="3"/></g>
<g transform="translate(760,800) scale(3.4333333333333)"><rect width="6" height="6"/></g>
<g transform="translate(800,800) scale(3.4333333333333)"><circle cx="3" cy="3" r="3"/></g>
<g transform="translate(840,800) scale(3.4333333333333)"><rect width="6" height="6"/></g>
<g transform="translate(880,800) scale(3.4333333333333)"><path d="M6,6H0V3c0-1.7,1.3-3,3-3l3,0V6z"/></g>
<g transform="translate(900,800) scale(3.4333333333333)"><path d="M3,6H0V0l3,0c1.7,0,3,1.3,3,3v0C6,4.7,4.7,6,3,6z"/></g>
<g transform="translate(220,820) scale(3.4333333333333)"><path d="M3,6L3,6C1.3,6,0,4.7,0,3V0h6v3C6,4.7,4.7,6,3,6z"/></g>
<g transform="translate(300,820) scale(3.4333333333333)"><path d="M6,6H0V3c0-1.7,1.3-3,3-3h0c1.7,0,3,1.3,3,3V6z"/></g>
<g transform="translate(340,820) scale(3.4333333333333)"><path d="M6,6H0V3c0-1.7,1.3-3,3-3l3,0V6z"/></g>
<g transform="translate(360,820) scale(3.4333333333333)"><path d="M3,6H0V0l3,0c1.7,0,3,1.3,3,3v0C6,4.7,4.7,6,3,6z"/></g>
<g transform="translate(440,820) scale(3.4333333333333)"><rect width="6" height="6"/></g>
<g transform="translate(520,820) scale(3.4333333333333)"><rect width="6" height="6"/></g>
<g transform="translate(580,820) scale(3.4333333333333)"><path d="M6,6H0V3c0-1.7,1.3-3,3-3h0c1.7,0,3,1.3,3,3V6z"/></g>
<g transform="translate(640,820) scale(3.4333333333333)"><path d="M6,6H3C1.3,6,0,4.7,0,3v0c0-1.7,1.3-3,3-3h3C6,0,6,6,6,6z"/></g>
<g transform="translate(660,820) scale(3.4333333333333)"><rect width="6" height="6"/></g>
<g transform="translate(680,820) scale(3.4333333333333)"><path d="M3,6H0V0l3,0c1.7,0,3,1.3,3,3v0C6,4.7,4.7,6,3,6z"/></g>
<g transform="translate(760,820) scale(3.4333333333333)"><rect width="6" height="6"/></g>
<g transform="translate(840,820) scale(3.4333333333333)"><rect width="6" height="6"/></g>
<g transform="translate(880,820) scale(3.4333333333333)"><path d="M3,6L3,6C1.3,6,0,4.7,0,3V0h6v3C6,4.7,4.7,6,3,6z"/></g>
<g transform="translate(200,840) scale(3.4333333333333)"><path d="M6,6H0V3c0-1.7,1.3-3,3-3h0c1.7,0,3,1.3,3,3V6z"/></g>
<g transform="translate(300,840) scale(3.4333333333333)"><path d="M3,6L3,6C1.3,6,0,4.7,0,3V0h6v3C6,4.7,4.7,6,3,6z"/></g>
<g transform="translate(340,840) scale(3.4333333333333)"><rect width="6" height="6"/></g>
<g transform="translate(420,840) scale(3.4333333333333)"><path d="M6,6H3C1.3,6,0,4.7,0,3v0c0-1.7,1.3-3,3-3h3C6,0,6,6,6,6z"/></g>
<g transform="translate(440,840) scale(3.4333333333333)"><rect width="6" height="6"/></g>
<g transform="translate(460,840) scale(3.4333333333333)"><rect width="6" height="6"/></g>
<g transform="translate(480,840) scale(3.4333333333333)"><rect width="6" height="6"/></g>
<g transform="translate(500,840) scale(3.4333333333333)"><rect width="6" height="6"/></g>
<g transform="translate(520,840) scale(3.4333333333333)"><path d="M3,6H0V0l6,0v3C6,4.7,4.7,6,3,6z"/></g>
<g transform="translate(580,840) scale(3.4333333333333)"><path d="M3,6L3,6C1.3,6,0,4.7,0,3V0h6v3C6,4.7,4.7,6,3,6z"/></g>
<g transform="translate(700,840) scale(3.4333333333333)"><path d="M6,6H0V3c0-1.7,1.3-3,3-3h0c1.7,0,3,1.3,3,3V6z"/></g>
<g transform="translate(740,840) scale(3.4333333333333)"><path d="M6,6H3C1.3,6,0,4.7,0,3v0c0-1.7,1.3-3,3-3h3C6,0,6,6,6,6z"/></g>
<g transform="translate(760,840) scale(3.4333333333333)"><rect width="6" height="6"/></g>
<g transform="translate(780,840) scale(3.4333333333333)"><rect width="6" height="6"/></g>
<g transform="translate(800,840) scale(3.4333333333333)"><rect width="6" height="6"/></g>
<g transform="translate(820,840) scale(3.4333333333333)"><rect width="6" height="6"/></g>
<g transform="translate(840,840) scale(3.4333333333333)"><rect width="6" height="6"/></g>
<g transform="translate(860,840) scale(3.4333333333333)"><path d="M3,6H0V0l3,0c1.7,0,3,1.3,3,3v0C6,4.7,4.7,6,3,6z"/></g>
<g transform="translate(900,840) scale(3.4333333333333)"><circle cx="3" cy="3" r="3"/></g>
<g transform="translate(200,860) scale(3.4333333333333)"><rect width="6" height="6"/></g>
<g transform="translate(220,860) scale(3.4333333333333)"><path d="M3,6H0V0l3,0c1.7,0,3,1.3,3,3v0C6,4.7,4.7,6,3,6z"/></g>
<g transform="translate(280,860) scale(3.4333333333333)"><circle cx="3" cy="3" r="3"/></g>
<g transform="translate(320,860) scale(3.4333333333333)"><path d="M6,6H0V3c0-1.7,1.3-3,3-3l3,0V6z"/></g>
<g transform="translate(340,860) scale(3.4333333333333)"><rect width="6" height="6"/></g>
<g transform="translate(360,860) scale(3.4333333333333)"><rect width="6" height="6"/></g>
<g transform="translate(380,860) scale(3.4333333333333)"><rect width="6" height="6"/></g>
<g transform="translate(400,860) scale(3.4333333333333)"><path d="M6,6H0V0l3,0c1.7,0,3,1.3,3,3V6z"/></g>
<g transform="translate(480,860) scale(3.4333333333333)"><rect width="6" height="6"/></g>
<g transform="translate(500,860) scale(3.4333333333333)"><rect width="6" height="6"/></g>
<g transform="translate(640,860) scale(3.4333333333333)"><circle cx="3" cy="3" r="3"/></g>
<g transform="translate(680,860) scale(3.4333333333333)"><path d="M6,6H3C1.3,6,0,4.7,0,3v0c0-1.7,1.3-3,3-3h3C6,0,6,6,6,6z"/></g>
<g transform="translate(700,860) scale(3.4333333333333)"><rect width="6" height="6"/></g>
<g transform="translate(840,860) scale(3.4333333333333)"><path d="M3,6L3,6C1.3,6,0,4.7,0,3V0h6v3C6,4.7,4.7,6,3,6z"/></g>
<g transform="translate(880,860) scale(3.4333333333333)"><circle cx="3" cy="3" r="3"/></g>
<g transform="translate(920,860) scale(3.4333333333333)"><circle cx="3" cy="3" r="3"/></g>
<g transform="translate(200,880) scale(3.4333333333333)"><path d="M3,6L3,6C1.3,6,0,4.7,0,3V0h6v3C6,4.7,4.7,6,3,6z"/></g>
<g transform="translate(240,880) scale(3.4333333333333)"><path d="M6,6H3C1.3,6,0,4.7,0,3v0c0-1.7,1.3-3,3-3h3C6,0,6,6,6,6z"/></g>
<g transform="translate(260,880) scale(3.4333333333333)"><path d="M3,6H0V0l3,0c1.7,0,3,1.3,3,3v0C6,4.7,4.7,6,3,6z"/></g>
<g transform="translate(320,880) scale(3.4333333333333)"><path d="M6,6H3C1.3,6,0,4.7,0,3V0l6,0V6z"/></g>
<g transform="translate(340,880) scale(3.4333333333333)"><rect width="6" height="6"/></g>
<g transform="translate(380,880) scale(3.4333333333333)"><rect width="6" height="6"/></g>
<g transform="translate(400,880) scale(3.4333333333333)"><rect width="6" height="6"/></g>
<g transform="translate(420,880) scale(3.4333333333333)"><rect width="6" height="6"/></g>
<g transform="translate(440,880) scale(3.4333333333333)"><rect width="6" height="6"/></g>
<g transform="translate(460,880) scale(3.4333333333333)"><rect width="6" height="6"/></g>
<g transform="translate(480,880) scale(3.4333333333333)"><rect width="6" height="6"/></g>
<g transform="translate(500,880) scale(3.4333333333333)"><rect width="6" height="6"/></g>
<g transform="translate(520,880) scale(3.4333333333333)"><path d="M3,6H0V0l3,0c1.7,0,3,1.3,3,3v0C6,4.7,4.7,6,3,6z"/></g>
<g transform="translate(620,880) scale(3.4333333333333)"><path d="M6,6H0V3c0-1.7,1.3-3,3-3h0c1.7,0,3,1.3,3,3V6z"/></g>
<g transform="translate(660,880) scale(3.4333333333333)"><circle cx="3" cy="3" r="3"/></g>
<g transform="translate(700,880) scale(3.4333333333333)"><path d="M3,6L3,6C1.3,6,0,4.7,0,3V0h6v3C6,4.7,4.7,6,3,6z"/></g>
<g transform="translate(740,880) scale(3.4333333333333)"><path d="M6,6H0V3c0-1.7,1.3-3,3-3l3,0V6z"/></g>
<g transform="translate(760,880) scale(3.4333333333333)"><rect width="6" height="6"/></g>
<g transform="translate(780,880) scale(3.4333333333333)"><path d="M6,6H0V0l3,0c1.7,0,3,1.3,3,3V6z"/></g>
<g transform="translate(860,880) scale(3.4333333333333)"><path d="M6,6H0V3c0-1.7,1.3-3,3-3h0c1.7,0,3,1.3,3,3V6z"/></g>
<g transform="translate(300,900) scale(3.4333333333333)"><path d="M6,6H0V3c0-1.7,1.3-3,3-3h0c1.7,0,3,1.3,3,3V6z"/></g>
<g transform="translate(340,900) scale(3.4333333333333)"><rect width="6" height="6"/></g>
<g transform="translate(380,900) scale(3.4333333333333)"><rect width="6" height="6"/></g>
<g transform="translate(400,900) scale(3.4333333333333)"><path d="M3,6H0V0l6,0v3C6,4.7,4.7,6,3,6z"/></g>
<g transform="translate(500,900) scale(3.4333333333333)"><path d="M3,6L3,6C1.3,6,0,4.7,0,3V0h6v3C6,4.7,4.7,6,3,6z"/></g>
<g transform="translate(580,900) scale(3.4333333333333)"><path d="M6,6H0V3c0-1.7,1.3-3,3-3l3,0V6z"/></g>
<g transform="translate(600,900) scale(3.4333333333333)"><rect width="6" height="6"/></g>
<g transform="translate(620,900) scale(3.4333333333333)"><rect width="6" height="6"/></g>
<g transform="translate(640,900) scale(3.4333333333333)"><path d="M3,6H0V0l3,0c1.7,0,3,1.3,3,3v0C6,4.7,4.7,6,3,6z"/></g>
<g transform="translate(740,900) scale(3.4333333333333)"><path d="M6,6H3C1.3,6,0,4.7,0,3V0l6,0V6z"/></g>
<g transform="translate(760,900) scale(3.4333333333333)"><rect width="6" height="6"/></g>
<g transform="translate(780,900) scale(3.4333333333333)"><rect width="6" height="6"/></g>
<g transform="translate(860,900) scale(3.4333333333333)"><path d="M6,6H3C1.3,6,0,4.7,0,3V0l6,0V6z"/></g>
<g transform="translate(880,900) scale(3.4333333333333)"><path d="M3,6H0V0l3,0c1.7,0,3,1.3,3,3v0C6,4.7,4.7,6,3,6z"/></g>
<g transform="translate(220,920) scale(3.4333333333333)"><path d="M6,6H3C1.3,6,0,4.7,0,3v0c0-1.7,1.3-3,3-3h3C6,0,6,6,6,6z"/></g>
<g transform="translate(240,920) scale(3.4333333333333)"><path d="M3,6H0V0l3,0c1.7,0,3,1.3,3,3v0C6,4.7,4.7,6,3,6z"/></g>
<g transform="translate(280,920) scale(3.4333333333333)"><path d="M6,6H3C1.3,6,0,4.7,0,3v0c0-1.7,1.3-3,3-3h3C6,0,6,6,6,6z"/></g>
<g transform="translate(300,920) scale(3.4333333333333)"><rect width="6" height="6"/></g>
<g transform="translate(320,920) scale(3.4333333333333)"><rect width="6" height="6"/></g>
<g transform="translate(340,920) scale(3.4333333333333)"><path d="M3,6H0V0l6,0v3C6,4.7,4.7,6,3,6z"/></g>
<g transform="translate(380,920) scale(3.4333333333333)"><path d="M3,6L3,6C1.3,6,0,4.7,0,3V0h6v3C6,4.7,4.7,6,3,6z"/></g>
<g transform="translate(420,920) scale(3.4333333333333)"><path d="M6,6H3C1.3,6,0,4.7,0,3v0c0-1.7,1.3-3,3-3h3C6,0,6,6,6,6z"/></g>
<g transform="translate(440,920) scale(3.4333333333333)"><rect width="6" height="6"/></g>
<g transform="translate(460,920) scale(3.4333333333333)"><path d="M3,6H0V0l3,0c1.7,0,3,1.3,3,3v0C6,4.7,4.7,6,3,6z"/></g>
<g transform="translate(560,920) scale(3.4333333333333)"><path d="M6,6H3C1.3,6,0,4.7,0,3v0c0-1.7,1.3-3,3-3h3C6,0,6,6,6,6z"/></g>
<g transform="translate(580,920) scale(3.4333333333333)"><path d="M3,6H0V0l6,0v3C6,4.7,4.7,6,3,6z"/></g>
<g transform="translate(620,920) scale(3.4333333333333)"><path d="M3,6L3,6C1.3,6,0,4.7,0,3V0h6v3C6,4.7,4.7,6,3,6z"/></g>
<g transform="translate(760,920) scale(3.4333333333333)"><path d="M6,6H3C1.3,6,0,4.7,0,3V0l6,0V6z"/></g>
<g transform="translate(780,920) scale(3.4333333333333)"><rect width="6" height="6"/></g>
<g transform="translate(800,920) scale(3.4333333333333)"><path d="M3,6H0V0l3,0c1.7,0,3,1.3,3,3v0C6,4.7,4.7,6,3,6z"/></g>
<g transform="translate(840,920) scale(3.4333333333333)"><circle cx="3" cy="3" r="3"/></g>
<g transform="translate(900,920) scale(3.4333333333333)"><circle cx="3" cy="3" r="3"/></g>
</g></g></mask></defs>
    <rect x="0" y="0" width="980" height="980" mask="url(#qrmask)" fill="#000000"/>
    <g><g transform="translate(40,40)"  fill="#000000"><g transform="scale(10)"><path d="M4.5,14h5.1C12,14,14,12,14,9.6V4.5C14,2,12,0,9.5,0H4.4C2,0,0,2,0,4.4v5.1C0,12,2,14,4.5,14z M12,4.8v4.4 c0,1.5-1.3,2.8-2.8,2.8H4.8C3.2,12,2,10.8,2,9.2V4.8C2,3.3,3.3,2,4.8,2h4.4C10.8,2,12,3.2,12,4.8z"/></g></g>
        <g transform="translate(80,80)" fill="#000000"><g transform="scale(10)"><path d="M6,1.7v2.7C6,5.2,5.2,6,4.3,6H1.7C0.7,6,0,5.3,0,4.3V1.7C0,0.8,0.8,0,1.7,0h2.7C5.3,0,6,0.7,6,1.7z"/></g></g>
        <g transform="translate(800,40)" fill="#000000"><g transform="scale(10)"><path d="M4.5,14h5.1C12,14,14,12,14,9.6V4.5C14,2,12,0,9.5,0H4.4C2,0,0,2,0,4.4v5.1C0,12,2,14,4.5,14z M12,4.8v4.4 c0,1.5-1.3,2.8-2.8,2.8H4.8C3.2,12,2,10.8,2,9.2V4.8C2,3.3,3.3,2,4.8,2h4.4C10.8,2,12,3.2,12,4.8z"/></g></g>
        <g transform="translate(840,80)" fill="#000000"><g transform="scale(10)"><path d="M6,1.7v2.7C6,5.2,5.2,6,4.3,6H1.7C0.7,6,0,5.3,0,4.3V1.7C0,0.8,0.8,0,1.7,0h2.7C5.3,0,6,0.7,6,1.7z"/></g></g>
        <g transform="translate(40,800)" fill="#000000"><g transform="scale(10)"><path d="M4.5,14h5.1C12,14,14,12,14,9.6V4.5C14,2,12,0,9.5,0H4.4C2,0,0,2,0,4.4v5.1C0,12,2,14,4.5,14z M12,4.8v4.4 c0,1.5-1.3,2.8-2.8,2.8H4.8C3.2,12,2,10.8,2,9.2V4.8C2,3.3,3.3,2,4.8,2h4.4C10.8,2,12,3.2,12,4.8z"/></g></g>
        <g transform="translate(80,840)" fill="#000000"><g transform="scale(10)"><path d="M6,1.7v2.7C6,5.2,5.2,6,4.3,6H1.7C0.7,6,0,5.3,0,4.3V1.7C0,0.8,0.8,0,1.7,0h2.7C5.3,0,6,0.7,6,1.7z"/></g></g></g>
</svg>