<svg id="Layer_1" data-name="Layer 1" xmlns="http://www.w3.org/2000/svg" viewBox="0 0 431.12 512.03">
    <path d="M111,512c-3.37-.76-6.76-1.46-10.12-2.29A80,80,0,0,1,40,432.44q-.18-136,0-272A79.63,79.63,0,0,1,119.2,81q96.24-.32,192.47,0c43.42.14,79.07,35.54,79.19,78.91q.34,136.47,0,273c-.09,39.2-29.36,72.36-68.17,78.16a17.83,17.83,0,0,0-2.76.91ZM80,296.24V429.72C80,455,97,472,122.38,472h186C334,472,351,455.1,351,429.48v-266c0-25.66-16.92-42.51-42.63-42.51H122.9C96.9,121,80,137.75,80,163.73Q80,230,80,296.24Z"
          transform="translate(-39.91 0.02)"/>
    <path d="M400,0c4,1,8,1.8,12,2.88C446.4,12.2,470.84,43.4,470.9,79q.25,150.93,0,301.87c0,12.2-8.53,21.07-20,21.08s-20-9-20-21.55V82.05c0-21.88-13.25-38-34.12-41.53a57.41,57.41,0,0,0-9.45-.5L172,40a32.9,32.9,0,0,1-9.82-1.25C154.62,36.34,149.36,28.9,149,21A19.9,19.9,0,0,1,160.45,2c1.49-.7,3-1.31,4.55-2Z"
          transform="translate(-39.91 0.02)"/>
</svg>