<svg id="Layer_1" data-name="Layer 1" xmlns="http://www.w3.org/2000/svg" viewBox="0 0 386.03 422.7">
    <defs>
        <style>.cls-1{fill:#fff;}</style>
    </defs>
    <path class="cls-1"
          d="M407.6,120.4,283.8,48.8a70.43,70.43,0,0,0-68.9,0L90.5,120.4a68.31,68.31,0,0,0-34.8,59.5V322.4a68.19,68.19,0,0,0,34.8,59.5l123.8,71.6a70.43,70.43,0,0,0,68.9,0L406.9,382a68.31,68.31,0,0,0,34.8-59.5V179.9A66.17,66.17,0,0,0,407.6,120.4Zm-85,230.1H286.5a14.55,14.55,0,0,1-13.4-9.4l-28.8-80.3c-.7-2-2.7-2-4-.7L180.1,369.8c-2.7,5.4-10,6-14.7,2.7l-14-11.4c-4.7-4-6-11.4-2-16.1l34.8-48.2a60.43,60.43,0,0,0,0-69.6l-26.8-36.1c-4.7-6.7,0-16.1,8-16.1h31.4a20.3,20.3,0,0,1,18.1,11.4l22.7,48.2a5.48,5.48,0,0,0,10,.7l50.2-87.6,6.7-11.4a15.76,15.76,0,0,1,22.7-4.7l12.7,10a16.62,16.62,0,0,1,2.7,22.7l-42.8,59.5a64.4,64.4,0,0,0,0,73.6l27.4,37.5C334.7,341.8,330,350.5,322.6,350.5Z"
          transform="translate(-55.7 -39.8)"/>
</svg>