<svg id="Layer_1" data-name="Layer 1" xmlns="http://www.w3.org/2000/svg" viewBox="0 0 383.67 384">
    <path d="M948,348h24c1.1.21,2.18.48,3.29.62,8.28,1.06,16.66,1.64,24.85,3.22,43.18,8.33,79.08,29.21,106.94,63.32,25.52,31.24,39.62,67.25,43.53,107.31,2.85,29.13,0,57.71-10.32,85.14-25.1,66.65-74.75,104.65-142.8,120.52-8.34,2-17,2.61-25.49,3.87H947.27c-2.33-.31-4.65-.66-7-.92-35.78-4.09-68.17-16.83-96.65-38.86-39.33-30.44-63.85-70.1-72.7-119.18-1.25-7-2-14-2.93-21V528c.56-4.57,1-9.15,1.69-13.7,6-42,23.68-78.32,53.39-108.6,28.84-29.39,63.6-47.78,104.24-54.81C934.18,349.71,941.12,349,948,348Zm37.66,210.91c-59.48,19-100.85,58.8-133.49,110.13.85.51,1.31.72,1.71,1q70.62,55.11,156.64,30.1c2.49-.73,2.87-2,2.81-4.32A401.57,401.57,0,0,0,994,582.94C991.44,575,988.57,567.22,985.68,558.91ZM835,651.91c17.33-26.3,37.36-49.49,61.07-69.41s50.27-35.41,80.45-45.26l-17.2-33.91C905,521.28,849.47,528.69,792.48,529.75,790.24,576.27,804.33,616.67,835,651.91Zm235.36-238.33c-29.49-25.19-62.78-38.93-100.63-41.3a162.68,162.68,0,0,0-73,12.27,10.5,10.5,0,0,0,.78,1.13,451.1,451.1,0,0,1,71,85.83c1.12,1.76,2.12,1.86,4,1.12,27-10.81,52.62-24.13,76-41.48C1055.8,425.68,1062.79,419.67,1070.36,413.58Zm55.1,156c-37.6-14.83-75.55-21.9-115.75-15.84a434,434,0,0,1,19.07,66.38,466.36,466.36,0,0,1,8.34,69.26C1085.26,662.44,1114.44,623,1125.46,569.53ZM946.11,482.08c-20.86-31.86-44.6-60.5-72.51-85.48-34.64,16.65-75.15,73.5-77.63,109C846.91,504.41,896.92,497.74,946.11,482.08Zm141-51.64c-30.54,28.78-66.17,48.74-104.26,64.34,5.69,11.78,11.15,23.25,16.86,34.6.45.9,2.65,1.55,3.88,1.34,33.72-5.82,66.92-3.18,99.72,6,8.12,2.28,16.12,5,24.53,7.63C1128.44,501.27,1115.08,463.51,1087.14,430.44Z"
          transform="translate(-768 -348)"/>
</svg>