<svg id="Layer_1" data-name="Layer 1" xmlns="http://www.w3.org/2000/svg" viewBox="0 0 352.02 384">
    <path d="M828,348c32.19,10.45,60.4,28.91,89.77,45q56.33,30.82,112.31,62.27C1058.16,471,1086,487.07,1114,503c14.22,8.11,21.79,20.48,21.89,36.75.1,16.1-7.09,28.76-21.18,36.76-25.39,14.42-51,28.42-76.5,42.67Q944.1,671.83,850,724.44c-5.9,3.28-12.63,5.08-19,7.56H820.5c-.8-.27-1.59-.59-2.41-.79-8.54-2.05-16.13-5.62-22.32-12.17-8.61-9.09-11.9-19.87-11.84-32.13.2-44.12.4-88.24.36-132.36,0-46.49-.62-93-.35-139.48.08-13.54,2.07-27.1,3.67-40.59.62-5.2,2.61-10.4,7.06-13.67,6.17-4.54,12.7-8.57,19.08-12.81ZM948.3,539.74,808.07,390.51v299ZM982,540c16.83,17.84,33.31,35.27,49.7,52.79,1.68,1.79,2.89,1.12,4.51.22q32.65-18.33,65.37-36.56c6.57-3.66,10.36-9.05,10.32-16.59s-4-12.82-10.52-16.46q-32.58-18.07-65-36.42c-2.36-1.33-3.61-1-5.34.9-10.64,11.44-21.4,22.76-32.12,34.13C993.38,527.92,987.84,533.83,982,540ZM825,371.82l-.56.95L965.34,522.29c15.61-16.4,30.91-32.48,46.4-48.74-1.47-.91-2.61-1.65-3.79-2.32-33.59-18.94-67.12-38-100.81-56.77-22.77-12.69-45.73-25.06-68.72-37.37C834.21,374.83,829.47,373.55,825,371.82ZM966.23,558.27,823.84,707.84c1.63.08,2.55.39,3.25.12,4.52-1.74,9.23-3.16,13.43-5.49q84.56-47.15,169-94.54a20.08,20.08,0,0,0,2.08-1.54Z"
          transform="translate(-783.87 -348)"/>
</svg>