<svg id="Layer_1" data-name="Layer 1" xmlns="http://www.w3.org/2000/svg" viewBox="0 0 383.45 368.83">
    <path d="M1045.38,453.2a66.88,66.88,0,0,0-23.51,9.61c-14.24,9-14.22,8.82-30.57,5.53a155.05,155.05,0,0,0-69.5,1.54,21.06,21.06,0,0,1-17.43-2.77c-8.27-5.15-16.46-10.49-26.09-12.88-1.32-.32-2.66-.58-4.33-.94-2.52,9.52-3.14,19,.29,28.09,2.22,5.91,1.29,10.64-2.37,15.33-5.09,6.52-10.37,13.08-12.26,21.28-5,21.86-3,43.06,8.34,62.68,7.56,13.12,19.86,20.61,34.18,24.49,8.53,2.31,17.33,3.65,26.06,5.14,5,.87,8.59,3.27,10.25,8.12,1.59,4.68.22,8.6-2.77,12.51a16.61,16.61,0,0,0-3.26,8.41c-.58,8-4.31,12.79-12,15.28-15,4.86-29.7,5.87-43.92-2-4.71-2.6-8.82-6.29-12.95-9.3,3.23,13.85,15.4,23.66,30.95,23.93A97.26,97.26,0,0,0,912,665.53c8.38-1.38,12.67,1,14.4,9.41a74.41,74.41,0,0,1,1.14,13c.14,5.24-.12,10.49-.17,15.73-.14,13.79-13.63,24-27,19.46-69.55-23.61-115-69.61-128.53-143-9.79-53,1.06-102.5,31.85-146.92,23.71-34.2,56.51-56.65,96.21-68.42,54.9-16.27,108.16-11.61,158.44,16.35,44.56,24.79,72.74,62.89,85.92,111.89,13.85,51.5,9,101.15-17.84,147.71-21.51,37.32-53.82,62.17-93.64,77.67a80.43,80.43,0,0,1-15,4.68c-13.31,2.36-23.52-4.62-25.29-18-1.17-9-.47-18.18-.58-27.28-.13-10.48.09-21-.46-31.42-.31-5.95-3-11.16-7.42-15.53-6.6-6.52-4.93-15.61,3.79-18.57,8.12-2.77,16.66-4.28,25-6.28,16.06-3.83,30.14-10.72,39.12-25.4,6.55-10.72,9.39-22.64,9.89-35a133,133,0,0,0-1.34-24.58c-1.27-8.67-5.55-16.4-11.55-22.75-4.8-5.09-5.81-10.27-3.73-16.76a46.54,46.54,0,0,0,1.09-24.45C1046.1,455.82,1045.75,454.63,1045.38,453.2Zm-29.86,245.48a6.54,6.54,0,0,0,1.34-.15c35.12-12,64.42-32.1,84.66-63.6,28.18-43.85,33.1-91.28,17.78-140.52-14.88-47.84-45.43-82.49-92.09-101.83-31.64-13.13-64.71-15.52-98.3-10.09-40.21,6.49-73.9,25-99.29,57.12-30,37.85-41.43,81.22-35.45,129,4.75,37.85,21.29,69.91,49.45,95.82,1.29,1.18,2.65,2.27,4.35,3.74-2.69-6-5-11.41-7.48-16.7-4.63-9.83-12-17.45-20.08-24.46-10.2-8.88-3.33-23.18,6.53-24.74a56.78,56.78,0,0,1,15.57-.22c4.86.58,9.56,2.46,14.36,3.77-.07-.24-.06-.52-.2-.67-14.15-15.93-21.17-34.93-23.13-55.8-2.1-22.4,1.72-43.57,15.11-62.35a6.3,6.3,0,0,0,.85-4.46,77.47,77.47,0,0,1,2-38.51c4.21-14,10-17.44,24.5-14.81l.73.17c13.39,2.7,25.52,8.48,37.35,15.07a9.12,9.12,0,0,0,5.83,1c24.91-5.16,49.87-5.83,74.82-.72,5.59,1.15,10.27,1,15-2.52,2.86-2.14,6.3-3.55,9.58-5.08,10.61-4.92,21.48-8.8,33.48-8.28,5.83.26,10,2.85,12.54,8a42.61,42.61,0,0,1,2.79,6.92c3.64,12.71,3.86,25.61,1.89,38.62a6.37,6.37,0,0,0,.56,4.15c13.26,19,17.43,40.26,15.68,63-2.85,37-26,66.68-61.29,78.31-4,1.31-8.06,2.37-12.3,3.61C1020,653.67,1014.66,676.26,1015.52,698.68ZM909,632.5l-30.29-10.07A23.43,23.43,0,0,0,909,632.5Zm-6,66.67v-7.65l-20-1.19-.17.51Z"
          transform="translate(-768.33 -355.41)"/>
</svg>