<svg id="Layer_1" data-name="Layer 1" xmlns="http://www.w3.org/2000/svg" viewBox="0 0 384 384">
    <path d="M1008.75,732H894l-5.16-.63c-11.52-1.3-23.18-1.88-34.54-4-30.53-5.82-54.42-21.69-70-49-9.74-17.07-13.18-35.93-14.8-55.22-.54-6.44-1-12.89-1.49-19.33V474c.21-1.84.43-3.67.64-5.51,1.29-11.41,1.9-22.94,4-34.2,8-43.09,38.62-73.52,81.57-81.92,16.3-3.18,32.77-3.44,49.26-3.77,3.1-.07,6.2-.39,9.3-.6h96c2.1.19,4.19.42,6.29.56,15.67,1.07,31.5,1.08,47,3.39,44.9,6.69,74.81,35.23,84.85,79.41,3.52,15.45,4.14,31.13,4.45,46.86.09,4.85.45,9.69.68,14.53v96c-.23,4.47-.58,8.93-.67,13.4-.31,15.75-.85,31.47-4.61,46.87-10,41-35,67.24-76.2,77.42-15.6,3.85-31.61,4.49-47.6,4.88C1018.19,731.44,1013.47,731.77,1008.75,732Zm108-197.65h.51c0-14.12.44-28.26-.12-42.37-.67-17-1-34.05-3.64-50.75-4.24-27.3-20.19-45.58-47.33-52.56a159.89,159.89,0,0,0-33.2-5.22c-26.45-1.07-52.94-1.15-79.42-1.32-19.12-.12-38.24.15-57.36.47-14,.23-28,.87-41.64,4.4-23.44,6.06-39,20.23-46.13,43.58-5,16.32-6.29,33.13-6.41,50-.29,40.49-.42,81,0,121.48a196.47,196.47,0,0,0,3.71,36.46c6,30,23.92,49,54.44,54.39a245.32,245.32,0,0,0,38.34,3.69c36.24.62,72.5.86,108.73.47a378.21,378.21,0,0,0,50-3.54c29.41-4.26,49.09-22.76,55.25-51.18a183.39,183.39,0,0,0,4.07-34.15C1117.15,583.6,1116.73,559,1116.73,534.35Z"
          transform="translate(-768 -348)"/>
    <path d="M960,441.45a98.47,98.47,0,1,1-98.41,98.43A98.37,98.37,0,0,1,960,441.45Zm.38,34.62a63.88,63.88,0,1,0,63.54,64.11A63.69,63.69,0,0,0,960.4,476.07Z"
          transform="translate(-768 -348)"/>
    <path d="M1085.43,437.52a23,23,0,1,1-22.75-22.94A22.87,22.87,0,0,1,1085.43,437.52Z"
          transform="translate(-768 -348)"/>
</svg>