<svg id="Layer_1" data-name="Layer 1" xmlns="http://www.w3.org/2000/svg" viewBox="0 0 380.06 312.21">
    <path d="M858.4,627.6c-8.14-5.73-16.45-10.79-23.84-17-10.64-8.88-17.91-20.39-22.77-33.39-2.51-6.7-2.22-9.13,1.89-15.27a87.52,87.52,0,0,1-20.6-26.8,81.56,81.56,0,0,1-8.59-34.23c-.21-8.68,1.86-11.85,9.78-15.36-2-5.19-4.36-10.27-5.91-15.6-6.6-22.72-3.88-44.47,7.43-65.18,5.08-9.31,14.51-10.34,21.36-2.24a199.94,199.94,0,0,0,124.72,69,19,19,0,0,0,2.82,0c.72-6.62.81-13.31,2.26-19.68,8.1-35.51,31.06-56.93,65.64-65.49,28.78-7.12,54.68.36,76.89,20,3.77,3.33,8.26,3.33,12.63,3.6,10.31.64,19.61-2.83,28.59-7.57a17.66,17.66,0,0,1,8.45-2.31c6.6.28,10.93,5.58,10.85,12.42-.18,14.26-5.42,26.91-13.34,38.36-5,7.24-11.33,13.58-16.89,20.47a9.82,9.82,0,0,0-2.3,5.42c-1,63.29-24.1,117.08-70.09,160.57-32.61,30.84-71.67,49.08-116,55.77-55.21,8.32-106.87-1.66-154.6-30.93-6.92-4.24-8.77-11.36-4.65-17.58,2.78-4.19,6.79-5.61,11.68-5.07a137.56,137.56,0,0,0,56-5.21C846.25,632.37,852.56,629.74,858.4,627.6Zm261.45-195c-1.34.07-2.17.12-3,.15-7.35.23-14.73.9-22,.55s-14.24-1.94-19.8-7.55c-30.21-30.54-77.93-18.84-97.25,12.08-8.6,13.78-10.31,28.64-6.93,44.33,1.83,8.5-3.85,15.2-12.52,15-2.5-.07-5-.35-7.47-.58q-79.89-7.2-137.55-63c-.68-.66-1.44-1.24-2.23-1.91-2,5.66-2.61,16.41-1.48,23.22,2.85,17,11.42,30.41,25.43,40.4,6,4.31,8,9,6.11,14.65s-6.39,8.6-13.91,8.17c-5.18-.3-10.33-1.16-16.88-1.93,3.91,6.74,6.87,13.1,10.95,18.63,8.7,11.77,20.52,19.18,34.82,22.48,4.58,1,8.54,2.82,10.45,7.53,2.81,7-.61,14.29-8,16.25-5,1.34-10.2,2-15.87,3.06,1.1,1.4,2,2.68,3,3.83,12.06,13.4,27.11,20.41,45.11,21.37,6.63.36,10.53,3.57,12,9,1.38,5.18-.48,9.7-5.63,13.56a159.83,159.83,0,0,1-54.53,26.63c-3.42.93-6.86,1.77-11.15,2.87,1.7.67,2.55,1.08,3.44,1.36a203.55,203.55,0,0,0,83.71,7.9c41.57-4.67,78.61-20,109.56-48.28,44.7-40.81,66.36-91.83,64.92-152.45-.13-5.31,1.53-9.39,5.87-12.59C1107.74,450.85,1114.32,442.48,1119.85,432.62Z"
          transform="translate(-769.94 -383.76)"/>
</svg>