<svg id="Layer_1" data-name="Layer 1" xmlns="http://www.w3.org/2000/svg" viewBox="0 0 384 336.07">
    <path d="M1152,378.71c-2.24,10.61-4.57,21.2-6.71,31.83q-19.32,96.2-38.57,192.4-8.49,42.4-17,84.82c-2.28,11.47-10.27,15.27-20.35,9.53l-94.69-53.95c-1.07-.61-2.16-1.2-3.58-2-1,1.28-2,2.53-2.91,3.79q-18.48,24.55-37,49.12c-4.69,6.21-11.7,7.53-17.37,3.46-3.82-2.74-5-6.57-5-11.11q.09-41.62,0-83.26c0-7.62.14-15.25,0-22.87a14.27,14.27,0,0,1,5.29-11.8c14.84-13,29.58-26.16,44.36-39.25a4.79,4.79,0,0,0,2-2.65q-16.12,9.35-32.24,18.71c-15.54,9-31.13,18-46.6,27.14-5,3-9.62,3.14-14.84.52q-45.32-22.78-90.8-45.27a15.43,15.43,0,0,1-8-8.88v-5.25c1.71-4.79,5.08-7.6,9.84-9.46q141.87-55.2,283.68-110.59,36.24-14.15,72.45-28.35c5.07-2,9.81-2.12,14,1.71,1.67,1.55,2.74,3.74,4.08,5.64Zm-342.23,139c1.63.87,2.71,1.48,3.82,2,18.87,9.41,37.78,18.76,56.61,28.27a5.86,5.86,0,0,0,6.45-.19q48.83-28.56,97.76-56.91,40.47-23.53,81-47.06c5.93-3.44,12.06-2.17,15.94,3.05s3.24,11.39-1.74,16.17c-.91.86-1.85,1.68-2.79,2.51q-65.65,58.19-131.36,116.34a6.86,6.86,0,0,0-2.54,5.76c.09,20,0,40,0,60,0,1.07.1,2.13.17,3.88,1.19-1.45,2-2.35,2.7-3.3q10.49-13.93,21-27.86c5.68-7.55,10.92-8.68,19.06-4q36.93,21,73.87,42.09c6.24,3.56,12.51,7.09,19.22,10.88l55-274.19Z"
          transform="translate(-768 -363.98)"/>
</svg>